<?xml version="1.0" standalone="no"?>
<!DOCTYPE svg PUBLIC "-//W3C//DTD SVG 1.1//EN" "http://www.w3.org/Graphics/SVG/1.1/DTD/svg11.dtd" >
<svg xmlns="http://www.w3.org/2000/svg">
<metadata>
This is a custom SVG webfont generated by Font Squirrel.
Copyright   : Generated by Fontographer 33
</metadata>
<defs>
<font id="webfont5u1D0iRu" horiz-adv-x="1000" >
<font-face units-per-em="1000" ascent="800" descent="-200" />
<missing-glyph horiz-adv-x="880" />
<glyph unicode=" "  horiz-adv-x="880" />
<glyph unicode="&#x09;" horiz-adv-x="880" />
<glyph unicode="&#xa0;" horiz-adv-x="880" />
<glyph unicode="!" horiz-adv-x="416" d="M80 334l1 27l6 35l7 42l2 34l-3 51l-9 76q0 25 2 36t10 29q23 64 40.5 84.5t47.5 35.5l44 16l19 4l20 4q30 0 53 -24q12 -15 12 -33q0 -20 -11 -45l-10 -25l-8 -33l-11 -50q-7 -33 -19 -66l-26 -85l-14 -68q-12 -61 -33 -107l-19 -57q-12 -31 -37 -31q-28 0 -44 47 l-13 50l-5 26zM81 72q0 20 15.5 39.5t43.5 19.5q21 0 40 -16t19 -43q0 -20 -15 -40q-16 -19 -44 -19q-20 0 -39.5 15.5t-19.5 43.5z" />
<glyph unicode="&#x22;" horiz-adv-x="500" d="M-3 568l13 -3q52 8 69 16l41 29q21 15 39 36q14 15 31 44l37 53q8 13 11 33l-3 19q-9 29 -25 43.5t-32 14.5q-18 0 -35 -16q-10 -10 -23 -42l-11 -63q-6 -33 -19 -62q-6 -14 -37 -44l-42 -42zM244 585l1 10q5 21 21 39l35 40l16 23q5 10 5 49q0 40 23 59q35 27 73 27 q34 0 52 -27q5 -8 8 -26q0 -15 -13 -38l-25 -41q-24 -42 -85 -88t-94 -46q-17 0 -17 19z" />
<glyph unicode="#" horiz-adv-x="755" d="M19 377q0 -33 26 -47l12 -3q9 0 26 10l29 19l19 13q10 8 24 11q16 0 25.5 -15.5t9.5 -38.5q0 -22 -4.5 -36.5t-23.5 -28.5l-27 -21l-36 -19q-6 -4 -14 -16l-4 -21q0 -25 24 -49q16 -14 36 -14q16 0 35 8l39 21q8 5 19 26t26 24q24 3 33 -28l17 -62l5 -27q3 -19 14 -27 q8 -4 24 -8q15 0 33 9l19 13q14 9 14 26q0 14 -20 50.5t-20 55.5q0 9 6 23l24 34q16 16 36 16q21 0 37 -13q10 -8 28 -32q6 -7 14 -36l5 -19l6 -15l14 -37q9 -16 26 -23q22 -5 39 14q8 8 26 41l6 15l2 17q0 23 -20 61.5t-24 63.5l-7 55l3 23q6 21 54.5 33t55.5 37l2 15v12 q0 22 -8 37q-6 15 -24 21l-13 2q-7 0 -22 -6l-27 -12q-14 -5 -42 -44q-21 -28 -46 -25q-21 6 -37 25q-14 19 -14 44l1 11q3 24 32 36q43 16 53 24l42 25q23 14 23 35q0 23 -21 36.5t-46 13.5q-17 0 -58 -37q-16 -13 -35 -13q-19 3 -34 30q-18 36 -25 43l-22 28 q-18 24 -35 28l-25 2q-20 0 -35 -8q-12 -4 -23 -21l-7 -26q0 -13 4 -25l7 -22l16 -23q11 -11 14 -26q0 -21 -22 -34q-22 -11 -48 -11q-24 0 -51 18l-29 22q-6 5 -42 66q-10 20 -26 23l-16 -6q-7 -3 -17 -19q-6 -14 -9 -34l-1 -8v-6q0 -15 7 -35l6 -17l8 -19l6 -17l14 -25 l8 -22l2 -21q-3 -15 -16 -32l-24 -28l-26 -26q-8 -8 -9 -16zM258 443q0 -13 4 -28l8 -31q3 -16 20 -16l17 3l23 4q19 0 45 10l25 10q17 22 17 38q0 17 -16 39l-31 43q-6 9 -14 10q-6 0 -26 -15q-41 -36 -52.5 -39t-15.5 -10z" />
<glyph unicode="%" horiz-adv-x="635" d="M87 656l3 24q9 36 43 60q9 6 72 35q36 15 60 18l39 4l25 1h29h11l21 2l84 22l16 -2q24 -6 40.5 -15.5t24.5 -29.5l4 -21q0 -13 -7 -31l-12 -33q-6 -22 -14.5 -39.5t-23.5 -39.5q-39 -57 -46 -74l-23 -63q-9 -33 -28 -59q-12 -18 -42 -42l-26 -23l-16 -18l-24 -48l-22 -49 q-24 -45 -46 -73l-25 -31l-13.5 -15.5t-20.5 -20.5l-26 -37q-15 -21 -34 -18q-15 3 -15 16q0 12 16 40l24 44l10 21l16 23l54 66l43 59l42 61l42 69l38 71l25 55l25 60l20 41q19 37 25 69l3 18l4 20q0 9 -6.5 16.5t-17.5 7.5q-10 0 -21 -5l-33 -9l-49 -8q-28 -9 -35 -35 q0 -19 17 -37.5t23 -32.5l5 -25l2 -26q0 -54 -37 -104l-19 -24q-15 -18 -28 -27q-27 -21 -60 -21l-18 2q-37 6 -62 58l-23 57l-22 49q-11 25 -11 47zM175 620q0 -39 35 -55l25 -5q39 0 55 35l5 25q0 39 -35 55l-25 5q-39 0 -55 -35zM315 140l1 22q0 13 4 28q9 54 33 87 t72 48q23 6 44 6q65 0 106 -56q11 -17 18 -41.5t7 -53.5l3 -30l1 -18q0 -18 -2 -22q0 -6 -7 -20q-12 -31 -35 -45q-18 -13 -60 -25l-29 -6l-29 -2q-28 0 -51.5 9t-45.5 34q-10 13 -23 40l-5 22zM381 181q0 -21 10.5 -40.5t29 -30.5t41.5 -11q47 0 70 38q11 19 11 51 q0 28 -8 47q-6 20 -18 20q-7 0 -12 -5q-10 -8 -19.5 -11.5t-23.5 -3.5l-22 1q-14 0 -19 2q-20 0 -30 -17.5t-10 -39.5z" />
<glyph unicode="&#x26;" horiz-adv-x="475" d="M29 435l1 -10q3 -24 18 -45l37 -35l18 -10q23 -9 27 -20q5 -15 -14 -31q-27 -21 -31 -29l-24 -39q-11 -19 -11 -41q0 -42 30 -75q21 -21 49 -21q25 0 54 13l62 28q24 9 51 30l48 34q8 5 35.5 11.5t35.5 24.5l2 12q0 19 -18 37q-18 15 -44 21q-23 5 -47 -36.5t-48 -38.5 q-45 9 -55 55l-1 12q0 23 30 46l61 32l10 3l21 1q22 0 29 16q3 15 -5.5 26.5t-29.5 23.5l-16 4q-12 0 -37.5 -17t-41.5 -17l-31 1q-13 2 -18 5q-26 8 -26 29q0 15 10 29l25 21q12 10 33 16l42 4h20q18 0 33 -5l28 -5q14 0 24 10q21 21 21 54q0 12 -4 19.5t-17 11.5l-34 4 l-41 2q-52 0 -101 -12.5t-84 -43.5l-51 -47q-25 -28 -25 -58zM171 763q0 -21 5 -36l9 -32l21 -62q9 -18 22 -18l12 6q3 2 8 12l3 18l-1 29q0 12 15 54t15 59q0 26 -27 26l-24 -3l-34 -11q-10 -3 -19 -15q-5 -10 -5 -27zM242 -46q0 -34 28 -34q39 0 65 35l6 14l2 17 q0 35 -21.5 78.5t-35.5 43.5q-6 0 -6 -13l-25 -81l-7 -27q-6 -23 -6 -33z" />
<glyph unicode="'" horiz-adv-x="260" d="M16 605q0 -9 20 -9l21 1q6 0 9.5 1l25 7t43.5 15q47 18 75 70q15 26 24.5 49.5t9.5 39.5q0 23 -12.5 40.5t-32.5 24.5t-38 7q-17 0 -41 -6q-16 -3 -25 -18q-7 -16 -7 -33l4 -48l5 -44q0 -28 -5 -37q-3 -9 -17 -20q-5 -5 -25.5 -11.5t-28.5 -15.5z" />
<glyph unicode="(" horiz-adv-x="435" d="M19 482l1 -35l15 -67q6 -27 15 -51l20 -49l26 -68q14 -33 39 -57q16 -16 54 -32l52 -20l14.5 -5.5t33.5 -26.5q19 -16 36 -19l15 3q26 12 35 50l1 11q0 24 -31 45l-55 39q-10 10 -72 55q-44 30 -62.5 64.5t-27.5 65.5l-6 31l-2 39v43l1 32q0 18 5 34.5t24 46.5 q20 27 63 45q60 24 77 34l52 23q28 12 28 37q0 15 -8 20l-14 8l-17 2l-22 -1q-8 0 -30 -7l-39 -7q-44 -6 -79 -24.5t-66 -55.5q-15 -17 -25 -35l-21 -43l-19 -49l-10 -41l-1 -25v-10z" />
<glyph unicode=")" horiz-adv-x="415" d="M2 752l1 -20l7 -17q6 -19 46 -32q35 -9 49 -18l19 -14l18 -18l33 -38l29 -40q14 -21 21 -45q14 -47 14 -77q0 -38 -19 -73l-15 -22l-30 -33l-55 -70q-10 -16 -29.5 -58t-35.5 -67q-3 -7 -16 -18q-7 -7 -14 -24l-7 -29q0 -8 6 -19l16 -7q10 0 18 4l32 18q27 12 47 41 q35 52 38 54l110 110l47 53q23 28 33 62q6 24 6 44l-3 38l-3 43v19q0 47 -5 69.5t-20 45.5q-12 22 -29 37l-66 44q-25 17 -52 30l-53 25q-13 3 -52 32q-31 19 -49 22q-11 0 -26 -16q-11 -16 -11 -36z" />
<glyph unicode="+" d="M23 363q0 -21 12 -38.5t38 -17.5l32 4l35 4q21 0 54.5 13.5t51.5 17.5q16 0 29 -16q6 -8 7 -23q0 -14 -11 -39q-9 -24 -11 -43l-1 -24v-22l1 -33q2 -11 10 -31q18 -47 31 -67q22 -34 52 -34l12 1q27 5 27 35l-12 64q-6 27 -6 42l2 42l7 68q5 37 32 64q12 12 26.5 16.5 t31.5 4.5l41 -4l38 -3l28 3q12 3 25.5 13t23 18.5t15.5 16.5q12 18 21 45l2 14q0 23 -28 23l-20 -1l-29 -6q-78 -18 -106 -18h-14l-20 3l-25 10q-24 12 -34 46q-13 43 -21 59l-30 70q-29 77 -64 77q-12 0 -16 -2q-18 -6 -27 -19q-7 -16 -7 -32l3 -23l9 -53l7 -53l6 -31 q6 -20 6 -28t-6 -20q-7 -8 -14 -12l-18 -3l-27 3q-14 2 -21 2q-7 -1 -11 -1l-56 -2q-47 0 -64 -28.5t-17 -51.5z" />
<glyph unicode="," horiz-adv-x="272" d="M21 61q0 15 4 26q3 13 13 27q11 19 33 28t44 9q24 0 44 -9.5t31 -29.5l6 -15l2 -17q0 -17 -5 -31l-11 -33q-9 -31 -28 -54q-9 -12 -44 -44l-32 -35q-21 -21 -29 -22l-5 9q0 10 5 19l12 22l24 36q18 23 18 34q0 7 -6.5 16.5t-27.5 9.5q-18 0 -29 9q-19 19 -19 45z" />
<glyph unicode="-" d="M16 427q0 -17 4 -32q6 -23 20 -32.5t37 -9.5q26 0 90 16t88 16l41 -1q14 0 46 -7l83 -7l57 -1l114 -5q74 0 74 14q0 9 -25 22l10 -3l42 -14l-7 10l45 -8l43 -3q21 0 21 6l-3 4q-2 4 -11 8l-53 6h-14h-10q-6 2 -12.5 3t-11.5 4l14 4l31 5q-12 0 -23 8l-21 15q-17 9 -20 14 q3 2 7 4t15 4l42 6l-13 3l-6 4l39 6q18 3 21 9q3 8 -9 14l-38 4h-22h-12l-6 3l4 4l10 7l-23 -2l-44 -9l-56 -9l-3 1q4 4 29 12q7 2 10 5l-122 -13l-120 -11l12 4q71 15 74 25l-5 2l-17 5l-57 2l-91 -2l-69 -2l-46 3l-44 3q-25 0 -41 -6.5t-34 -24.5q-34 -40 -34 -83z" />
<glyph unicode="." horiz-adv-x="290" d="M31 81q0 18 7 32t25.5 26t39.5 12q17 0 31 -7q37 -19 37 -66q0 -20 -5 -30q-15 -39 -26 -53q-9 -15 -21 -15q-9 0 -23 14q-18 18 -26 22q-16 9 -29 26q-10 22 -10 39z" />
<glyph unicode="/" d="M-7 65q0 7 86 120l66 90l105 160l90 205q9 15 27 69q24 72 68 66q15 0 32 -10q12 -6 23 -20q6 -8 6 -20q0 -13 -10 -30l-31 -55l-30 -100l-20 -63l-25 -63l-17 -33l-21 -37l-28 -45l-10 -18l-16 -24q-21 -36 -46.5 -65.5t-55.5 -58.5l-61 -53l-32 -39q-16 -20 -33 -23 l-10 2q-1 11 0 18q3 16 18 52q4 10 9 24t8 24h-14q-18 -12 -56 -53l-17 -17z" />
<glyph unicode="0" d="M87 337q0 34 15 70l97 256q62 137 156 137l18 -1q10 0 22 -4q76 -18 110 -79l93 -194q23 -40 23 -81q0 -59 -50 -121q-44 -55 -118 -105l-64 -40l-74 -40l-23 -8l-25 -3q-64 0 -122 66t-58 147zM235 355q0 -21 7 -31q7 -7 22 -10q24 0 58 28q10 8 57 25q30 9 42 39l24 60 q12 30 12 52q0 25 -17 45q-15 21 -44 40q-24 18 -44 18q-18 0 -27 -16q-42 -85 -68 -152q-10 -29 -16 -54.5t-6 -43.5z" />
<glyph unicode="1" horiz-adv-x="840" d="M-50 533q0 5 37 29q90 51 103 68l77 106q37 52 56 52l21 -3l35 -7q23 -3 35 -8t26 -25l4 -18l-9 -37l-5 -25v-175l-1 -38l-4 -32l-10 -70l-15 -120q0 -8 -1 -18.5t-4 -20.5l-5 -35q0 -19 10 -36q15 -24 43 -24q18 0 81 23l29 8l27 3q24 0 134 20l108 13l-5 -3l-34 -15 l-78 -25l30 3l42 8q95 15 129 15q17 0 20 -5q0 -8 -61 -30l-90 -30l-130 -41q-4 -1 -24 -4.5l-37 -6.5l-52 -7q-13 0 -17 -2l-170 -35l-50 -10l-32 -6l-24 -2l-22 1q-7 0 -26 8l-39 14q-22 9 -22 30q0 19 34 26q32 3 46 9l52 14q27 6 43 26q9 9 12 21l6 28v15q-3 12 -4 18 q-9 47 -9 63q0 28 10 92l5 58q0 30 12 69q25 85 28 106q0 22 -8 33q-5 11 -20.5 18t-32.5 10q-30 0 -66 -37l-88 -99l-23 -11l7 9l7 16q0 9 -12.5 15t-48.5 6q-30 0 -30 8z" />
<glyph unicode="2" d="M-7 -2q0 18 6 42l16 50q15 38 57 76l48 39q31 28 79 60l51 35l109 62q56 33 86 83q22 40 30 61l8 25l5 34l-1 17l-1 10l-6 18q-9 27 -27.5 39t-46.5 12q-31 0 -79 -16l-147 -45l-87 -31q-8 0 -23 6q-18 9 -27 21q-5 10 -13 39l-1 8v6q0 34 54 58l102 33q45 18 81 24t89 6 l45 3l68 9l32 -3q15 -3 30 -14q37 -23 58.5 -56.5t21.5 -78.5q0 -17 -2 -22l-3 -18l-9 -89q-6 -43 -21 -86q-3 -9 -8 -21.5t-14 -26.5q-5 -10 -11.5 -19.5t-17.5 -22.5q-19 -23 -65 -48l-24 -13l-20 -14q-65 -33 -90.5 -52t-25.5 -43l2 -17q2 -9 12 -18q9 -5 27 -7 q11 0 85 18q35 9 55 9q42 0 110 25l60 18l50 7l56 3l102 8l7 -1l-40 -10q-5 0 -14 -10q-6 -9 -6 -19q0 -6 5 -6l18 -3l8 -3l-122 -26l-34 -18l11 -2q19 0 57 16l29 11l20 5q6 0 6 -7q0 -6 -13 -23h24l90 27l-1 -8l-48 -34l-37 -16l-41 -4l-34 1l-63 4h-45l-42 1 q-43 0 -97 -6.5t-92 -20.5l-99 -34l-150 -60l-97 -28q-14 0 -18 2q-6 0 -18.5 9.5t-21.5 27.5q-7 18 -7 32z" />
<glyph unicode="3" horiz-adv-x="475" d="M-26 599q0 9 7 16q37 35 88 67q71 42 133 42l21 -1l73 -9q36 -9 55 -43l23 -44q15 -33 15 -58q0 -24 -13 -49q-27 -52 -80 -83q-15 -9 -15 -18q5 -15 34 -18q30 0 38 -5q22 -10 58.5 -41t50.5 -49l15 -30q2 -7 3.5 -13.5t1.5 -18.5l-1 -17q-6 -42 -94 -102 q-80 -54 -133 -66l-28 -4l-17 -1l-26 1l-28 1l-20 -1q-10 0 -30 -10l-15 -5l-15 -3q-9 0 -18 6q-15 12 -15 35q0 30 24 57q7 7 24 10q13 0 28 -7l24 -8l25 -7q10 0 20 5q51 26 71.5 57.5t20.5 61.5q0 14 -3 27t-11 29l-18 35q-6 18 -22.5 25.5t-35.5 7.5l-34 -3l-30 -5 q-15 -2 -36 -17l-17 -7l-12 5q-11 9 -11 25q0 12 2 16l10 23q8 15 43 15q36 0 51 12l59 50q42 45 42 96q0 25 -25 41q-22 10 -42 10q-28 0 -56 -17l-34 -21q-6 -3 -32 -32q-15 -17 -37 -17q-10 2 -18.5 6.5t-18.5 13.5q-19 19 -19 34z" />
<glyph unicode="4" d="M168 492q0 -29 4.5 -43.5t24 -34.5t46.5 -20q21 0 69 18l60 21l23 4q9 1 12.5 2t16.5 6l22 4q11 0 19 -4q22 -11 22 -35q0 -7 -3 -21t-10 -36l-10 -47q0 -12 -3.5 -27.5t-16.5 -54.5l-14 -55q0 -15 -18 -63l-8 -31q0 -18 16 -31q16 -11 39 -11q28 0 51 17q10 7 16 19.5 t6 28.5l-2 27l-2 30l2 20q5 26 11 50.5t17 54.5l32 105l9 54q3 19 15 40q12 16 60 31q48 12 48 30l-2 10q-3 12 -21 15l-32 2h-22q-18 3 -15 18q11 39 15.5 92.5t4.5 142.5q0 17 -18 17q-16 0 -27 -5l-50 -22q-21 -9 -32 -33q-7 -28 -7 -57v-15q0 -40 -3.5 -57t-22.5 -38 l-25 -24q-10 -8 -32 -17l-36 -5q-35 0 -57 26q-10 13 -10 29q0 13 11 41l8 23l6 22l26 86q0 12 -6 24q-9 18 -25 19q-22 0 -64 -45q-22 -25 -61 -79q-29 -41 -42 -75t-13 -85l-1 -31z" />
<glyph unicode="5" horiz-adv-x="775" d="M57 731q0 -32 13 -75l25 -86l18 -79q12 -37 47 -56l30 -7q17 0 40 10q57 24 78 27l49 4l42 3h20l23 -2l34 -9l45 -14q23 -6 28 -10q34 -15 51 -47q8 -14 12 -31l4 -31q0 -30 -9.5 -60.5t-28.5 -55.5q-13 -16 -43 -42q-20 -16 -64 -38l-71 -27l-59 -22q-34 -12 -61 -18 l-21 -2l-33 3l-26 5l-53 8q-32 0 -32 -29q0 -30 16.5 -55t43.5 -25h240q46 0 78 3t57 11q68 18 115 71q31 35 49 82q11 32 21 98l5 36l2 28v12l-2 14q-3 21 -12 41q-6 19 -43 69q-29 43 -58 69q-27 27 -72 51l-32 16l-35 13q-19 7 -68 16l-18 1q-13 0 -25.5 -2t-33.5 -9 l-30 -8l-24 -3q-12 0 -22 3.5t-23 20t-18 25.5l-7 27l2 15q2 9 12.5 15t28.5 6l27 -1q21 0 28 -2l18 2l85 16q44 9 90 9q13 0 27 -2t38.5 -8t42.5 -9t28 -3q16 0 25 7.5t9 24.5q0 22 -5.5 35.5t-24.5 24.5l-21 7l-38 7q-26 4 -41 4.5t-24 0.5l-90 -2l-71 -2l-90 -3l-65 -2 q-15 0 -51 9l-30 5q-11 0 -29.5 -5.5t-31.5 -26.5l-8 -20q-3 -11 -3 -26z" />
<glyph unicode="6" horiz-adv-x="625" d="M10 387l2 -33q3 -20 5 -26q6 -15 8 -22q9 -33 25 -58l35 -53l48 -72q26 -33 62 -58l42 -26l49 -16q18 -4 33.5 -6t35.5 -2q63 0 130 40q33 18 51 36t34 53q9 19 13 34.5t4 36.5q0 39 -17 83q-15 46 -32.5 72t-57.5 50l-26 11q-12 5 -35 10l-59 4l-29 1h-12q-8 0 -16 2 q-18 0 -33.5 -5.5t-25 -23.5t-9.5 -38q0 -28 20 -51q12 -12 25 -12q8 0 59 21l21 8l20 3q43 0 59.5 -3.5t34.5 -22t18 -43.5q0 -29 -24.5 -63.5t-55.5 -51.5t-63 -17l-22 1l-24 6q-20 7 -47.5 23.5t-50.5 51.5l-30 69l-19 58q-6 27 -6 57l-1 29v29l3 52q3 20 18 50 q32 69 81.5 102t138.5 33q25 0 48.5 19.5t23.5 42.5q0 10 -2 13q-3 13 -17.5 19t-36.5 6h-37l-14 1l-16 1q-79 0 -144 -44q-55 -36 -115 -113q-6 -8 -41 -83q-12 -27 -16 -28l-3 11v5l-3 -4l-5 -52l-2 -44v-42v-31z" />
<glyph unicode="7" horiz-adv-x="835" d="M5 666q0 18 8 31l22 28q15 19 40 31t60 12h23h16q9 2 13 2q16 0 36 5l26 4l49 4l82 2h215h23l20 4l35 5h16l11 -4q34 -9 52.5 -22t32.5 -43q8 -22 8 -38l-1 -20q0 -7 -7 -22q-6 -24 -29 -43l-41 -37l-69 -78l75 -8q79 -9 79 -24q0 -7 -25 -20l-18 -5l-26 -1h-19h-17 l-19 2l-67 6q-12 0 -14 -2l-30 -30l-18 -19l-12 -16l-60 -100q-18 -24 -50 -50q-81 -63 -90 -75q-54 -57 -88 -82q-25 -17 -42 -17l-16 1l-11 2q-16 0 -35 -9t-58 -40l-12 -6q0 7 32 49l50 67q17 22 103 111q37 37 57 74l64 125l-114 3q-67 0 -70 7q-9 37 67 53l195 15 q76 47 76 92q0 18 -12.5 42.5t-35 34.5t-45.5 10l-45 -3l-80 -9q-43 0 -106 -27.5t-91 -27.5q-19 0 -29 2t-19 8l-41 15q-24 9 -24 31z" />
<glyph unicode="8" horiz-adv-x="515" d="M23 565l3 -34q3 -18 27 -39l72 -67l20 -28q10 -18 10 -31q0 -30 -27 -56q-41 -35 -48 -50l-31 -65q-14 -37 -14 -70q0 -40 19 -72q13 -25 51 -58q26 -23 50.5 -34t69.5 -21l36 -5l35 -2q36 0 66 12q28 9 53 40q15 19 26 61l9 44l15 56q4 18 6 29t2 23l-3 32 q-12 62 -78 102l-87 53l-5 4l-1 4q0 6 42.5 21t58.5 31q31 37 45.5 72t14.5 83q0 37 -14 64q-11 25 -42 56q-28 30 -85 43l-62 11l-38 7l-39 4q-34 0 -60 -32l-45 -68l-36 -59q-9 -19 -12.5 -32t-3.5 -29zM130 612q0 21 20 28l46 11q27 6 49 6q31 0 51.5 -9.5t30.5 -35.5 q7 -25 7 -42q0 -34 -18 -64q-18 -25 -51 -31l-13 -1q-22 0 -43 12q-19 13 -36.5 35.5t-29.5 46.5q-1 2 -7 18t-6 26zM170 141q0 16 37 69q17 26 28 55q5 19 27 19t50 -21t41 -46l4 -21q0 -18 -20 -47q-24 -33 -33 -51q-6 -18 -20 -30q-10 -7 -25 -10q-18 0 -42 18 q-7 3 -15 13l-20 22q-12 12 -12 30z" />
<glyph unicode="9" d="M62 542l3 -32q6 -40 23 -65q12 -20 45 -50l29 -20l28 -15q28 -11 59 -11q18 0 40.5 6t45.5 24l40 36l35 24q18 12 23.5 30t7.5 35l-1 16q-3 17 -13 20q-8 0 -71.5 -63t-98.5 -63q-8 0 -22 6q-21 11 -41 34q-15 21 -24.5 53.5t-9.5 60.5q0 23 9 46t31 41q15 12 32 16l41 4 h32h26l28 1q38 0 64 -9q24 -6 37 -37l5 -18l2 -17l-1 -18l-1 -22q0 -45 -4 -65l-16 -85l-6 -29l-8 -26l-16 -55l-15 -65q-8 -27 -34 -86q-15 -30 -21 -54l-23 -64l4 -20q3 -12 19 -19.5t34 -7.5q39 0 71 20t32 67v21t2 18l6 25l40 155l35 115l16 80l8 50l9 50l12 80l8 45 l-3 15q-8 19 -29 19q-16 0 -46 -11l-27 -6l-23 -2q-27 3 -74.5 24t-80.5 21h-35l-33 1q-34 0 -60 -6t-52 -24.5t-44 -46.5q-14 -23 -31 -64l-14 -45z" />
<glyph unicode=":" horiz-adv-x="336" d="M73 534q0 24 33 48q36 22 66 22q35 0 63.5 -27.5t28.5 -64.5q0 -28 -16 -45q-6 -8 -76 -47l-17 -5q-20 0 -42 37l-33 60q-4 7 -7 22zM104 248q0 28 21.5 62.5t45.5 34.5q12 0 21 -9t60 -42l9.5 -7t11.5 -13.5t7 -25.5q0 -36 -41 -61l-47 -27q-11 -6 -21 -6q-23 0 -47 30 q-20 31 -20 64z" />
<glyph unicode=";" horiz-adv-x="456" d="M64 160q0 48 34 82t82 34q46 0 82 -29t36 -68q0 -15 -2 -19q-43 -181 -67 -248t-36 -67q-5 0 -11 33l-2 97v69q0 27 -36 48q-80 42 -80 68zM104 480q0 47 32.5 79.5t79.5 32.5q44 0 78 -32.5t34 -79.5q0 -44 -32.5 -78t-79.5 -34t-80 32q-32 34 -32 80z" />
<glyph unicode="&#x3c;" horiz-adv-x="460" d="M24 421l60 80l65 50l220 190l55 -30l-175 -155l-75 -110l70 -110l170 -180l-35 -40l-225 215z" />
<glyph unicode="=" horiz-adv-x="610" d="M20 332q0 18 10 38q12 20 36 20q16 0 52 -13q38 -12 57 -12q36 0 140 21q58 10 78 10q25 0 40 -4l42 -12l49 -14q27 -9 30 -26l3 -18q0 -16 -6.5 -27.5t-19 -24t-31.5 -12.5q-15 0 -44.5 11t-45.5 11q-29 0 -92 -10l-58 -5l-30 -1q-11 0 -33 -7l-54 -12l-46 -8 q-22 0 -37.5 8.5t-24.5 29.5q-15 33 -15 57zM55 563q0 20 10.5 37t29 30t38.5 13q12 0 63 -15l24 -6l20 -2q40 0 123 10l77 5h17l22 4l66 10q15 0 25 -6t10 -23q0 -20 -10 -36l-15 -19q-16 -20 -55 -26l-70 -4l-47 -5l-45 -1h-39l-41 1h-13l-46 -3l-83 -7q-25 0 -37 4 q-24 8 -24 39z" />
<glyph unicode="&#x3e;" horiz-adv-x="460" d="M60 173l175 155l75 110l-70 110l-170 180l35 40l225 -215l130 -90l-60 -80l-65 -50l-220 -190z" />
<glyph unicode="?" horiz-adv-x="600" d="M53 686q0 18 11 40t24 41t35 28t50 9l46 -2l38 -2q61 0 102 -9q23 -5 41.5 -13t45.5 -25q49 -30 60 -41q26 -22 39 -57q5 -13 9 -31.5t4 -31.5q0 -47 -29 -96q-15 -27 -49 -49l-63 -39l-44 -24q-25 -12 -36 -32l-7 -28l2 -23l2 -22q0 -11 -2.5 -17.5t-10.5 -13.5 q-25 -19 -51 -19q-19 0 -34 9t-18 28q0 14 11 35l36 67l21 61q18 45 51 91q8 11 49 36q31 19 31 44t-20 42l-44 30l-57 34q-27 12 -56 12q-23 0 -38 -5t-44 -31q-13 -11 -31 -19l-24 -7l-16 -3l-14 3q-20 6 -20 30zM178 79q0 42 35 61q14 5 31 7q42 0 61 -35q5 -14 7 -31 q0 -42 -35 -61q-14 -5 -31 -7q-42 0 -61 35q-5 14 -7 31z" />
<glyph unicode="A" horiz-adv-x="510" d="M13 35q0 17 15 55q18 41 26 63.5t12 41.5l33 291l31 118q30 102 101 158l55 40q33 21 47 21q8 0 11 -15q0 -22 4.5 -38t18.5 -38q32 -51 39 -78l16 -63l16 -72l16 -57q17 -57 17 -93l-1 -25l-6 -29l-11 -54l-9 -69l-3 -52q0 -24 6 -62q0 -9 12 -38l23 -50l-3 1l-11 15 l-5 6l-11 21q-9 27 -16 28q-8 0 -11 -15q0 -18 13 -31l-52 71l-1 -14q0 -18 6 -36l11 -14l-11 -5q-9 0 -38 60l19 -62l-33 63l-3 87q27 35 27 74q0 28 -18 61q-9 18 -27 30l-36 21l-31 18q-23 14 -45 17q-12 0 -23 -8t-11 -21q0 -10 23 -55q12 -24 12 -38q0 -34 -20 -103 l-7 -34l-3 -31q0 -16 7 -43l7 -40q0 -20 -14 -37q-21 -23 -54 -23q-46 0 -87 35q-23 18 -23 47zM184 422l30 23q37 23 71 23q15 -9 24 -12.5t20 -3.5l16 3q12 3 12 43q0 49 -21 107.5t-51 78.5l-49 -64q-26 -65 -39 -118t-13 -80zM321 681l11 -2q6 0 10 8l7 1l17 -22l9 -20 q9 -28 22 -47l-7 2l-6 2l-18 28l-4 3l2 -10l-1 -3l-13 13q-3 3 -5 12q0 6 -17 23zM377 566q-3 9 1 13l9 3q18 0 21 -24l-3 -20l-3 -21l2 -19l2 -14l-3 -3l-4 9l-12 29l-6 29q0 10 -4 18z" />
<glyph unicode="B" horiz-adv-x="895" d="M147 -73q0 22 15 58l25 62l64 182l6 54l2 43l-1 50l-1 57q0 41 -35 143q-16 54 -16 77q0 16 5.5 35t21.5 39q33 39 88 55l110 17l33 4l35 1l35 -1q23 0 47 -4h38h26q13 0 29 -4q20 -3 47 -21t45 -36q18 -21 25 -53l1 -16q0 -34 -34 -72l-39 -44q-27 -36 -126 -87l-91 -46 l4 1l15 6q94 35 150 35q76 0 132 -59q30 -33 48 -68.5t18 -73.5q0 -31 -12.5 -66t-41.5 -60q-11 -10 -66 -44q-35 -21 -107 -28l-79 -8l-82 -15l-39 -9l-38 -11q-35 -12 -148 -114l-41 -32q-13 -9 -28 -11q-20 0 -33 28q-5 18 -7 36zM358 523q0 -29 5 -43.5t15 -14.5 q6 0 11 4q34 25 139 62q61 21 77 76l6 28l3 25q0 15 -2 19q0 7 -7 18q-17 29 -50 29q-25 0 -58 -13l-60 -28l-32 -15q-13 -6 -22 -21q-11 -23 -18 -59l-5 -34zM377 328l30 -45q15 -21 15 -36t-13 -28q-6 -5 -6 -13q0 -15 37 -28l38 -8l48 -3l35 1q11 0 37 7t43 24 q25 22 30 32q12 17 12 40q0 21 -15 36q-9 9 -63 36q-30 15 -61 15l-28 -3l-54 -11l-32 -5l-29 -2q-24 0 -24 -9zM693 360l39 -60q17 -29 17 -47q0 -24 -16.5 -46t-31.5 -50l-3 -5l-1 -5l31 27q37 34 48 34q6 0 7 -11v-16l3 -9l3 8l3 13l3 48v15l-2 23q-2 17 -8 28l-13 31 l-13 22q-7 12 -13 13l-6 -7l-4 -7q-6 -12 -16 -13q-3 1 -5 2l-14 7z" />
<glyph unicode="C" d="M13 429l12 -64q18 -63 33 -95.5t40 -61.5q10 -11 23.5 -23.5t33 -29t46.5 -33.5l24 -13l61 -31l88 -41q16 -7 33.5 -12.5t38.5 -10t39 -6.5t41 -2q34 0 64 6l66 18q59 18 97.5 40t90.5 68q5 15 120 131l32 39q-16 -6 -76 -62l-16 -8v10q-14 -3 -17 -7l3 6l18 29l22 51 l-7 -4l-6 -5l-15 -16l-42 -84l-16 -26l3 17l11 38l26 79l1 7l1 4l-36 -20l-90 -89l-150 -78l-44 -14l-40 -7l-27 3q-17 3 -37 20l-38 28q-22 12 -79 24t-89 36q-37 29 -54 52q-21 29 -30 68l-4 40q0 45 28 92q16 29 57 53l75 37l66 38l33 15l42 14l64 14l33 5l30 2 q34 0 60.5 -9.5t53.5 -33.5l54 -55q57 -60 82 -60q21 0 33.5 39.5t12.5 126.5q0 30 -29 53q-25 22 -67 28l-135 15l-192 -18l-91 -3q-32 0 -68 -15q-40 -19 -98 -75l-31 -57l-24 -60q-36 -56 -77 -101l-55 -34l-8 13zM49 444q0 21 2 26l10 34q9 27 45 72t45 45l1 -3l-5 -11 l-8 -13l11 -1l13 4q7 0 10 -6q-5 -6 -9 -10l-27 -28q-23 -19 -27 -26l-27 -43q-12 -21 -34 -40zM66 366q0 16 9 34l3 -2l-4 -32l3 -22l5 -34q-6 31 -14 44zM84 291q0 -7 4 -12q16 -26 48 -46l60 -33l37 -28q48 -39 55 -39l-2 11l41 -12l12 -7l-25 19l-25 21l-51 37l-64 50 q-28 25 -37 66l4 26l5 19q0 9 -8 12q-12 3 -27.5 -3t-13.5 -18l1 -15q0 -15 -9 -33zM102 296l29 -25l27 -35q-6 8 -19 15l-17 11l-13 16z" />
<glyph unicode="D" horiz-adv-x="1015" d="M-108 -156l3 21q3 13 8 19l16 17q9 9 27 15l54 12l48 18l70 17q38 8 68 22q21 8 28 14l26 16q26 18 42 42q4 7 47 26q28 11 28 55l-6 33l-9 42l-10 81l-2 89v28l3 38l3 36l-1 14q0 12 -5 22q-3 13 -21 30t-21 34l3 26l12 22l9 9q19 16 43 16l16 -2q10 0 19 -5 q23 -9 38 -30.5t15 -46.5l-3 -16q-2 -13 -20 -31q-11 -11 -15 -20l-14 -38l-3 -41l1 -29l1 -33l1 -35v-14.5t4 -20.5l10 -70l1 -19l-2 -33l-2 -23q0 -17 3.5 -25t20.5 -12l18 -2q10 0 18 5l75 42l38 26l34 24l49 22q28 11 39 26q14 15 27 46l15 31q6 12 26.5 32.5t29.5 41.5 q12 33 12 61l-1 20q0 11 -7 33q-5 27 -11 38q-3 9 -6.5 15.5t-10.5 15.5q-13 19 -39 38q-10 6 -87 34l-28 8l-37 8l-46 11l-53 4l-53 -2l-44 -2q-22 0 -61.5 -12.5t-48.5 -12.5q-12 0 -13 10q0 17 8.5 31t30.5 26l14 6l15 2l29 -4l32 -4l73 1l89 3h37.5t37.5 -4 q25 -3 80 -15l103 -24q54 -15 84 -57q10 -14 17.5 -30t14.5 -36l5 -39l2 -48q0 -59 -27 -112q-15 -31 -72 -95q-20 -23 -47 -44l-55 -37l-57 -22l-100 -36l-80 -28q-63 -24 -63 -38q0 -8 8 -29q5 -11 7.5 -21l3.5 -14l-1 -10q-6 -22 -32.5 -40t-53.5 -18t-37 22l-2 10 q0 11 5.5 25.5t2.5 24.5q-2 5 -12 8q-13 0 -61.5 -30t-73.5 -38l-60 -18l-37 -9l-41 -9l-57 -14q-27 -9 -27 -34q0 -10 10.5 -21.5t10.5 -22.5q0 -10 -5 -15l-17 -14q-7 -5 -27 -8q-14 0 -25 8q-11 6 -15 18zM716 231l18 17l38 35l-16 -8q9 3 33 33l3 10l-44 -21l-10 1 l21 21l17 13l12 9l7 7l6 13l7 21l11 30l10 38l1 20l-1 27q0 18 -2 26l1 10l2 3l7 -5q17 -22 33 -27q17 -3 18 -13q0 -13 -5 -23l-11 -24v-12v-18q0 -18 -5 -28q-3 -12 -17 -23l-19 -18l-36 -48l-61 -52z" />
<glyph unicode="E" horiz-adv-x="905" d="M8 723q0 -14 15 -53q9 -21 12 -39l13 -45q9 -28 12 -50l3 -43l-2 -49l-1 -34l-1 -52l-4 -83l-1 -32v-29l1 -29q0 -17 5 -30l12 -47l6 -15q2 -5 7.5 -14t9.5 -14q19 -27 55 -50l25 -12l34 -9l56 -4q31 0 74 13l51 13l68 15l47 9l76 8l92 2h27l55 1l90 4l16 -3l10 3l-11 5 l-3 3l30 -2l43 -1q28 0 41 5l-27 9l-12 1l-17 4l35 6q31 3 37 9l-9 5q-5 0 -10 5.5t-14 8.5l-10 -3l-12 -3q-34 0 -79 15q-93 33 -128 33q-45 0 -101 -9l-64 -11l-110 -20l-61 1l-99 4l-19 -1l-15 -1q-16 0 -26.5 7.5t-15.5 34.5q0 28 -5 36l-16 38q-2 6 -7.5 21t-5.5 25 q0 13 6 33l9 34l5 23q0 18 -4.5 37l-9.5 40t-6 33v75l-1 19v16l3 26q3 13 13 24q14 17 37 21l48 9l46 9l39 6l105 20l115 10l19 5l17 9l43 22l11 2l13 1h12l22 2l26 8l-30 4q-18 0 -20 9l-5 7q6 0 10 7l10 10l19 9q19 8 22 11q-5 2 -48 -16l-35 -15l3 6l6 6l-35 -17l-22 -11 l20 18l22 18q-13 -3 -37 -15q-18 -12 -30 -15l-21 -3l-18 -1l-38 2l-31 2l-24 1q-15 0 -32 4l-49 6l-31 -3q-15 0 -56 -22l-34 -15l-30 -11l-31 -5l-41 -6h-16t-26 -4q12 18 12 31q0 14 -15 28q-15 12 -35 16q-21 3 -40 -12l-14 -16l-13 -22zM65 605l6 -10l5 -10l4 -11v-40 l3 -19q0 11 2 17l6 22q5 14 10 18l-6 -42l-9 -40l6 15q3 11 12 16q6 2 6 -7q0 -11 -7 -29l-4 -10l-1 -7l1 -4l8 19l11 27l7 29l3 41q0 29 -3 43l-5 1l-14 -26l-6 -11q-6 3 -9 9q-1 6 -8 7q-10 10 -18 14v-12zM111 532l7 58q3 -6 3 -26l-1 -21l-6 -23zM245 432q0 -15 9 -26.5 t27 -11.5l39 6q22 3 36 13l54 37l78 33q32 11 82 22l24 2q24 0 69 -6l52 -5q14 0 17 7l-2 5q-3 5 -5 7l-17 13l-23 12q-15 8 -39 12l-32 5l-14 1l-51 -2l-34 -1q-50 0 -86 -11q-45 -11 -129 -59l-33 -13q-10 -3 -17 -17zM340 78q3 -20 20 -24q10 -2 15 2l25 16l11 2h9l28 -2 l24 -2l41 1l41 1l56 1l18 1l11 3l-15 3l-17 1l-13 1l-27 -1l-29 -1h-12h-11l-13 2l56 9l56 5q-38 0 -39 4l-1 8l-41 4q-17 0 -26.5 -1t-31.5 -6q-62 -12 -64 -14h-10l-21 1l-20 2q-21 0 -20 -16zM466 92l7 3l10 2l23 8l3 -2l3 -2q-7 -6 -12 -7q-12 0 -16 -2q-7 0 -11 -2z M699 779q3 4 5.5 5.5t9.5 4.5l9 10l10 4l8 -6l7 2l10 5l9 2l7 1l-5 -5l-36 -21q-8 -5 -23 -8q-8 0 -11 6z" />
<glyph unicode="F" horiz-adv-x="940" d="M-32 592l4 24q3 18 36 42l75 51q12 30 24 42t26 15q12 0 29 -13l17 -14l180 27q117 16 148 16l94 -1q39 0 102 -12l76 -16q43 -11 75 -34l23 -16q14 -11 20 -34l4 -29l-3 -23l-14 -21q-7 -11 -36 -34l-27 -16q3 6 8 10q19 19 19 51q0 22 -10 40t-37 29l-26 4l-22 7l-37 9 l-53 10l-41 3l-64 -4l-63 -4l-43 1l-39 1q-24 0 -36 -1t-38 -6l-22 -4l-14 -4l-50 -18l-46 -15q-21 -8 -32 -30l-3 -10l-1 -10l2 -19l2 -21l-1 -32q0 -20 2 -26l10 -22q17 -26 50 -33q15 -3 68 -3l14 2l20 9q21 12 28 12l11 -4l9 -3l20 -1h17h13q9 2 13 2l36 6l53 8l14 -1 l8 -2l-34 -9l-55 -12l-29 -6l38 5l37 3l36 -3l11 -3l4 -3l-4 -3l-13 -1q-33 0 -51 -5q-21 -3 -22 -8l6 -3l26 -1l28 -1q7 -1 9 -2l-162 -40l-65 -15l-57 -13l-33 -12l-23 -6q-7 -1 -17 -8t-13 -19l-3 -22v-16l1 -14v-45l-1 -39l-4 -61v-11v-8q-2 -5 -2 -7q0 -9 -6 -27 l-6 -30q0 -14 -2 -20q0 -21 4.5 -34.5t25 -34t26.5 -40.5l3 -31q0 -22 -5 -32q-3 -13 -17 -25q-24 -24 -60 -24t-63 24q-20 18 -24 41l-3 28q0 17 2 22l10 24q3 9 8 14l17 21q9 15 12 34l4 37l-1 22v25v15l2 17l10 60l10 110l-1 29q0 18 -2 26l1 24l8 26l1 11l-2 24l-2 39 l1 14q0 11 4 24l2 24v16l1 16l-3 22l-5 17l-7 14q-5 11 -19 14l-20 -4l-23 -8l-18 -8l-11 -14l-4 -15q0 -7 8 -12l20 -16l-2 -7l-47 9q-9 3 -20 15z" />
<glyph unicode="G" d="M60 355l1 61q0 13 1 27.5t5 37t28 69.5q15 30 42 57l53 53l59 61q19 19 41 34q52 38 151 87l100 39l-3 -4l-13 -12q-31 -23 -31 -32q0 -6 16 -6l19 1q14 0 18 2l6 -2q-2 -4 -48 -28l49 11l36 3q24 0 24 -12q0 -17 -53 -60l-108 -82q-61 -47 -83 -70l-54 -47 q-28 -21 -47 -54l-19 -49l-5 -31v-19l-1 -23v-22l1 -36q1 -6 3 -14t7 -20q12 -33 28 -55l19 -22l28 -23q51 -39 125 -50l16 -2h14h16l22 2l57 15l55 10q26 6 35 30l2 19q0 27 -22 46q-9 9 -26 9q-16 0 -21 -2l-38 -7l-23 -1q-9 0 -33 -7l-77 -15l4 2l14 6l12 7l2 2l-7 1 q-27 5 -48 5h-13q-40 0 -41 5l3 2l11 5l49 13q-27 0 -27 5q7 4 12 6q19 9 39 16l103 33l33 8l34 3q22 0 75 -7l53 -4l31 3l29 3q13 0 32 -8q18 -6 27 -21t9 -36l-1 -26q0 -9 -7 -29l-18 -76l-9 -42q0 -12 -9 -48l-14 -65l-4 -28q0 -12 -6 -27l-8 -26q-6 -11 -17 -14 q-10 0 -17 17l-8 33l-22 58q-12 31 -38 42l-33 7l-29 -3l-28 -4q-19 0 -61 -13l-39 -7q-57 0 -108 12l-67 18l-46 12q-16 4 -44 18q-47 24 -85 65q-48 51 -67 92q-23 49 -23 118zM121 450l4 -1l9 21l3 1q3 -9 3 -30q0 -24 -3 -33l-7 -3q0 -16 2 -21q27 -66 48 -87l4 -11 l2 -2l-5 32l-10 50l-11 60l5 9l18 -15l11 -17l3 -11l2 -2l-1 31l-3 24l-2 27l-2 20q0 12 4 23q9 25 37 60l6 13l-8 -3l-37 -12q-17 -3 -28 -18l-34 -69zM152 484l5 1l7 2l-4 -12q0 -7 5 -15l10 -14l-15 10zM568 294l34 2l11 -1l8 -1h4l9 3q3 3 8 3q7 0 15 -5l19 -7l20 -6 l26 -12l38 -36l9 -2q8 0 15 -8l-12 19l-10 29l-19 9l-25 7l-16 4q-11 0 -36 13l-20 7q-9 -3 -12.5 -5.5t-59.5 -10.5zM764 28q2 -5 5 -6q4 -6 4 -11l-1 -13l7 7l15 29l12 23l7 23q0 6 -5 14q-7 12 -18 14q-6 -4 -7 -6l4 -17q5 -15 3 -21t-14 -15.5t-12 -20.5z" />
<glyph unicode="H" horiz-adv-x="550" d="M73 180v15l1 31l1 34q0 36 13 105l7 65l2 55l3 40l-1 16q0 10 -4 21l-5 38l3 45l7 45v23l-1 16q0 12 1.5 17t9.5 14q8 8 17 12l23 4l15 -1q3 -1 6.5 -1.5t11.5 -5.5q14 -5 22 -17q9 -10 15 -36l2 -14q0 -13 -10 -39l-8 -33l-3 -39l-1 -47v-33l-3 -33l-2 -24 q0 -13 3.5 -22.5t14.5 -14.5l19 -5q15 0 27 8l31 16q16 6 21 8t18.5 10t28 24.5t23 37.5t13.5 45l4 37l-2 34l-1 24l-1 24q0 16 -2 22l3 25l6 33q5 18 19 21q6 0 7 -5l-20 -52l3 -13q9 3 15 12l10 18l4 21q0 16 11 19q11 0 15 -14l5 -29l2 -14l-1 -20l-1 -13q0 -8 -1 -18.5 t-4 -20.5l-5 -31v-90l1 -22q0 -15 4 -30l5 -43l10 -105l1 -22q0 -15 4 -30l5 -43l-1 -35q0 -16 -4 -35l-8 10l-6 12l-4 7l-1 -21q0 -15 7 -53l-9 18l-8 27l-5 -39l-4 -41l-3 2v47l-5 -9l-5 -32q-1 -13 -6 -22q-3 -12 -12 -4q-5 4 -8 18l1 12l1 13l3 24l4 19q0 10 -2 13 q0 6 -9 12l-11 12l-7 30l1 20l1 15v12q0 19 -4 31l-8 26q-3 12 -13 16q-8 3 -16 -2l-29 -18l-28 -7l-27 -3l-18 4l-16 4q-9 -2 -14 -5l-7 -9l-4 -16l-2 -18v-13l1 -12l2 -17l3 -13q0 -10 -6 -31.5t-4 -38.5l6 -19l8 -20l6 -19l2 -20q0 -14 -2 -19l-4 -18q-3 -14 -21 -25 l-17 -4l-23 3q-19 3 -30.5 10t-17.5 17l-6 28l-2 20q0 9 -15 48l-9 31zM114 220l1 23l3 12l6 13v22q3 11 5 22t13 10q6 -3 9 -11l5 -19l-2 -17l-2 -21l-8 -3l-5 -10l1 -12q0 -7 8 -15l9 -18q3 -8 3 -20l-2 -14v-17l1 -18q0 -13 -5 -23h-7l-4 14l-1 20l3 25l-2 4l-7 1l-10 22 z" />
<glyph unicode="I" horiz-adv-x="432" d="M57 667q0 25 25 60t44.5 43t56.5 8q18 0 43 -13l25 -12l39 -4q30 0 43 -16q9 -9 12 -21t3 -44q0 -18 -12 -39l-23 -36l-35 -65l-5 -21l-3 -18l-2 -38v-28v-135l1 -25v-12t4 -22l5 -61l-3 -41l-2 -34v-17v-12l-2 -11l-9 -45l-8 -46l-6 -4q-18 75 -47 75q-28 0 -28 20v29 l-4 17l-16 74l-15 100q-3 29 -12 69q-13 78 -13 111l3 34l9 52q0 13 -4 22q-3 11 -13 22l-29 33q-22 28 -22 51zM130 628q0 -13 8 -33q5 -11 7.5 -21l3.5 -14l6 -30l4 -34l-1 -18q0 -10 -4 -22l-5 -38l2 -25l2 -11l9 -21l21 -37q6 -12 10 -13v12q0 8 -2 16q-15 80 -15 98 l1 11q0 9 7 30q2 6 4.5 18t3.5 18q0 14 -5 27l-4 26l-1 11l-1 16q0 14 7 22q11 13 11 29q0 15 -10 25.5t-28 10.5q-7 0 -16 -10l-11 -23l-3 -10z" />
<glyph unicode="J" horiz-adv-x="1064" d="M-111 83q45 0 64 4l26 10l103 -19q61 -8 96 -8q73 0 136 50t123 156l47 93l44 102l29 84q6 0 7 5l-2 7l-5 8q0 11 16.5 30.5t16.5 42.5q0 24 -16 33l-17 6l-23 2l-24 -1q-76 0 -157 -22l-168 -51q-27 0 -39 15q-9 15 -9 38l1 20v53l23 14l23 12q59 27 114 27h458 q88 0 210 25l105 18l23 -10q25 -8 43 -10h-20l-6 -20q25 -3 40 -10l39 -13l-35 -4l-25 -1h-19l-20 1l6 -3l4 -1l3 -2l-52 -5l-41 -2l-19 -3l-33 -7l-33 -10l-124 -36q-24 -6 -64 -40q-58 -49 -102 -119q-56 -89 -86 -220v14h-20v-27l10 -8q3 3 3 8l-6 -30q-21 -75 -93 -189 q-33 -54 -88 -84l-105 -42h-60l7 13l-59 6q-17 1 -39.5 4l-56 7.5l-61 8.5t-70.5 11l31 4l9 -1v26q-22 3 -34 15.5t-29 24.5zM517 249v14v-14zM523 283l7 7zM590 741l19 1l34 -1q21 0 37 9.5t35 12.5l17 -2l-23 3l-23 -2l-29 -2h-21l-26 4l-13 3l13 -6v-20h-20zM756 761 l31 -2l34 -1q66 0 90 8q30 6 44 23l5 8q0 6 -17 6q-30 0 -116 -21z" />
<glyph unicode="K" horiz-adv-x="736" d="M129 -54v-11v11zM139 -7v-11v11zM142 -47v240l26 355q0 20 -10 70l-5 45q0 63 28.5 112.5t80.5 49.5q43 0 55 -8q12 -6 15 -22l-2 -17q0 -24 -18 -51q-39 -59 -39 -95l-6 -21l-20 -43q-26 -55 -26 -119l3 -13l3 -14l-6 -25h20q37 55 109 126q40 40 134 122l77 69l51 48 h16l-5 -10l-6 -6h11l17 11l19 16h11l-24 -15q-9 -6 -18 -27l16 7l15 14h11l-5 -11l-14 -9q-12 -6 -33 -27l-55 -65l-57 -71l-47 -62q-56 -79 -56 -105l126 -339q-8 -8 -11 -16q0 -11 3 -18t18 -19l-11 -18q0 -7 11 -18h-15l-2 15v11l2 16q-8 0 -22 6l-20 9l5 -47 q-6 53 -64 186q-66 154 -103 154q-36 0 -87 -101.5t-75 -269.5h-21zM337 445q15 6 21 18h16v-16q0 5 9 16l17 10q-2 10 20 30l32 28h-15l-18 -20l-18 -17q-8 -5 -17 -5q-4 -7 -27 -29zM405 530l64 42l62 49q-9 -3 -22 -13l-15 -10h-16q-3 -10 -22 -27zM452 -65h16l1 -22 l1 -30q0 28 -18 52z" />
<glyph unicode="L" horiz-adv-x="832" d="M84 607q0 48 46 82t114 34q47 0 74 -24q21 -21 21 -56q-21 -41 -36 -106t-15 -156q0 -21 -9 -36q-20 -29 -20 -138q0 -69 24 -93q19 -17 72 -17h27l29 1q76 0 181 27q82 21 110 38h73v-21l-23 -9l-6 -8q0 -7 -22 -20l-54 -8q-48 -4 -92 -28l-58 -53q-40 -20 -109 -20 q-71 0 -150.5 -69t-110.5 -69q-9 0 -30 33.5t-21 61.5l4 18l18 83l2 21l-6 71q-6 53 -6 85v19l2 22l21 116l8 66q0 43 -39 100q-19 30 -19 53zM368 51l7 -4l40 -7l14 1l19 6l-5 4q-17 3 -49 3l-17 -1q-7 -1 -9 -2z" />
<glyph unicode="M" horiz-adv-x="840" d="M49 648q0 29 21 47t50 18q38 -6 61 -15q61 -21 61 -50q0 -32 20 -45q18 -10 46 -10l26 1q18 0 25 2q6 -40 63 -89t66 -117q41 18 57.5 105t32.5 111q40 61 149 61q33 0 51 -43q14 -37 14 -79q0 -57 -30 -93q-35 -39 -41 -56l-5 -51l-9 -68l-18 -112q-5 -26 -9 -41 t-11 -32q-22 -34 -39 -63.5t-30 -54.5q-30 -55 -34 -95l-11 -3l-9 -10v20l-26 -26q-16 -9 -29 -26l68 226l15 44.5t15 53.5q15 57 15 109v11q-3 13 -4 19l-3 26l1 31l6 29h-26q-11 0 -31 -30q-24 -45 -33 -54q-6 -8 -16.5 -15.5l-28.5 -19.5q-17 -9 -20 -23q5 -4 8 -13 q0 -11 -11 -32q-7 10 -30 67l-51 127q-2 2 -24 7q-14 0 -34 18l-20 33q-13 21 -45 32l39 -60q8 -14 8 -34l-1 -20v-20v-8q0 -87 -14 -126q-32 -105 -32 -174l-39 9l-32 7q-9 0 -18 -12q-12 -18 -27 -27v19q20 40 27 61l6 21l2 13l-1 15l-1 19v104l-1 46q0 16 -2 24 q-6 3 -17 33l-6 142l-61 84q-23 34 -23 52zM275 616v32l16 3l8 3l7 -7l20 -28l-25 1q-13 0 -26 -4z" />
<glyph unicode="N" horiz-adv-x="736" d="M53 274q0 94 38 185q35 84 91 84l23 -2l19 -2q11 0 23 4q18 -111 36 -162l54 -119l-2 12l2 10h-20v-15l24 -81q15 -36 36 -48v20l-23 44l-15 35q25 -17 37.5 -67t14.5 -52q9 11 40 152q8 42 21 86q8 26 9 30q9 27 20 55q24 59 81 136q39 50 104 116l69 67h15l-21 -27 l-29 -30l7 -3l8 -2l-133 -189q-29 -50 -45 -103.5t-16 -108.5l-15 -65v-12q0 -8 -2 -16v-14v-46l1 -47q0 -117 -36 -165q-30 -38 -88 -38q-29 0 -41.5 36.5t-12.5 97.5l-15 40v20q15 -12 16 -19l-2 -16l1 -10q8 9 11 27l-4 20l-3 19l1 9h-25l5 -10l-44 98q-40 94 -46 121 l15 -15l5 10l-16 14l-9 6q-12 0 -42 -72q-33 -81 -33 -147l3 -28l10 -48l27 -109l-19 -37l-31 -72q-40 124 -65 272q-14 101 -14 171zM309 135v29v-29z" />
<glyph unicode="O" horiz-adv-x="665" d="M64 187l84 372q14 30 126 126q120 102 162 102q11 0 43 -23q49 -34 82 -99q44 -88 44 -216q0 -94 -40 -227q-20 -69 -45.5 -124t-58.5 -101q-74 -106 -152 -106q-76 0 -166 120q-79 109 -79 176zM216 229q0 -45 19 -83q20 -35 57 -35q23 0 49 20.5t27 29.5q0 79 25 144 l51 135q0 19 -16 52l-35 67l5 9q3 6 3 19l-1 17q0 7 -7 22q-11 -13 -53.5 -97t-81.5 -177q-42 -99 -42 -123z" />
<glyph unicode="P" horiz-adv-x="760" d="M33 93q88 97 165 130q29 12 29 76q0 120 10 180l22 85l-23 13q-23 12 -23 42q0 22 101 61.5t119 39.5h137q53 -9 75 -19q76 -29 76 -77v-42q0 -51 -66 -116q-25 -23 -57 -45t-77 -48l-102 -56l-91 -48q-19 -14 -19 -80l-7 -61q0 -8 -2 -36t-2 -48l-3 -70l4 -47l1 -26 q2 -13 5 -19v-27h-10l1 14l-1 12q0 7 -2 9l2 11h-18l3 -14l2 -10l-3 -22l-4 32l1 21l6 20h-14q0 18 -20 81q-17 66 -17 120q0 13 -4 26l-4 19q0 10 8 19h-18l-30 -18zM195 212l14 4h-10zM231 203q4 -2 10 -15l9 -22v46zM245 294q15 50 21 119q0 24 7 37v13q-6 -7 -16 -71 l-12 -84v-14zM263 248h10h-10zM323 299q83 51 141 105l92 91q-3 6 23 56l14 31q0 12 -6 18q-12 9 -17 24l-34 3l-44 10q-39 0 -62 -5.5t-57 -26.5q-14 -7 -23 -51q-6 -41 -27 -49q15 -8 15 -26l-11 -84zM546 427l23 11l6 7q-15 -3 -29 -18zM593 646h11l7 -13q15 3 21 -17 q3 -10 5 -22t2 -25q0 -32 -13 -55q-6 -10 -24 -26l13 3l10 14q5 3 21 26.5t16 32.5q0 21 -11 38l-40 44h-18zM684 555v32v-32z" />
<glyph unicode="Q" horiz-adv-x="847" d="M52 147q0 91 34 183q15 41 63 141q35 73 35 108v56q0 21 52 64q61 49 117 49q135 0 203 -153q50 -118 50 -307v-113l-2 -3l-11 -11q-5 -4 -5 -14l73 -64q88 -74 133 -105l-19 1l-4 2l-24 -3q32 -25 42 -37l24 -29v-38q-11 28 -56 60q-19 15 -29 16h-28q-106 0 -126 38 q-22 37 -71 37q-33 0 -59 -35q-57 -78 -176 -78q-90 0 -158 92q-58 79 -58 143zM184 194q0 -34 35 -97t59 -63q22 0 76 33l46 33l-27 25l-30 31l22 11q2 2 7 27h56v-10v47q17 -24 32 -24t15 24l-38 169v21l1 18q0 13 -5 23l-24 51q-81 -21 -140 -104q-37 -56 -68 -142z M531 156l8 -1q4 -2 5 -8l-3 -10h28q-13 9 -10 19h-28zM588 72l13 -10z" />
<glyph unicode="R" horiz-adv-x="770" d="M68 493q0 54 12 96l28 79q0 39 77.5 63.5t161.5 24.5q135 0 223 -36.5t88 -114.5q0 -108 -78 -173q-25 -20 -146 -71q-79 -33 -79 -75q0 -30 34 -60l101 -84q0 -27 18 -75q9 -24 24 -50.5t38 -57.5v-32h-24q-18 0 -28 11l-12 13v-32q-21 110 -137 204q-101 83 -166 83 q-6 0 -16 -38q-8 -40 -8 -114l8 -4l11 -1l5 -3q-15 -17 -26 -41q-14 -40 -14 -86h-63v223q0 105 -11 179zM116 429q11 3 16 -8l16 16v-56v23v13l-2 17q0 12 -6 27h-24l5 -16q0 -7 -2 -9zM124 469v24v-24zM158 190l1 -16l4 63l2 56v14q-6 -9 -6 -44l-1 -41v-32zM224 362 q0 -10 7 -17q6 -3 20 -3q11 0 37 27q57 66 104.5 81.5t84.5 52.5q53 50 53 78q0 27 -47 45.5t-96 18.5q-99 0 -129.5 -49t-30.5 -199l-1 -19q0 -11 -2 -16z" />
<glyph unicode="S" horiz-adv-x="689" d="M86 -146q6 27 96 102l162 129q86 72 86 104q0 90 -86 151l-162 87q-87 48 -87 106l13 42q21 49 68 78q63 42 164 42q33 0 65.5 -11t70.5 -36q81 -51 81 -106q0 -26 -25 -45t-57 -19q-54 0 -72.5 59t-53.5 59q-33 0 -52 -31q-6 -10 -12 -32q0 -42 86 -85q138 -66 162 -84 q87 -63 87 -157q0 -90 -134 -182q-92 -63 -254 -125q-129 -46 -146 -46zM168 524v45v-36v-9zM340 49l36 11l-10 -2zM376 35h27h-27zM430 53h36l19 15l18 12v19l-18 -2q-7 0 -10 2q-3 -9 -19 -22zM521 288l9 9v46l-6 -14l-3 -13v27v-55zM548 288l9 -18zM548 723l9 18z" />
<glyph unicode="T" d="M-8 593v16l4 12l10 27q3 11 19 23l29 19q44 32 108 52l123 35q30 9 96 22l62 10l49 10l222 45l125 13l104 8l8 -1l-18 -5l-18 -4l-6 -2h12h20l28 -1q13 0 21 -5l4 -8q-4 -5 -36 -16q23 0 36 -5l5 -1l-67 -1q-29 0 -32 -4q3 -3 8 -3l-61 -15l5 -4h37l16 4l22 9l27 -6 q21 -5 21 -10q0 -7 -105 -7q18 -6 19 -13l-35 -5q-53 -6 -106 -6h-29t-34 -4q-26 -3 -43 -10q-101 -21 -140 -34q-72 -21 -94 -80l-5 -22l-2 -23l2 -33l2 -36l-1 -58l-1 -69l-1 -80l3 -43q1 -12 4 -32t7 -43l5 -48l2 -53q0 -46 -24 -73q-13 -13 -66 -38l-19 -4q-30 0 -54 25 q-27 29 -27 78q0 16 2 30t8 33l42 136q22 75 22 128l-1 36l-6 39l-11 78q-8 39 -37 60q-15 12 -36 12q-13 0 -26 -5t-20 -9t-18 -12q-84 -59 -99 -64l-21 -1q-19 0 -29.5 9.5t-10.5 26.5z" />
<glyph unicode="U" horiz-adv-x="816" d="M5 549v33.5t4 46.5q0 15 3.5 32.5t9.5 33.5q17 57 49 57q10 0 13 -2l13 -2q16 0 37 14q43 28 57 32q11 0 19 -8q16 -16 16 -37l-3 -24l-7 -47l-3 -44l-10 -74q-6 -44 -6 -71l1 -30q0 -10 6 -33l15 -82q12 -42 44.5 -61t65.5 -19l24 2l25 4q35 6 55.5 15.5t40.5 32.5 q24 27 33 73l2 20l6 28l7 50l2 45v36v30v21q3 11 4 15l1 15l1 14l-1 30l-1 29q0 28 7 43q6 17 26 24l18 4l18 3q23 0 43.5 -10t37 -31t16.5 -45q0 -19 -7 -39l-21 -74q0 -10 -31 -131q-11 -49 -11 -84v-76q0 -30 6 -92q0 -16 28 -78q11 -24 23 -53q6 -14 6 -15h-8 q-13 10 -31 32q-6 6 -20 7q-16 0 -28 -7.5t-12 -23.5l5 -45l-21 51q-24 72 -41 76l-22 5q-11 0 -21 -5l-19 -9l-43 -25q-11 -5 -50 -33q-27 -21 -52 -27t-51 -6q-63 0 -129 48q-31 23 -56 66l-34 84q-19 50 -34 138t-15 153z" />
<glyph unicode="V" horiz-adv-x="928" d="M69 713q0 20 8.5 34t34.5 30l42 23q24 12 41 12q15 0 29 -7q29 -15 29 -61q0 -42 6 -65q48 -166 56 -184q18 -54 49 -110l7 -19l10 -34q14 -52 44 -52q22 0 33 31l18 53q14 30 43 107q4 14 11 31.5t16 36.5l42 90l49 92l44 83q23 39 54 78l25 26l19 20l47 45l40 47 q22 26 44 44l35 48l16 20l-2 -6l-14 -27l24 29l12 9l1 -8v-14q0 -6 2 -8l10 6l36 33l10 4l-4 -10.5t-11 -20.5l-15 -26q-8 -8 -11 -16l5 -2q7 0 11 2l2 -5l-3 -5l-9 -12l-1 -3q-3 -10 -11 -20l-10 -21l3 -1l9 5l8 5l3 1l-15 -18l-46 -52l-49 -55l-23 -29l-30 -34 q-55 -64 -81 -106.5t-48 -96.5l-42 -105l-98 -217l-25 -96l-7 -49l-3 -51l1 -16l7 -18l19 -50q0 -9 -6 -21q-11 -18 -30 -18q-25 0 -73 35l-44 32q-36 24 -61 55q-14 19 -43 68q-24 45 -44 134q-9 59 -20 86q-12 45 -61 113l-77 110q-38 56 -38 91z" />
<glyph unicode="W" horiz-adv-x="824" d="M6 716l2 16q6 30 28 52t47 22l13 -2q22 -6 33 -32l19 -52l20 -51l15 -51l18 -71l15 -72l21 -127q12 -78 23 -79l8 11l40 72l4 27q0 14 -2 21l-3 16l-5 37v12q0 10 7 24l16 37q12 24 26 24l12 -3q9 -3 15 -13l10 -22q6 -12 6 -31l-1 -18l-1 -19l3 -46l9 -50l5 -56 q5 -49 27 -49l8 1q15 3 28 32l12 28q23 41 39.5 113t36.5 111q36 72 96 144q35 42 60 66q19 19 68 58l63 52q29 23 69 40l41 21q24 13 42 17q12 0 16 -11l3 -15q0 -12 -12 -30l-14 -18q-6 -7 -27 -20l-33 -16q-42 -27 -79 -64l-69 -76l-53 -62l-47 -62l-40 -56l-27 -39 l-25 -41q-12 -25 -24 -83q-6 -30 -16 -53l-20 -36l-19 -34q-5 -11 -9 -59q0 -47 -28 -47q-18 0 -31 23l-21 45l-24 69q-11 35 -42 35q-22 0 -29 -38l-9 -66q-9 -27 -18 -111q-14 -139 -26 -139q-5 0 -17 18l-12 42l-7 46l-40 168l-16 88l-19 118l-12 78q-6 36 -25 68 q-11 19 -47 49q-16 14 -29 31l-30 43q-16 27 -16 45z" />
<glyph unicode="X" horiz-adv-x="816" d="M38 713q0 8 6 23q9 19 28 35q5 4 13 7q13 6 27 6q22 0 34 -8q14 -6 28.5 -23t14.5 -39l-3 -28l-2 -25q0 -14 4 -25q9 -25 25 -50l35 -46l36 -63q21 -33 52 -33t58 54q14 29 30 50l40 43q17 19 44 41l69 61q34 28 79 43l45 20q23 10 42 13q15 0 25 -17l5 -22q0 -14 -5 -27 q-3 -16 -25 -32l-39 -27l-28 -22l-33 -23l-63 -43q-48 -36 -92 -80l-47 -37q-22 -17 -28 -36l-2 -23q0 -30 37 -60l68 -52l104 -92l45 -45q23 -26 23 -55q0 -27 -3 -41.5t-16.5 -25.5t-30.5 -11l-24 3l-30 11q-19 6 -36 26l-32 34l-72 68q-40 60 -60.5 81t-40.5 25l-31 3 l-21 -3q-12 0 -25 -19l-30 -67q-6 -12 -6 -33q0 -19 5 -39l5 -37q0 -15 -5 -24q-3 -11 -16 -21t-28.5 -15.5t-31.5 -5.5l-23 3q-35 9 -56 48q-6 14 -6 27l3 25l3 28q0 49 16 96q9 28 29 53l39 51l40 43q12 15 12 33q0 22 -14 39l-26 37l-68 136q-5 11 -43 56q-27 30 -27 53z " />
<glyph unicode="Y" horiz-adv-x="808" d="M87 698q0 -22 12 -53t53 -50q43 -18 57 -37q12 -14 29 -47l26 -55l40 -76l7 -20l7 -31l10 -85l6 -78l2 -82q0 -15 -1 -22t-6 -25t-11 -37t-16 -43q-17 -49 -17 -75l3 -29l12 -29q42 -81 102 -81q47 0 94 53q17 19 27.5 42.5t10.5 42.5q0 27 -69 144q-33 54 -33 99l2 58 l2 42l1 47l4 40l7 45l7 60l6 30q4 16 12.5 36t34.5 54l48 56l27 32l43 50q6 7 60 44l22 16q15 12 15 25q0 9 -7 17q-17 21 -46 21q-16 0 -46 -9q-13 -3 -28 -18l-36 -46l-68 -68l-23 -35l-21 -37l-25 -67q-14 -41 -30 -41q-6 0 -13 4q-14 9 -19 30q-3 20 -9 34l-18 39 l-13 32l-13 33l-20 76q-18 33 -39 51q-24 21 -57 21q-57 0 -88 -44q-17 -26 -17 -54z" />
<glyph unicode="Z" horiz-adv-x="984" d="M14 749l11 -2l13 -1q30 0 30 -6l-4 -3l-13 -9l-33 -14q7 0 10 2l29 4q12 0 13 -5q0 -6 -29 -18l23 3q9 0 9 -5l-1 -7l14 3l21 2l37 3l54 3l86 9l67 -2l49 -2l35 -3l37 -6l76 -15l55 -4q21 0 25 -20q3 -17 -11 -32l-29 -28q-12 -15 -35 -31q-48 -33 -60 -48q-4 -5 -10 -18 t-16 -33q-12 -36 -35 -50q-12 -9 -32 -9q-16 0 -36 5l-36 6q-14 0 -28 -6l-51 -27q-12 -9 -9 -29q3 -16 20 -16l19 3l16 4l21 5l20 4q11 0 32 7l29 7q11 0 17 -7l6 -15q0 -12 -35 -35q-11 -7 -14.5 -9.5t-14.5 -11.5l-37 -32l-39 -32l-37 -33l-35 -35l-80 -80l-33 -20 q-19 -11 -19 -28q0 -18 23 -28l48 -13l21 -4l13 -1l21 1l28 6l57 11l48 6l41 6l124 16l106 10q54 6 106 6l22 -1q8 0 23 -7q49 -16 68 -19l23 3l47 15q20 8 29 33l3 22q0 12 -6 24t-26 21l-37 9l-42 10l-43 3l-34 -1h-27q-23 0 -30 -2l-33 -6l-36 -6l-29 -2q-22 0 -34 -2 l-45 -9l-131 -25q-40 0 -40 28l3 22l10 21q3 8 17 26q12 18 42 36q34 22 46 35q9 9 28 47q13 27 36 41l18 6l20 2h19h16q10 0 19 4l44 12q20 6 32 28q3 9 -2 13l-21 4l-21 -1q-14 0 -27 -4l-61 -10q-6 0 -8 2l6 8l48 38l26 22l27 29l25 31l52 68l36 41q9 12 16 29l9 26l3 22 q0 11 -4 22q-3 13 -16 24l-25 20q-21 18 -43.5 25.5t-49.5 7.5l-34 -3l-69 -11l-38 -5l-33 -2l-92 -3l-148 -9l-58 3l-111 7l-12 -1q-5 -1 -6 -2l5 -2l34 -13h14l27 -4q20 -3 23 -8l-12 -6l-21 -3v-7l21 -15l-32 1l-68 13l-20 -7l-8 -5z" />
<glyph unicode="[" horiz-adv-x="320" d="M2 610l4 -25q9 -54 9 -75l-1 -52l-4 -83l-3 -66l-2 -44q0 -28 2 -37l8 -38q18 -69 26 -83q16 -36 54 -62q19 -12 74 -34l53 -17l-5 4l-8 5l-7 9q6 6 10 8l23 5v9l-39 20l11 1l21 -1h24h8l6 2l-4 3l-13 6l11 -1l4 7l-19 19l17 3l8 3l-17 1h-13h-23h-19l-19 2q-30 3 -39 11 q-15 12 -28 35l-16 43l-7 27l-7 30l-2 65l2 116l3 84l-2 28v13v11l-2 13q0 21 3 30l12 27q9 19 22.5 31.5t36.5 21.5l17 3l21 -3l36 -8q11 0 20 12q6 12 6 21q0 10 -3.5 19.5t-14.5 21.5l-17 19q-21 18 -48 18q-20 0 -49 -12l-53 -31q-33 -24 -55 -65l-8 -23q-3 -11 -4 -16 t-1 -17v-14zM44 180q0 -7 2 -10q5 -18 15 -36l3 2l11 -1l23 -23q-3 19 -11 27l-8 13l-12 14q-13 14 -20 17z" />
<glyph unicode="\" horiz-adv-x="750" d="M50 686q0 40 33 67t77 27q32 0 61 -36l44 -69l30 -42l30 -43l68 -89l72 -86l110 -125l60 -75l35 -50l44 -56l10 -15l6 -11l3 -6l-3 -2l-10 5l-3 -3l1 -20q9 -18 9 -28h-10l-40 37v-9l2 -14l6 -24l5 -9l-12 20q-10 17 -19 20l-5 -11l-22 25l-5 3l3 -15v-7h-12l-11 4l1 -5 l23 -24l2 -17l-3 -3q-8 8 -16 11l-6 -7l-6 -4l4 -7l-16 16l-27 22q-14 11 -24 23l-24 31l-85 90q-27 33 -87 132l-49 80l6 -14l17 -40l5 -19l-64 71l-93 125l-34 39q-20 23 -31 41l-40 58l-7 18zM361 344q0 -9 12 -18q42 -30 51 -42l52 -64l15 -10q0 6 -27 54l-36 60l-5 11 l27 -26l31 -41l19 -26l18 -38l12 -25q0 14 -2 18l-1 13q0 9 6 12q6 0 6 11q0 18 -27 57l-27 31l-28 26l-40 30q-22 17 -35 20l-2 -4l9 -16q9 -11 9 -16l-8 -4l-26 -1z" />
<glyph unicode="]" d="M1 89q0 15 7.5 28t25.5 21l31 12l48 21q24 12 39 27.5t24 37.5l5 20l2 23l-4 48l-4 53l1 58l3 50v27l-4 30l-3 50l-5 41q-6 47 -42 69q-7 4 -27 7l-30 -4l-26 -3q-18 0 -27 16q-5 10 -8 31l3 23q6 18 21 29q15 9 43 9h19l15 -4l40 -10q19 -6 37 -18q11 -7 27.5 -29.5 t16.5 -53.5q0 -32 5 -45l21 -61l9 -33q0 -14 2 -19l1 -12v-11l-2 -21l-5 -56l-1 -71l-4 -114l1 -30l1 -29v-17l-5 -23q-1 -8 -12 -26q-18 -27 -47 -43l-38 -17l-40 -20q-45 -24 -66 -24t-35 20l-8 18q-3 8 -5 25z" />
<glyph unicode="^" d="M25 710l110 110l90 130l80 -60l50 -65l125 -115l-30 -55l-90 70l-100 65l-120 -60l-75 -55z" />
<glyph unicode="_" d="M-5 80q0 -36 50 -48l95 -17q18 -4 40.5 -7t37.5 -3l28 1h19q14 3 22 4l78 5l82 1l133 4l90 -3l65 -2l62 2l48 3l36 -6l21 -3q18 0 22 11l4 18q0 10 -5 18q-3 11 -19 27q-14 16 -35 16q-13 0 -53 -10q-24 -6 -36 -6l-63 -3l-51 -7l-72 -7h-16l-18 2l-59 10l-46 10l-30 -1 q-19 0 -39 -4l-71 -5l-50 1l-80 4q-26 0 -66 11l-63 16l-31 6q-14 0 -23 -9q-7 -9 -7 -29z" />
<glyph unicode="`" horiz-adv-x="180" d="M-1 788q0 -24 25 -45l30 -21l21 -17l36 -36q23 -23 35 -23q8 0 12.5 7.5t6.5 19.5q0 10 -5 21l-5 21q-18 93 -31 115q-9 15 -19 22t-27 9l-13 -1q-22 -3 -43 -21q-14 -13 -22 -39z" />
<glyph unicode="a" horiz-adv-x="440" d="M18 28q0 14 12 44q26 62 30 84l26 233l25 94q23 80 81 127l44 32q26 16 38 16q6 0 8 -12v-12.5t3 -14t7.5 -18.5t8.5 -15q25 -42 31 -63l13 -50l13 -58l12 -45q14 -47 14 -75l-1 -20q0 -9 -5 -23l-8 -43l-8 -55l-2 -42q0 -17 5 -50q0 -7 9 -30l19 -40l-3 1l-8 12l-4 5 l-9 16q-7 22 -13 23q-6 0 -9 -12q0 -15 11 -25l-42 57l-1 -11q0 -13 2 -19.5t3 -9.5l9 -11l-9 -4q-7 0 -30 48l15 -50l-27 50l-2 70q22 28 22 59q0 22 -15 49q-7 15 -21 24l-29 17l-25 14q-9 5 -18 8.5t-18 5.5q-10 0 -17.5 -6t-9.5 -17q0 -11 18 -44q10 -19 10 -31 q0 -27 -16 -82l-6 -27l-2 -25q0 -15 5 -35l6 -32q0 -17 -11 -29q-17 -19 -43 -19q-38 0 -70 28q-18 15 -18 38zM154 338l24 18q30 18 57 18q21 -12 35 -12l13 2q10 3 10 34q0 39 -16.5 86t-41.5 63l-39 -51q-21 -50 -31.5 -92.5t-10.5 -65.5zM264 545l9 -2q6 4 8 7h5l14 -17 l7 -16q7 -20 18 -38l-6 2l-5 1l-14 23l-3 2l1 -8l-11 8l-4 10q-2 3 -3 5q-4 8 -10 13zM309 453q-3 7 1 10l7 3q14 0 17 -20l-3 -16l-2 -16l1 -16l2 -11l-2 -2l-4 7l-9 23l-5 23z" />
<glyph unicode="b" horiz-adv-x="705" d="M22 -58q0 17 12 46l20 50l52 145l4 43l2 35l-1 40l-1 45q0 19 -6.5 45.5t-21.5 69.5q-12 41 -12 61v12t5 18.5t16 29.5q28 31 71 44l88 13l26 3l28 1l28 -1h16.5t21.5 -3h30h21l23 -3q17 -3 37.5 -16.5t36.5 -29.5q15 -18 20 -42v-13q0 -29 -27 -57l-31 -36 q-21 -28 -101 -69l-73 -37l4 1l12 5q76 28 120 28q60 0 105 -48q23 -24 38 -53.5t15 -59.5q0 -25 -10 -54q-11 -27 -33 -47q-8 -7 -25.5 -18l-27.5 -17q-30 -17 -86 -23l-63 -6l-65 -12l-32 -7l-30 -9q-26 -8 -118 -91l-33 -26q-12 -8 -23 -9q-15 0 -26 23zM191 418 q0 -22 4.5 -34t11.5 -12l9 3q26 21 111 50q49 16 62 61l5 22l2 20q0 12 -2 15q-3 11 -5 15q-14 23 -40 23q-21 0 -47 -11l-48 -22l-25 -12q-10 -4 -18 -17q-2 -5 -6.5 -19t-7.5 -28l-4 -27zM206 262l24 -36q12 -17 12 -28q0 -13 -10 -23q-5 -3 -5 -10q0 -11 30 -23l30 -6 q8 -1 18 -1.5t21 -0.5h28l25 5q23 6 40.5 22t22.5 24q9 14 9 32q0 17 -12 29q-3 3 -23 14t-27 14q-24 12 -49 12l-22 -2l-44 -9l-25 -4l-23 -1q-20 0 -20 -8zM459 288l31 -48q12 -21 14 -38q0 -10 -3 -18.5t-11 -18.5l-24 -39l-3 -4l-1 -4l25 21q29 27 39 27q5 -4 5 -8v-13 l3 -7l2 6l2 10l3 39v12l-2 18q-2 15 -6 23l-11 24l-10 18q-3 5 -6 7t-4 3l-5 -5l-3 -6q-6 -9 -13 -10q-3 1 -5 1.5t-10 5.5z" />
<glyph unicode="c" horiz-adv-x="800" d="M10 343l10 -51l11.5 -38.5t13.5 -36.5t14 -25.5t19 -25.5l18 -18t27 -23q7 -6 17.5 -13.5t20.5 -13.5q3 -2 7.5 -4.5l11.5 -6.5l49 -25l70 -32q25 -10 59 -19q30 -6 63 -6q31 0 45 3.5t20 4.5q16 4 39 11q51 17 78.5 32.5t71.5 53.5q5 14 96 105l26 31q-12 -5 -61 -49 l-13 -7v8q-7 -1 -9.5 -2.5t-3.5 -2.5l2 5l14 23l18 41l-6 -4l-4 -4l-12 -12l-34 -68l-13 -20l3 13l8 31l21 63l1 5l1 4l-29 -16l-72 -72l-120 -62l-35 -11l-32 -6l-22 3q-13 1 -29 16l-31 22q-10 5 -32 11t-32 8q-46 11 -70 29q-31 24 -43 42q-18 23 -24 54l-4 32 q0 34 23 74q12 22 45 42l60 30l53 30l27 12l33 11l51 11l27 4l24 2q28 0 49 -8t42 -26l43 -44q47 -48 66 -48q17 0 26 30q11 31 11 102q0 23 -21.5 41.5t-55.5 23.5l-108 12l-154 -14l-73 -3q-25 0 -56 -13.5t-76 -58.5l-25 -45l-19 -48q-29 -43 -62 -81l-44 -27l-6 10z M39 355q0 17 2 21l8 27q7 22 36 58t36 36l1 -3l-4 -8l-7 -11l9 -1l10 4q6 0 8 -5q-3 -5 -7 -9.5t-21 -21.5q-19 -14 -22 -20l-22 -35q-5 -8 -10.5 -15t-16.5 -17zM53 293q0 13 7 27l2 -2l-3 -25l3 -18l4 -27q-3 10 -5 19t-7 16zM67 233l3 -10q13 -20 39 -37l48 -26l29 -22 q40 -32 44 -32l-1 9l33 -9l9 -6l-20 15l-20 17l-41 30l-51 40q-23 20 -29 52l3 21l4 15q0 7 -7 10q-8 3 -22 -2q-11 -6 -10 -15v-12q0 -13 -7 -26zM82 237l23 -20l21 -28q-4 6 -15 12l-13 9l-11 12z" />
<glyph unicode="d" horiz-adv-x="800" d="M-86 -125l2 17q4 13 6 15l13 14q8 8 22 12l43 9l38 15l56 13q29 6 55 18q17 7 22 11l21 13q21 15 34 34q3 5 37 20q23 9 23 44l-5 27l-7 33l-8 65l-2 71v23l2 30l3 29l-1 11q0 9 -4 19t-17.5 23t-16.5 27l3 21q0 2 9 17l8 8q14 12 34 12l13 -1q7 0 20 -5.5t25 -23 t12 -37.5l-2 -13q-2 -10 -16 -24q-9 -9 -12 -16l-11 -31l-3 -33l1 -23l1 -26l1 -28l3 -28l8 -56l1 -15l-2 -27l-1 -18q0 -15 3 -20q1 -6 16 -10l14 -1q10 0 15 4l60 33l30 21l27 19l39 18q21 7 32 20t21 37l12 25q1 3 8.5 11.5l13.5 15.5q16 16 23 32q10 30 10 49l-1 16 l-6 27q-3 20 -9 30q-3 12 -13 25q-6 8 -13 15t-18 15q-11 6 -70 27l-22 7l-30 6l-37 9l-42 3l-43 -1l-35 -2q-18 0 -48.5 -10t-39.5 -10t-10 8q0 15 6.5 25t24.5 21l11 4l12 2l23 -3l26 -3h58l72 3q37 0 60 -3l64 -12l82 -20q43 -12 67 -45q14 -20 26 -53l4 -31l1 -39 q0 -47 -21 -89q-14 -27 -58 -76q-15 -18 -37 -35l-44 -30l-46 -18l-80 -28l-64 -23q-50 -19 -50 -30l2 -10t4 -13l9 -28l-1 -8q-5 -18 -26 -32.5t-43 -14.5q-21 0 -29 18l-2 8l4 20q5 12 2 20q-1 5 -9 6q-12 0 -49.5 -23.5t-58.5 -30.5l-48 -15l-30 -7l-33 -7l-45 -11 q-22 -7 -22 -27q0 -8 9 -17q4 -5 6 -9t2 -10q0 -7 -4 -12l-14 -11q-6 -4 -21 -6q-13 0 -20 6q-9 4 -12 15zM573 185l14 13l31 28l-13 -6q7 3 26 26l3 8l-36 -16h-8l17 17l14 11l9 7l6 5l5 11l5 17l9 24l8 30l1 16l-1 22l-1 20v8l2 3l6 -4q11 -17 26 -22q14 -2 14 -10 q0 -12 -4 -19l-8 -19v-9v-15q0 -14 -3.5 -22.5t-14.5 -18.5l-15 -14l-29 -38l-49 -42z" />
<glyph unicode="e" horiz-adv-x="800" d="M6 578q0 -10 12 -42q3 -7 5.5 -15t4.5 -16l10 -36l10 -40l2 -35l-1 -39l-1 -27l-1 -42l-3 -66l-1 -26v-23l1 -23q0 -13 4 -24l10 -38l4 -12l14 -22q14 -21 44 -40l20 -10l27 -7l45 -3q25 0 59 10l41 11l54 12l38 7l61 6l73 2h22l44 1l72 3l13 -2l8 2l-9 4l-2 2l24 -1 l34 -1q22 0 33 4l-22 7l-9 1l-14 3l28 5q25 3 30 7l-8 4q-6 3 -8 5q-5 5 -11 6l-8 -2l-9 -2q-28 0 -64 12q-75 26 -102 26q-39 0 -81 -7l-51 -9l-88 -16l-49 1l-79 3l-15 -1l-12 -1q-12 0 -20.5 6t-13.5 28q0 22 -4 29l-13 30q-10 25 -10 37q0 9 5 26l7 28l4 18 q0 12 -5.5 34t-7.5 32t-3 22v60l-1 15v13l3 21q2 11 11 21t29 15l38 7l37 7l31 5l84 16l92 8l15 4l14 7l34 18l9 1l10 1h10l18 2l20 6q-6 3 -24 3q-14 0 -16 8l-4 5q5 0 8 6l8 8l16 7q16 7 17 9q-6 -1 -12.5 -3t-25.5 -10l-28 -12l2 5l5 5l-28 -14l-18 -9l16 15l18 14 l-30 -12q-13 -9 -24 -12l-16 -2l-15 -1l-30 1l-25 2l-19 1l-26 3l-39 5l-25 -3q-12 0 -45 -17l-27 -12l-24 -9l-25 -4l-32 -5l-34 -3q10 17 10 25q0 11 -11.5 21.5t-28.5 13.5q-16 3 -32 -10q-3 -2 -12 -12l-10 -18zM52 484l5 -8l4 -8l3 -9v-32l2 -15q0 9 2 14l5 17 q3 10 8 15l-5 -34l-7 -32l5 12q1 8 9 13q3 1 4 0t1 -6q0 -8 -6 -23l-3 -8l-1 -6l1 -3l7 15l8 22l6 23l2 33v16q0 10 -2 18l-4 1l-11 -21l-5 -8q-5 2 -7 7t-7 5q-5 6 -9 8.5t-5 3.5v-10zM89 426l5 46q3 -5 3 -21l-1 -17l-5 -18zM196 346q0 -14 6.5 -21.5t22.5 -9.5l31 5 q18 3 29 10l43 30l62 26q10 4 34.5 10t31.5 8l19 2l55 -5l42 -4q11 0 14 5l-2 4q-2 5 -4 6l-14 10l-18 10q-11 5 -31 10l-26 4h-11l-41 -1l-27 -1q-14 0 -30 -0.5t-39 -8.5q-33 -8 -103 -47l-26 -10q-8 -3 -14 -14zM272 62q3 -15 16 -19q8 -2 12 2l20 13l9 1h7l22 -1l20 -2 l32 1l33 1h45l14 1q4 0 9 3l-12 2l-13 1l-11 1l-21 -1l-24 -1h-9h-9l-10 2l44 7l45 4q-15 0 -20.5 0.5t-10.5 2.5l-1 6l-33 4q-19 0 -46 -6l-51 -11h-8l-17 1l-16 1q-17 0 -16 -13zM373 74l5 2l8 2l19 6l2 -2l3 -1q-6 -5 -10 -6l-13 -1l-9 -2zM559 623q7 6 12 8l7 8q3 3 8 3 l7 -4l5 1l8 4l8 2l5 1l-4 -4l-29 -17l-18 -7q-6 0 -9 5z" />
<glyph unicode="f" horiz-adv-x="800" d="M-26 474l4 19q2 14 28 33l60 41q11 25 20 34t20 12q10 0 24 -11l13 -11l144 22q96 13 119 13l75 -1q34 0 81 -10l61 -13q35 -7 60 -27l19 -13q9 -7 16 -27l3 -23l-3 -18l-11 -17q-5 -9 -29 -27l-21 -13l6 8q15 14 15 41q0 17 -7.5 31t-29.5 24l-21 3l-18 6l-29 7l-43 8 l-32 2l-52 -3l-50 -3l-34 1h-32q-13 0 -28.5 -1t-30.5 -4l-17 -3l-12 -4l-40 -14l-36 -12q-17 -7 -26 -24l-2 -8l-1 -8l1 -15l2 -17l-1 -26q0 -16 2 -20l8 -18q13 -20 40 -26q12 -3 54 -3q9 1 11 2l16 7q20 10 23 10l9 -4l7 -2l16 -1h14h10q7 2 10 2l29 5l42 6l12 -1l6 -1 l-27 -8l-44 -9l-23 -5l30 4l30 2l28 -2l9 -2l3 -3l-3 -2l-10 -1q-26 0 -42 -3.5t-17 -6.5l5 -3l21 -1h22l8 -2l-130 -32l-52 -12l-46 -10l-26 -10l-18 -5l-15 -7q-7 -4 -9 -14l-3 -18v-13l1 -11v-36l-1 -31l-3 -49q0 -15 -2 -21q0 -9 -4 -21l-5 -24q0 -12 -2 -16 q0 -17 4 -27.5t20.5 -28t20.5 -32.5l2 -24q0 -7 -0.5 -14t-3.5 -12q-2 -10 -13 -20q-19 -19 -48 -19t-51 19q-15 15 -19 33l-2 22l1 18l8 19l7 11l13 17q7 11 10 27l3 30l-1 17v20v12l2 14l8 48l8 88l-1 23l-1 21v19l7 21l1 9l-2 19l-2 31l1 11l3 20l2 19v13l1 12l-3 18 q0 7 -4 14l-5 11q-4 8 -15 11l-16 -3l-19 -7l-14 -6l-9 -11l-3 -12q3 -8 6 -10l16 -13l-1 -5l-38 7q-6 2 -16 12z" />
<glyph unicode="g" horiz-adv-x="800" d="M44 304l1 49v17t4 28q3 25 23 62l15 26l16 24q17 22 45 38q18 11 55 22l37 10l49 11l57 9l32 3l29 6l49 3q28 0 54 -6l56 -10l60 -11q24 -4 66 -17l33 -6q12 -3 19 -14t7 -25q0 -17 -9.5 -29t-24.5 -12l-17 1l-32 5q-36 0 -95 18t-93 18h-28l-27 1q-44 0 -73 -6.5 t-59 -25t-47 -35.5t-33 -44q-13 -26 -17 -42l-4 -25v-15l-1 -18v-18l1 -29q2 -9 2.5 -12t5 -15t9.5 -22t13 -22l16 -18l22 -18q39 -31 100 -40l13 -2h11h13l17 2l46 12l44 8q20 4 28 24l2 15q0 22 -18 37q-7 7 -21 7l-17 -1l-30 -6l-18 -1q-9 0 -27 -5l-61 -12l3 1l11 5 l10 6l-4 2l-39 4h-10q-32 0 -33 4l2 2l9 4l39 10q-9 0 -13.5 1t-7.5 3l10 5q16 8 31 13l82 26l26 6l28 3l60 -6l42 -3l25 2l23 3q9 0 24.5 -6t22.5 -17t7 -29v-21q0 -6 -6 -23l-14 -61l-8 -34q0 -11 -7 -38l-11 -52l-3 -22q0 -9 -5 -22l-6 -21q-5 -8 -14 -11q-8 0 -14 14 l-6 26l-18 46q-9 25 -30 34l-26 6l-24 -3l-22 -3q-16 0 -49 -10l-31 -6q-47 0 -86 10l-54 14l-37 10q-13 3 -35 14q-36 19 -68 52q-37 38 -54.5 75t-17.5 93zM93 380l3 -1l7 17l3 1l2 -24l-2 -27l-6 -2q0 -13 2 -17q21 -52 38 -69l3 -9l2 -2l-4 26l-8 40l-9 48l4 7l14 -12 q4 -3 9 -14l3 -8v23l-2 19l-2 22l-1 16l3 18q5 12 11 22.5t19 25.5l4 10l-6 -2l-30 -10q-13 -1 -22 -14l-27 -55zM118 407l4 1l5 2l-3 -10q2 -9 4 -12l8 -11l-12 8zM450 255l28 2l8 -1l7 -1l10 3l7 2q9 -2 12 -4l15 -6l16 -4l21 -10l30 -29l7 -1q6 0 12 -7l-9 15l-8 24 l-16 7l-20 5l-12 4q-10 0 -29 10l-16 6q-8 -2 -10.5 -4.5t-47.5 -8.5zM607 42l4 -4q3 -5 3 -9v-11l5 6l12 23l10 19l5 18q-2 8 -4 11q-6 11 -14 11q-5 -2 -6 -4l4 -14q3 -13 2 -17q-2 -5 -11 -13q-10 -6 -10 -16z" />
<glyph unicode="h" horiz-adv-x="447" d="M58 144v12l1 25l1 27q0 30 10 84l6 52l2 44l2 32l-1 13l-3 17l-4 30l2 36l6 36v18l-1 13q0 10 2 14l7 11l14 10l18 3l12 -1l14 -6q11 -3 18.5 -12.5t11.5 -29.5l2 -11q0 -9 -8 -31l-7 -27l-2 -31l-1 -38v-26l-2 -26l-2 -20l3 -17q3 -8 11 -12l16 -4q13 0 21 6l25 13 q13 5 17.5 6.5t12 6.5t11 8t14 14.5t18 28t10.5 36.5l3 30l-1 27l-1 19l-1 19l-1 18l2 20l5 26q3 14 15 17q6 -2 6 -4l-16 -42l2 -10q8 3 12 10l8 14l3 17q0 12 9 15q9 0 12 -11l4 -23l2 -12l-1 -16l-1 -10v-18q-3 -9 -4 -13l-4 -25v-72l1 -18l3 -24l4 -34l8 -84l1 -18 l3 -24l4 -34l-1 -28l-3 -28l-6 8l-5 10l-3 5l-1 -17q0 -5 1 -15.5t4 -26.5l-7 14l-6 22l-4 -31l-3 -33l-3 2v37l-4 -7l-4 -26q-2 -11 -4 -16t-4.5 -6t-5.5 2q-4 2 -7 14l1 10l1 10l2 19l4 15q0 8 -1.5 10.5t-2.5 5t-5 4.5l-9 10l-6 24l1 16l1 12v10l-3 24l-7 21 q-1 10 -10 13q-6 3 -13 -2l-23 -14l-22 -6l-22 -2l-14 3l-13 3q-7 0 -11.5 -4.5t-5.5 -6.5l-3 -13l-2 -14v-10l1 -10l2 -14l2 -10l-5 -26q-4 -18 -3 -30l5 -15l6 -16l5 -15l2 -16q0 -12 -2 -16l-3 -14q-3 -12 -17 -20l-14 -3l-18 2q-17 3 -25 9q-9 4 -13 13t-5 22l-2 16 q0 7 -12 39l-7 24zM91 176l1 18l2 10l5 10l3 31q3 13 12 13q5 -3 7 -9l4 -15l-2 -14l-1 -17l-7 -2l-4 -8l1 -10q1 -3 2 -5.5t4 -6.5l8 -14l2 -16l-2 -11v-14l1 -14q0 -10 -4 -19h-5l-4 11v16l2 20l-2 4h-5l-8 18z" />
<glyph unicode="i" horiz-adv-x="322" d="M42 527q0 19 20 48q22 29 36.5 35t44.5 6q15 0 35 -10l20 -10l31 -3q24 0 34 -13q7 -7 10 -17l2 -35q0 -14 -9 -31l-19 -29l-28 -52l-4 -17l-2 -14l-2 -31v-22v-108l1 -20l3 -27l4 -49l-2 -33l-2 -27v-14v-9l-1 -9l-8 -36l-6 -37l-5 -3q-14 60 -37 60q-22 0 -23 16v23 l-3 14l-13 59l-12 80q0 8 -3.5 26.5l-5.5 28.5q-5 25 -8 49t-3 40l3 27l7 42l-3 17q-3 11 -11 18l-23 26q-18 25 -18 41zM101 496q0 -12 6 -26l9 -28l5 -24l3 -28l-1 -14l-3 -18l-4 -30l2 -20l1 -9l7 -17l17 -29q3 -6 5 -8.5t3 -2.5l-1 23q-12 63 -12 78v9l6 24q6 17 6 29 q0 13 -4 21l-3 21l-1 9v13q0 12 6 19t8 22q0 12 -8 20t-22 8q-6 0 -13 -8l-9 -18l-2 -8z" />
<glyph unicode="j" horiz-adv-x="844" d="M-198 79q34 0 52 3l20 8l84 -15l39 -5l37 -1q58 0 108.5 39.5t98.5 125.5l37 74l36 82l23 67l5 4l-1 5l-4 7q0 8 13 24t13 34q0 20 -13 27l-13 4l-19 2l-19 -1q-30 0 -61 -4t-64 -13l-135 -41q-22 0 -30 11.5t-8 30.5l1 16v43l18 11l18 9q47 22 92 22h366q85 0 169 -9.5 t86 -16.5l19 -8q22 -8 34 -8h-16l-5 -16q21 -3 32 -8l31 -11l-28 -3l-20 -1h-15l-16 1l5 -2l3 -1l3 -2l-42 -4l-33 -1l-11 8q-8 3 -21.5 5.5t-25.5 2.5h-112q-16 0 -53 -29q-42 -35 -80 -97q-45 -74 -69 -178v12h-16v-22l8 -6l3 6l-5 -24q-16 -59 -75 -151q-25 -43 -70 -67 l-84 -34h-48l6 10l-48 5q-15 1 -30.5 3t-36 5t-48.5 6.5t-66 10.5l25 3l7 -1v21q-18 3 -27 11q-12 14 -24 21zM305 212v11v-11zM310 239l5 6zM363 606h15h28q17 0 30 8q6 3 12 5.5t15 3.5l14 -1l-19 2l-18 -2l-23 -1h-17l-21 3l-10 2l10 -4v-16h-16zM496 622l43 -8l41 -4 q33 0 59 12l9 6l-6 2l-19 2l-83 -5z" />
<glyph unicode="k" horiz-adv-x="518" d="M103 -43v-9v9zM111 -6v-8v8zM114 -38v192l20 284q0 14 -3 30l-5 26l-4 36q0 50 23 90t65 40q32 0 44 -6q9 -6 12 -18l-2 -14q0 -18 -14 -40q-17 -26 -24.5 -43t-7.5 -33l-4 -17l-16 -35q-21 -42 -21 -95l2 -10l3 -11l-5 -20h16q31 45 87 100q32 32 107 98l62 55l41 39h12 l-4 -8l-4 -5h8l14 9l15 12h9l-19 -12q-7 -4 -15 -21l13 5l12 12h9l-4 -9l-11 -7q-8 -5 -27 -22l-44 -52l-83 -106q-45 -65 -45 -84l101 -272q-5 -4 -9 -12q0 -10 2.5 -15.5t14.5 -14.5l-9 -14q0 -4 9 -15h-12l-1 12v9l1 13q-8 0 -17 5l-16 7l4 -38q-3 23 -15.5 59t-36.5 90 q-53 123 -82 123t-69 -76q-20 -42 -35.5 -98t-25.5 -123h-16zM270 356q11 4 16 14h13v-12q2 3 3 6t4 6l14 8q-2 8 16 24l26 23h-12l-15 -16l-14 -14q-7 -4 -14 -4q-2 -6 -21 -23zM324 424l51 34l50 39q-10 -4 -18 -11l-12 -8h-13q-2 -7 -17 -21zM362 -52h12l1 -18l1 -24 q0 22 -14 42z" />
<glyph unicode="l" horiz-adv-x="661" d="M67 486q0 38 36.5 65t91.5 27q39 0 59 -19q17 -16 17 -45q-17 -33 -29 -85t-12 -124q0 -18 -7 -29q-16 -24 -16 -110q0 -54 19 -75q14 -13 58 -13h22h23q57 0 145 22q64 16 88 30h58v-16l-18 -8l-5 -6q0 -5 -18 -16l-43 -6q-24 -3 -38 -7t-36 -16l-46 -42 q-31 -16 -87 -16t-122 -55q-62 -56 -87 -56q-8 0 -24 28q-17 26 -17 48l3 15l15 66l1 17l-4 57l-3 31.5t-2 36.5v15l1 18l17 92l7 53q0 34 -32 80q-15 25 -15 43zM294 41l6 -3l32 -6l11 1l15 5l-4 3l-39 2l-13 -1z" />
<glyph unicode="m" horiz-adv-x="800" d="M39 518q0 23 16 37.5t41 14.5q31 -4 49 -12q49 -17 49 -40q0 -25 16 -36q5 -2 16 -5t20 -3l21 1q15 0 20 2q5 -33 51 -72.5t52 -92.5q32 15 45.5 84t26.5 89q32 49 120 49q26 0 39 -32t13 -66q0 -45 -24 -74q-28 -31 -33 -45l-4 -41l-7 -54l-15 -90q-5 -25 -8 -36t-8 -22 l-30.5 -51t-24.5 -44q-24 -44 -27 -76l-9 -2l-7 -8v16l-21 -21q-14 -8 -23 -21l54 181q13 37 24.5 81t11.5 85l-3 24l-2 20v25l5 23h-21q-9 0 -24 -24q-19 -35 -27 -43q-8 -11 -36 -28q-13 -7 -16 -18l7 -11q0 -7 -9 -25l-24 53l-41 102q-1 1 -19 6q-13 0 -27 14l-16 26 q-11 17 -36 26l31 -48q4 -7 6 -27l-1 -16v-16v-7q0 -70 -11 -100q-25 -82 -25 -140l-32 8l-25 5q-7 0 -15 -9q-9 -14 -21 -22v15l21 49l5 17l2 10l-1 12l-1 15v84l-1 36l-1 20q-5 1 -14 26l-5 114l-48 67q-17 25 -19 41zM220 493v25l13 3l6 2l6 -5l16 -23l-20 1z" />
<glyph unicode="n" horiz-adv-x="624" d="M42 219q0 76 31 148q27 67 73 67l18 -1l15 -2l19 3q13 -83 28 -129l44 -95l-2 9l2 8h-16v-12l19 -65q13 -30 29 -38v16l-19 35l-12 28q19 -12 31 -54q9 -39 11 -41q6 8 32 122q9 42 9 43q6 17 9 28.5t9 29.5t13 35q20 50 65 109q13 17 35 41.5l48 51.5l55 54h12l-17 -22 l-23 -24l6 -2l6 -2l-106 -151q-49 -84 -49 -170l-12 -52q0 -17 -2 -22v-11v-37l1 -38q0 -92 -29 -132q-24 -30 -70 -30q-24 0 -33.5 29.5t-9.5 77.5l-12 32v16q12 -9 12 -15l-1 -13l1 -8q7 10 8 22l-3 16l-2 15l1 7h-20l4 -8l-36 78q-32 79 -36 97l12 -12l4 8l-13 11l-7 5 q-10 0 -35 -60.5t-25 -114.5l2 -22l8 -39l22 -87l-16 -30l-24 -57q-34 101 -52 217q-12 78 -12 137zM247 108v23v-23z" />
<glyph unicode="o" horiz-adv-x="532" d="M51 150l67 297q13 26 101 101q97 82 130 82q9 0 34 -19q20 -13 36 -32.5t30 -46.5q35 -70 35 -173q0 -40 -7 -81.5t-23.5 -97t-37.5 -101t-47 -81.5q-59 -85 -122 -85q-61 0 -133 96q-63 88 -63 141zM173 183q0 -34 15 -66q15 -28 46 -28q17 0 39 16q21 18 21 24 q0 61 20 115l41 108q0 15 -13 42l-28 53l4 7q3 6 3 16l-1 13l-6 18q-3 -4 -14 -24q-19 -34 -29 -54l-31.5 -66t-33.5 -75q-33 -80 -33 -99z" />
<glyph unicode="p" horiz-adv-x="520" d="M-62 74q73 79 132 104q24 11 24 61q0 100 8 144l17 68l-18 11q-19 10 -19 33q0 17 80.5 49t95.5 32h110q41 -7 60 -15q61 -23 61 -62v-33q0 -42 -53 -93q-41 -36 -107 -75l-82 -44l-73 -39q-15 -12 -15 -64l-5 -49v-28q-3 -25 -4 -39l-2 -56l3 -37l1 -21l4 -15v-22h-8 l1 11l-1 10q-1 6 -2 7l2 9h-14q0 -7 2 -11l2 -8l-3 -18l-3 26l1 16l5 16h-12q0 9 -3.5 23.5t-12.5 41.5q-13 57 -13 96l-3 21l-4 15q0 8 7 15h-15l-24 -14zM68 170l11 3h-8zM97 162q0 -1 1 -1q5 -6 7 -11l7 -17v37zM108 235q7 22 12 46.5t5 48.5q0 21 5 30v10q-5 -6 -12 -56 l-10 -68v-11zM122 198h8h-8zM170 239q67 41 113 84l74 73q-3 5 18 45l11 25q0 10 -4 14q-11 8 -14 19l-27 3l-35 8q-29 0 -49 -5t-47 -21q-10 -5 -18 -41q-5 -33 -22 -39q12 -6 12 -21l-8 -67zM349 342l18 8l5 6q-13 -3 -23 -14zM386 517h9l6 -11q11 3 17 -13q3 -11 4 -17 t1 -21q0 -25 -10 -44l-19 -21l10 3l8 11q5 3 17.5 21.5t12.5 25.5q0 16 -9 31l-32 35h-15zM459 444v26v-26z" />
<glyph unicode="q" horiz-adv-x="800" d="M42 118q0 39 6 73t21 73q6 17 25 58l25 55q28 56 28 86v45q0 16 42 51q48 39 93 39q109 0 163 -122q40 -95 40 -246v-90l-2 -2q-1 -2 -9 -9q-4 -4 -4 -11l59 -52l60.5 -49.5t45.5 -34.5l-15 1l-3 2l-19 -3q26 -20 33 -29l19 -23v-31q-7 22 -44 48q-16 12 -24 13h-22 q-84 0 -101 30t-57 30q-25 0 -47 -28q-44 -62 -141 -62q-71 0 -126 73q-46 64 -46 115zM147 155q0 -27 28.5 -77.5t46.5 -50.5q17 0 61 27l37 26l-22 20l-24 25l18 9q1 2 2.5 7.5l3.5 13.5h44v-8v38q13 -19 26 -19q12 0 12 19l-30 135v17v14q0 12 -4 19l-19 40 q-65 -17 -112 -83q-28 -41 -54 -113zM425 125l6 -1q3 -2 4 -6l-2 -8h22q-10 5 -8 15h-22zM470 58l11 -8z" />
<glyph unicode="r" horiz-adv-x="579" d="M54 394q0 40 10 77l22 63q0 31 62 52q32 9 63.5 14t66.5 5q106 0 177 -29.5t71 -91.5q0 -88 -62 -138q-18 -15 -117 -57q-63 -28 -63 -60q0 -24 27 -48l81 -67q0 -21 15 -61t49 -86v-25h-19q-15 0 -23 8l-9 11v-26q-17 89 -110 163q-81 67 -133 67q-3 -4 -4 -7 q-5 -10 -8 -24.5t-5 -37t-2 -53.5l7 -3l8 -1l4 -2q-6 -8 -11 -15.5t-9 -17.5q-12 -32 -12 -69h-50v179q0 28 -0.5 62t-8.5 81zM93 343q7 3 13 -6l12 13v-45v18v11l-1 13q0 9 -5 22h-19l4 -13l-2 -7zM99 375v19v-19zM126 152l1 -13l3 51l2 44v12q-5 -8 -5 -36l-1 -32v-26z M179 290q0 -8 6 -14q3 -2 16 -2q9 0 29 21q47 53 85.5 66t66.5 41q42 41 42 63q0 21 -37 36q-20 7 -38 11t-39 4q-80 0 -104 -39.5t-24 -158.5l-1 -16q0 -8 -2 -12z" />
<glyph unicode="s" horiz-adv-x="579" d="M69 -117q4 21 77 82l129 103q69 57 69 83q0 38 -16.5 66.5t-52.5 54.5l-129 70q-70 37 -70 84l10 34q18 39 55 62q49 34 131 34q52 0 113 -39.5t61 -82.5q0 -21 -20.5 -36.5t-45.5 -15.5q-43 0 -58 47.5t-43 47.5q-26 0 -41 -25q-6 -7 -10 -26q0 -33 69 -68l86.5 -43 t42.5 -24q70 -49 70 -125q0 -72 -107 -146q-76 -51 -203 -100q-101 -36 -117 -37zM134 419v36v-29v-7zM272 39l29 9l-8 -2zM301 28h21h-21zM344 42h29l15 12l14 10v15l-14 -1l-8 1q-3 -8 -15 -17zM417 230l7 8v36l-5 -11l-2 -10v21v-44zM438 230l8 -14zM438 578l8 15z" />
<glyph unicode="t" horiz-adv-x="800" d="M-6 474v13l3 10l8 21q1 8 15 19l23 15q17 12 39.5 23t47.5 19l98 28q31 9 77 17l49 8l40 8l177 36l100 11l83 6l7 -1l-15 -4l-14 -3l-5 -2h10h16h22q10 0 17 -4l3 -7q-1 -1 -5 -3q-12 -6 -24 -10q21 0 29 -4h4l-53 -1q-23 0 -26 -3q1 -1 2.5 -2t3.5 -1l-48 -12l4 -3h29 l13 3l18 7l21 -4q8 -2 11.5 -4t5.5 -4q0 -6 -84 -6q14 -4 15 -10l-28 -4q-20 -3 -50 -4t-35 -1l-50 -3q-14 -2 -20 -3t-14 -5l-64 -15t-48 -13q-58 -16 -76 -64l-4 -17l-1 -19l1 -26l2 -29l-1 -46l-1 -55v-64l2 -35l9 -60l4 -38l1 -43q0 -38 -19 -58q-13 -13 -53 -30l-15 -4 q-23 0 -43 20q-22 25 -22 63q0 23 8 50l34 109q8 29 13 55t5 47l-1 29l-5 31l-9 63q-6 32 -29 48q-12 9 -29 9q-12 0 -21 -3.5t-14.5 -6t-15.5 -10.5q-69 -48 -80 -52h-16q-17 0 -24.5 7.5t-7.5 20.5z" />
<glyph unicode="u" horiz-adv-x="653" d="M4 439l3 64q3 33 11 53q12 46 39 46q8 0 10 -2l11 -2q11 0 29 12q35 23 46 25q9 0 15 -6q13 -13 13 -30l-3 -19l-5 -38l-3 -35l-8 -59q-4 -31 -4 -57v-24l5 -26l12 -66q11 -33 35 -49q28 -15 53 -15l19 2l20 3q28 4 44 13q16 7 34.5 27.5t25.5 56.5l1 16l5 22l6 40l1 36 v29v24l3 29l1 12l1 11l-1 24l-1 23q0 21 5.5 34.5t21.5 19.5l14 3l15 2q13 0 19 -1.5t19.5 -8t26 -23.5t12.5 -35q0 -17 -5 -32l-17 -59q0 -8 -25 -105q-9 -36 -9 -67v-61l5 -73q2 -16 22 -63l24 -54h-7l-25 26q-3 3 -16 5q-13 0 -22.5 -6t-9.5 -19l4 -36l-16 41 q-19 58 -33 61l-18 4q-8 0 -17 -4l-15 -7l-34 -20q-9 -4 -40 -27q-23 -17 -41.5 -21t-27.5 -4.5t-14 -0.5q-50 0 -103 38q-25 19 -45 53l-27 67q-16 41 -27.5 111t-11.5 122z" />
<glyph unicode="v" horiz-adv-x="835" d="M55 570q0 16 6.5 27.5t28.5 24.5l33 18q22 10 33 10t23 -6q23 -12 23 -49q0 -32 5 -52q11 -41 23 -81q16 -54 22 -66q11 -33 21 -54q5 -12 18 -34l6 -15l8 -27q12 -45 37 -42q17 3 24 25l15 42l34 86q7 23 22 54l33 72l40 74l35 66q19 34 43 63l20 20l15 16l38 36l32 38 q11 13 18.5 20.5t16.5 14.5l28 39l13 16l-2 -5l-11 -22l19 23l10 8l1 -7v-11l1 -6l8 4l29 27l8 3l-12 -25l-12 -21q-5 -4 -9 -12l4 -2q7 1 9 2l2 -4l-3 -4q-1 -4 -7 -10q-3 -9 -10 -18l-8 -17l3 -1l7 4l6 4l3 1l-12 -15l-37 -41l-39 -44l-19 -23l-24 -28q-46 -54 -64 -84 q-11 -17 -20.5 -37t-18.5 -41l-33 -84l-79 -174l-20 -76l-5 -40l-3 -40l1 -13l6 -15l15 -40l-5 -16q-9 -15 -24 -15q-20 0 -58 28l-36 26q-30 21 -48 44q-5 5 -14 20l-21 34q-11 21 -19 44.5t-16 62.5q-7 46 -16 69q-9 36 -49 91l-61 88q-31 45 -31 72z" />
<glyph unicode="w" horiz-adv-x="717" d="M5 573l1 13q6 24 23.5 41.5t36.5 17.5l11 -2q17 -5 26 -25l15 -42l16 -41l13 -42l11 -43l15 -70l4 -29l2 -46q0 -66 22 -66q8 0 13 4q13 7 20 16l12 20q2 6 3.5 13.5t2.5 13.5l-5 28q-5 22 -5 32t5 25l13 30q9 19 21 19l9 -2q8 -3 12 -11l8 -17q5 -9 5 -25l-1 -15v-15 l2 -37l7 -40l4 -44q5 -40 22 -40l6 1q11 3 23 26l9 22q10 18 17.5 39t13.5 51q14 58 30 89q27 55 77 116q30 36 48 52q12 13 28 26l26 21l51 41q26 21 55 32l33 17q6 4 17 8.5t16 5.5q10 0 13 -9l2 -12q0 -9 -9 -24l-11 -14q-3 -3 -9 -7.5t-13 -8.5l-26 -13q-37 -24 -64 -51 l-55 -61l-42 -50l-38 -49l-32 -45l-21 -31l-20 -33q-9 -17 -20 -67l-12 -40l-12 -24l-20 -36l-11 -27q-5 -14 -18 -17q-12 -3 -27 6l-15 10q-11 6 -20 37q-12 50 -31 46q-10 -3 -18 -13l-14 -19q-10 -12 -24 -45q-24 -60 -33 -60q-2 1 -4.5 2t-4.5 4.5t-4 10t-3 12.5 q0 14 -5 19l-8 12l-10 13q-7 12 -10 33l-3 37l-15 95l-10 62q-5 31 -20 54q-7 15 -37 40q-6 5 -12 11t-11 13l-24 35q-11 19 -13 36z" />
<glyph unicode="x" horiz-adv-x="653" d="M30 570q0 6 5 19q8 16 23 28q15 10 32 10q19 0 27 -6q10 -4 22 -19q12 -12 12 -31l-2 -22l-2 -20l3 -20q3 -7 9 -19t11 -21l28 -37l29 -50q17 -27 42 -27q24 0 46 43q11 24 24 40l32 35l35 33l56 48q25 22 63 35l36 16q7 3 17 6t16 4q13 0 20 -13l4 -18q0 -14 -4 -22 q-1 -11 -20 -25l-31 -22l-22 -17l-27 -19l-50 -34q-37 -27 -74 -64l-37 -30q-16 -12 -23 -29l-1 -18q0 -25 29 -48l55 -42l83 -73l36 -36q18 -21 18 -44v-15q0 -9 -2.5 -19t-12.5 -19t-25 -10l-19 3l-24 9q-9 3 -16 8t-13 12l-25 28l-58 54q-34 50 -49 65.5t-32 19.5l-24 2 l-17 -2q-9 0 -20 -15l-24 -54q-5 -10 -5 -26q0 -15 4 -32l4 -29q0 -12 -4 -19q-3 -10 -13 -17.5t-23 -12t-25 -4.5l-18 2q-28 7 -45 39q-5 12 -5 21l3 20l2 23q0 39 13 77q8 23 23 42l31 41l32 34q10 11 10 27q0 17 -11 31l-21 29l-55 109q-4 9 -34 45q-22 25 -22 42z" />
<glyph unicode="y" horiz-adv-x="646" d="M70 558q0 -17 9 -43q11 -25 44.5 -40t43.5 -29q5 -6 11 -15.5t12 -21.5l21 -44l32 -61l6 -16l5 -25l8 -68l5 -62l2 -66q0 -10 -1 -16t-5 -22t-6 -21q-5 -18 -15 -42q-14 -40 -14 -60l2 -24l10 -23q33 -65 82 -65q36 0 75 43q7 8 12.5 16t10.5 19.5t7 32.5q0 23 -55 115 q-26 42 -26 79l1 47l2 33l1 38q0 17 3 32l5 36l6 48l5 24q1 10 9 25q3 10 10 20.5l18 26.5l39 45l21 25l35 40q4 5 48 35l17 13q12 11 12 20q0 8 -5 14q-14 17 -37 17q-11 0 -37 -8q-9 -1 -22 -14l-29 -37l-54 -54l-19 -28l-17 -30l-20 -53q-10 -31 -24 -33l-10 3 q-12 8 -15 24l-7 27l-15 31l-10 26l-11 26l-16 61q-12 24 -31.5 41t-44.5 17q-46 0 -71 -35q-13 -20 -13 -44z" />
<glyph unicode="z" horiz-adv-x="787" d="M11 599l9 -1l10 -1q11 0 15.5 -1t8.5 -4l-3 -2l-10 -8l-27 -11q6 0 8 2l24 3q9 0 10 -4q-3 -3 -5 -4q-9 -7 -18 -10l18 2q3 0 4.5 -1.5l2.5 -2.5v-6l11 3l17 1l29 3l43 2l69 7l54 -1l39 -2l28 -2l30 -5l60 -12l44 -3q17 0 20 -16q3 -14 -8 -26l-24 -22q-9 -12 -28 -25 q-40 -29 -48 -38l-20 -41q-10 -28 -28 -40q-10 -7 -26 -7q-6 0 -12 0.5t-17 3.5l-29 4q-13 0 -22 -4l-41 -22q-10 -8 -7 -23q3 -12 16 -13l15 2l13 4l17 4l16 3q10 0 25 5l24 6q8 0 13 -6l5 -12q0 -9 -28 -28q-9 -5 -23 -16l-30 -26l-31 -26l-30 -26l-28 -28l-64 -64 l-26 -16q-13 -8 -15 -22q0 -15 18 -23l39 -10l16 -3l11 -1l17 1l22 4l46 9l38 5l33 5l99 13l85 8q39 4 85 4h17l19 -6q41 -14 54 -15l18 2l38 12q15 7 23 27l3 17q0 9 -6 20q-3 8 -20 16l-30 7q-10 4 -33 8l-35 3l-27 -1h-21q-19 0 -24 -2l-27 -4l-29 -5l-23 -2l-27 -1 l-36 -8l-105 -20q-32 0 -32 23l3 17l8 17q2 7 12.5 21t35.5 30t36 27q4 5 6 8q7 10 16 30.5t29 31.5l14 5l16 2h15h13q10 0 15 3l36 9q17 6 25 23q3 7 -1 10l-17 3h-17q-11 0 -22 -4l-48 -8q-5 0 -7 2l5 6l38 31l21 17l22 24l20 24l41 55l29 33q7 9 13 23l7 21l3 17 q0 9 -4 18q-2 10 -12 19l-20 16q-17 14 -35 20t-40 6l-27 -2l-55 -9l-31 -4l-26 -1l-74 -3l-118 -7l-46 2l-89 6l-10 -1l-5 -1l4 -2l28 -10h11l21 -4q15 0 19 -6l-10 -5l-17 -2v-6l17 -12l-25 1l-55 10l-16 -5l-6 -4z" />
<glyph unicode="{" horiz-adv-x="774" d="M33 775q0 35 27.5 63.5t64.5 28.5q28 0 45 -16q8 -6 47 -76l5 -17q0 -20 -37 -42l-60 -33q-6 -4 -22 -7q-24 0 -48 33q-22 36 -22 66zM562 769q0 12 9 21t42 60l7 9.5t13.5 11.5t25.5 7q36 0 61 -41l27 -47q6 -11 6 -21q0 -23 -31 -47q-31 -20 -63 -20q-28 0 -62.5 21.5 t-34.5 45.5z" />
<glyph unicode="|" horiz-adv-x="205" d="M5 694q0 -33 15 -116.5t15 -122.5l-1 -82l-4 -133v-11q0 -6 -2 -20l-9 -47l-10 -69q0 -24 9 -38.5t35 -14.5q22 0 40.5 7t40 22t30.5 48l7 35l3 42l-3 56q-3 29 -10 59q-12 55 -21 58l-2 -5l-3 -17l-1 114l-4 181q0 17 15 57t15 56q0 21 -20 32l-30 7l-21 -1l-14 -1 q-35 0 -52.5 -28t-17.5 -68z" />
<glyph unicode="&#xaa;" horiz-adv-x="440" d="M18 28q0 14 12 44q26 62 30 84l26 233l25 94q23 80 81 127l44 32q26 16 38 16q6 0 8 -12v-12.5t3 -14t7.5 -18.5t8.5 -15q25 -42 31 -63l13 -50l13 -58l12 -45q14 -47 14 -75l-1 -20q0 -9 -5 -23l-8 -43l-8 -55l-2 -42q0 -17 5 -50q0 -7 9 -30l19 -40l-3 1l-8 12l-4 5 l-9 16q-7 22 -13 23q-6 0 -9 -12q0 -15 11 -25l-42 57l-1 -11q0 -13 2 -19.5t3 -9.5l9 -11l-9 -4q-7 0 -30 48l15 -50l-27 50l-2 70q22 28 22 59q0 22 -15 49q-7 15 -21 24l-29 17l-25 14q-9 5 -18 8.5t-18 5.5q-10 0 -17.5 -6t-9.5 -17q0 -11 18 -44q10 -19 10 -31 q0 -27 -16 -82l-6 -27l-2 -25q0 -15 5 -35l6 -32q0 -17 -11 -29q-17 -19 -43 -19q-38 0 -70 28q-18 15 -18 38zM154 338l24 18q30 18 57 18q21 -12 35 -12l13 2q10 3 10 34q0 39 -16.5 86t-41.5 63l-39 -51q-21 -50 -31.5 -92.5t-10.5 -65.5zM264 545l9 -2q6 4 8 7h5l14 -17 l7 -16q7 -20 18 -38l-6 2l-5 1l-14 23l-3 2l1 -8l-11 8l-4 10q-2 3 -3 5q-4 8 -10 13zM309 453q-3 7 1 10l7 3q14 0 17 -20l-3 -16l-2 -16l1 -16l2 -11l-2 -2l-4 7l-9 23l-5 23z" />
<glyph unicode="&#xad;" d="M16 427q0 -17 4 -32q6 -23 20 -32.5t37 -9.5q26 0 90 16t88 16l41 -1q14 0 46 -7l83 -7l57 -1l114 -5q74 0 74 14q0 9 -25 22l10 -3l42 -14l-7 10l45 -8l43 -3q21 0 21 6l-3 4q-2 4 -11 8l-53 6h-14h-10q-6 2 -12.5 3t-11.5 4l14 4l31 5q-12 0 -23 8l-21 15q-17 9 -20 14 q3 2 7 4t15 4l42 6l-13 3l-6 4l39 6q18 3 21 9q3 8 -9 14l-38 4h-22h-12l-6 3l4 4l10 7l-23 -2l-44 -9l-56 -9l-3 1q4 4 29 12q7 2 10 5l-122 -13l-120 -11l12 4q71 15 74 25l-5 2l-17 5l-57 2l-91 -2l-69 -2l-46 3l-44 3q-25 0 -41 -6.5t-34 -24.5q-34 -40 -34 -83z" />
<glyph unicode="&#xb2;" d="M-7 -2q0 18 6 42l16 50q15 38 57 76l48 39q31 28 79 60l51 35l109 62q56 33 86 83q22 40 30 61l8 25l5 34l-1 17l-1 10l-6 18q-9 27 -27.5 39t-46.5 12q-31 0 -79 -16l-147 -45l-87 -31q-8 0 -23 6q-18 9 -27 21q-5 10 -13 39l-1 8v6q0 34 54 58l102 33q45 18 81 24t89 6 l45 3l68 9l32 -3q15 -3 30 -14q37 -23 58.5 -56.5t21.5 -78.5q0 -17 -2 -22l-3 -18l-9 -89q-6 -43 -21 -86q-3 -9 -8 -21.5t-14 -26.5q-5 -10 -11.5 -19.5t-17.5 -22.5q-19 -23 -65 -48l-24 -13l-20 -14q-65 -33 -90.5 -52t-25.5 -43l2 -17q2 -9 12 -18q9 -5 27 -7 q11 0 85 18q35 9 55 9q42 0 110 25l60 18l50 7l56 3l102 8l7 -1l-40 -10q-5 0 -14 -10q-6 -9 -6 -19q0 -6 5 -6l18 -3l8 -3l-122 -26l-34 -18l11 -2q19 0 57 16l29 11l20 5q6 0 6 -7q0 -6 -13 -23h24l90 27l-1 -8l-48 -34l-37 -16l-41 -4l-34 1l-63 4h-45l-42 1 q-43 0 -97 -6.5t-92 -20.5l-99 -34l-150 -60l-97 -28q-14 0 -18 2q-6 0 -18.5 9.5t-21.5 27.5q-7 18 -7 32z" />
<glyph unicode="&#xb3;" horiz-adv-x="475" d="M-26 599q0 9 7 16q37 35 88 67q71 42 133 42l21 -1l73 -9q36 -9 55 -43l23 -44q15 -33 15 -58q0 -24 -13 -49q-27 -52 -80 -83q-15 -9 -15 -18q5 -15 34 -18q30 0 38 -5q22 -10 58.5 -41t50.5 -49l15 -30q2 -7 3.5 -13.5t1.5 -18.5l-1 -17q-6 -42 -94 -102 q-80 -54 -133 -66l-28 -4l-17 -1l-26 1l-28 1l-20 -1q-10 0 -30 -10l-15 -5l-15 -3q-9 0 -18 6q-15 12 -15 35q0 30 24 57q7 7 24 10q13 0 28 -7l24 -8l25 -7q10 0 20 5q51 26 71.5 57.5t20.5 61.5q0 14 -3 27t-11 29l-18 35q-6 18 -22.5 25.5t-35.5 7.5l-34 -3l-30 -5 q-15 -2 -36 -17l-17 -7l-12 5q-11 9 -11 25q0 12 2 16l10 23q8 15 43 15q36 0 51 12l59 50q42 45 42 96q0 25 -25 41q-22 10 -42 10q-28 0 -56 -17l-34 -21q-6 -3 -32 -32q-15 -17 -37 -17q-10 2 -18.5 6.5t-18.5 13.5q-19 19 -19 34z" />
<glyph unicode="&#xb9;" horiz-adv-x="840" d="M-50 533q0 5 37 29q90 51 103 68l77 106q37 52 56 52l21 -3l35 -7q23 -3 35 -8t26 -25l4 -18l-9 -37l-5 -25v-175l-1 -38l-4 -32l-10 -70l-15 -120q0 -8 -1 -18.5t-4 -20.5l-5 -35q0 -19 10 -36q15 -24 43 -24q18 0 81 23l29 8l27 3q24 0 134 20l108 13l-5 -3l-34 -15 l-78 -25l30 3l42 8q95 15 129 15q17 0 20 -5q0 -8 -61 -30l-90 -30l-130 -41q-4 -1 -24 -4.5l-37 -6.5l-52 -7q-13 0 -17 -2l-170 -35l-50 -10l-32 -6l-24 -2l-22 1q-7 0 -26 8l-39 14q-22 9 -22 30q0 19 34 26q32 3 46 9l52 14q27 6 43 26q9 9 12 21l6 28v15q-3 12 -4 18 q-9 47 -9 63q0 28 10 92l5 58q0 30 12 69q25 85 28 106q0 22 -8 33q-5 11 -20.5 18t-32.5 10q-30 0 -66 -37l-88 -99l-23 -11l7 9l7 16q0 9 -12.5 15t-48.5 6q-30 0 -30 8z" />
<glyph unicode="&#xba;" horiz-adv-x="532" d="M51 150l67 297q13 26 101 101q97 82 130 82q9 0 34 -19q20 -13 36 -32.5t30 -46.5q35 -70 35 -173q0 -40 -7 -81.5t-23.5 -97t-37.5 -101t-47 -81.5q-59 -85 -122 -85q-61 0 -133 96q-63 88 -63 141zM173 183q0 -34 15 -66q15 -28 46 -28q17 0 39 16q21 18 21 24 q0 61 20 115l41 108q0 15 -13 42l-28 53l4 7q3 6 3 16l-1 13l-6 18q-3 -4 -14 -24q-19 -34 -29 -54l-31.5 -66t-33.5 -75q-33 -80 -33 -99z" />
<glyph unicode="&#xc0;" horiz-adv-x="510" d="M174 1025q0 -24 25 -45l30 -21l21 -17l36 -36q23 -23 35 -23q8 0 12.5 7.5t6.5 19.5q0 10 -5 21l-5 21q-18 93 -31 115q-9 15 -19 22t-27 9l-13 -1q-22 -3 -43 -21q-14 -13 -22 -39zM13 35q0 17 15 55q18 41 26 63.5t12 41.5l33 291l31 118q30 102 101 158l55 40 q33 21 47 21q8 0 11 -15q0 -22 4.5 -38t18.5 -38q32 -51 39 -78l16 -63l16 -72l16 -57q17 -57 17 -93l-1 -25l-6 -29l-11 -54l-9 -69l-3 -52q0 -24 6 -62q0 -9 12 -38l23 -50l-3 1l-11 15l-5 6l-11 21q-9 27 -16 28q-8 0 -11 -15q0 -18 13 -31l-52 71l-1 -14q0 -18 6 -36 l11 -14l-11 -5q-9 0 -38 60l19 -62l-33 63l-3 87q27 35 27 74q0 28 -18 61q-9 18 -27 30l-36 21l-31 18q-23 14 -45 17q-12 0 -23 -8t-11 -21q0 -10 23 -55q12 -24 12 -38q0 -34 -20 -103l-7 -34l-3 -31q0 -16 7 -43l7 -40q0 -20 -14 -37q-21 -23 -54 -23q-46 0 -87 35 q-23 18 -23 47zM184 422l30 23q37 23 71 23q15 -9 24 -12.5t20 -3.5l16 3q12 3 12 43q0 49 -21 107.5t-51 78.5l-49 -64q-26 -65 -39 -118t-13 -80zM321 681l11 -2q6 0 10 8l7 1l17 -22l9 -20q9 -28 22 -47l-7 2l-6 2l-18 28l-4 3l2 -10l-1 -3l-13 13q-3 3 -5 12q0 6 -17 23 zM377 566q-3 9 1 13l9 3q18 0 21 -24l-3 -20l-3 -21l2 -19l2 -14l-3 -3l-4 9l-12 29l-6 29q0 10 -4 18z" />
<glyph unicode="&#xc2;" horiz-adv-x="510" d="M95 938l110 110l90 130l80 -60l50 -65l125 -115l-30 -55l-90 70l-100 65l-120 -60l-75 -55zM13 35q0 17 15 55q18 41 26 63.5t12 41.5l33 291l31 118q30 102 101 158l55 40q33 21 47 21q8 0 11 -15q0 -22 4.5 -38t18.5 -38q32 -51 39 -78l16 -63l16 -72l16 -57 q17 -57 17 -93l-1 -25l-6 -29l-11 -54l-9 -69l-3 -52q0 -24 6 -62q0 -9 12 -38l23 -50l-3 1l-11 15l-5 6l-11 21q-9 27 -16 28q-8 0 -11 -15q0 -18 13 -31l-52 71l-1 -14q0 -18 6 -36l11 -14l-11 -5q-9 0 -38 60l19 -62l-33 63l-3 87q27 35 27 74q0 28 -18 61q-9 18 -27 30 l-36 21l-31 18q-23 14 -45 17q-12 0 -23 -8t-11 -21q0 -10 23 -55q12 -24 12 -38q0 -34 -20 -103l-7 -34l-3 -31q0 -16 7 -43l7 -40q0 -20 -14 -37q-21 -23 -54 -23q-46 0 -87 35q-23 18 -23 47zM184 422l30 23q37 23 71 23q15 -9 24 -12.5t20 -3.5l16 3q12 3 12 43 q0 49 -21 107.5t-51 78.5l-49 -64q-26 -65 -39 -118t-13 -80zM321 681l11 -2q6 0 10 8l7 1l17 -22l9 -20q9 -28 22 -47l-7 2l-6 2l-18 28l-4 3l2 -10l-1 -3l-13 13q-3 3 -5 12q0 6 -17 23zM377 566q-3 9 1 13l9 3q18 0 21 -24l-3 -20l-3 -21l2 -19l2 -14l-3 -3l-4 9l-12 29 l-6 29q0 10 -4 18z" />
<glyph unicode="&#xc4;" horiz-adv-x="730" d="M103 800q0 35 27.5 63.5t64.5 28.5q28 0 45 -16q8 -6 47 -76l5 -17q0 -20 -37 -42l-60 -33q-6 -4 -22 -7q-24 0 -48 33q-22 36 -22 66zM206 35q0 17 15 55q18 41 26 63.5t12 41.5l33 291l31 118q30 102 101 158l55 40q33 21 47 21q8 0 11 -15q0 -22 4.5 -38t18.5 -38 q32 -51 39 -78l16 -63l16 -72l16 -57q17 -57 17 -93l-1 -25l-6 -29l-11 -54l-9 -69l-3 -52q0 -24 6 -62q0 -9 12 -38l23 -50l-3 1l-11 15l-5 6l-11 21q-9 27 -16 28q-8 0 -11 -15q0 -18 13 -31l-52 71l-1 -14q0 -18 6 -36l11 -14l-11 -5q-9 0 -38 60l19 -62l-33 63l-3 87 q27 35 27 74q0 28 -18 61q-9 18 -27 30l-36 21l-31 18q-23 14 -45 17q-12 0 -23 -8t-11 -21q0 -10 23 -55q12 -24 12 -38q0 -34 -20 -103l-7 -34l-3 -31q0 -16 7 -43l7 -40q0 -20 -14 -37q-21 -23 -54 -23q-46 0 -87 35q-23 18 -23 47zM377 422l30 23q37 23 71 23 q15 -9 24 -12.5t20 -3.5l16 3q12 3 12 43q0 49 -21 107.5t-51 78.5l-49 -64q-26 -65 -39 -118t-13 -80zM514 681l11 -2q6 0 10 8l7 1l17 -22l9 -20q9 -28 22 -47l-7 2l-6 2l-18 28l-4 3l2 -10l-1 -3l-13 13q-3 3 -5 12q0 6 -17 23zM570 566q-3 9 1 13l9 3q18 0 21 -24 l-3 -20l-3 -21l2 -19l2 -14l-3 -3l-4 9l-12 29l-6 29q0 10 -4 18zM632 794q0 12 9 21t42 60l7 9.5t13.5 11.5t25.5 7q36 0 61 -41l27 -47q6 -11 6 -21q0 -23 -31 -47q-31 -20 -63 -20q-28 0 -62.5 21.5t-34.5 45.5z" />
<glyph unicode="&#xc8;" horiz-adv-x="905" d="M593 1023q0 -24 25 -45l30 -21l21 -17l36 -36q23 -23 35 -23q8 0 12.5 7.5t6.5 19.5q0 10 -5 21l-5 21q-18 93 -31 115q-9 15 -19 22t-27 9l-13 -1q-22 -3 -43 -21q-14 -13 -22 -39zM8 723q0 -14 15 -53q9 -21 12 -39l13 -45q9 -28 12 -50l3 -43l-2 -49l-1 -34l-1 -52 l-4 -83l-1 -32v-29l1 -29q0 -17 5 -30l12 -47l6 -15q2 -5 7.5 -14t9.5 -14q19 -27 55 -50l25 -12l34 -9l56 -4q31 0 74 13l51 13l68 15l47 9l76 8l92 2h27l55 1l90 4l16 -3l10 3l-11 5l-3 3l30 -2l43 -1q28 0 41 5l-27 9l-12 1l-17 4l35 6q31 3 37 9l-9 5q-5 0 -10 5.5 t-14 8.5l-10 -3l-12 -3q-34 0 -79 15q-93 33 -128 33q-45 0 -101 -9l-64 -11l-110 -20l-61 1l-99 4l-19 -1l-15 -1q-16 0 -26.5 7.5t-15.5 34.5q0 28 -5 36l-16 38q-2 6 -7.5 21t-5.5 25q0 13 6 33l9 34l5 23q0 18 -4.5 37l-9.5 40t-6 33v75l-1 19v16l3 26q3 13 13 24 q14 17 37 21l48 9l46 9l39 6l105 20l115 10l19 5l17 9l43 22l11 2l13 1h12l22 2l26 8l-30 4q-18 0 -20 9l-5 7q6 0 10 7l10 10l19 9q19 8 22 11q-5 2 -48 -16l-35 -15l3 6l6 6l-35 -17l-22 -11l20 18l22 18q-13 -3 -37 -15q-18 -12 -30 -15l-21 -3l-18 -1l-38 2l-31 2l-24 1 q-15 0 -32 4l-49 6l-31 -3q-15 0 -56 -22l-34 -15l-30 -11l-31 -5l-41 -6h-16t-26 -4q12 18 12 31q0 14 -15 28q-15 12 -35 16q-21 3 -40 -12l-14 -16l-13 -22zM65 605l6 -10l5 -10l4 -11v-40l3 -19q0 11 2 17l6 22q5 14 10 18l-6 -42l-9 -40l6 15q3 11 12 16q6 2 6 -7 q0 -11 -7 -29l-4 -10l-1 -7l1 -4l8 19l11 27l7 29l3 41q0 29 -3 43l-5 1l-14 -26l-6 -11q-6 3 -9 9q-1 6 -8 7q-10 10 -18 14v-12zM111 532l7 58q3 -6 3 -26l-1 -21l-6 -23zM245 432q0 -15 9 -26.5t27 -11.5l39 6q22 3 36 13l54 37l78 33q32 11 82 22l24 2q24 0 69 -6l52 -5 q14 0 17 7l-2 5q-3 5 -5 7l-17 13l-23 12q-15 8 -39 12l-32 5l-14 1l-51 -2l-34 -1q-50 0 -86 -11q-45 -11 -129 -59l-33 -13q-10 -3 -17 -17zM340 78q3 -20 20 -24q10 -2 15 2l25 16l11 2h9l28 -2l24 -2l41 1l41 1l56 1l18 1l11 3l-15 3l-17 1l-13 1l-27 -1l-29 -1h-12h-11 l-13 2l56 9l56 5q-38 0 -39 4l-1 8l-41 4q-17 0 -26.5 -1t-31.5 -6q-62 -12 -64 -14h-10l-21 1l-20 2q-21 0 -20 -16zM466 92l7 3l10 2l23 8l3 -2l3 -2q-7 -6 -12 -7q-12 0 -16 -2q-7 0 -11 -2zM699 779q3 4 5.5 5.5t9.5 4.5l9 10l10 4l8 -6l7 2l10 5l9 2l7 1l-5 -5l-36 -21 q-8 -5 -23 -8q-8 0 -11 6z" />
<glyph unicode="&#xca;" horiz-adv-x="905" d="M514 936l110 110l90 130l80 -60l50 -65l125 -115l-30 -55l-90 70l-100 65l-120 -60l-75 -55zM8 723q0 -14 15 -53q9 -21 12 -39l13 -45q9 -28 12 -50l3 -43l-2 -49l-1 -34l-1 -52l-4 -83l-1 -32v-29l1 -29q0 -17 5 -30l12 -47l6 -15q2 -5 7.5 -14t9.5 -14q19 -27 55 -50 l25 -12l34 -9l56 -4q31 0 74 13l51 13l68 15l47 9l76 8l92 2h27l55 1l90 4l16 -3l10 3l-11 5l-3 3l30 -2l43 -1q28 0 41 5l-27 9l-12 1l-17 4l35 6q31 3 37 9l-9 5q-5 0 -10 5.5t-14 8.5l-10 -3l-12 -3q-34 0 -79 15q-93 33 -128 33q-45 0 -101 -9l-64 -11l-110 -20l-61 1 l-99 4l-19 -1l-15 -1q-16 0 -26.5 7.5t-15.5 34.5q0 28 -5 36l-16 38q-2 6 -7.5 21t-5.5 25q0 13 6 33l9 34l5 23q0 18 -4.5 37l-9.5 40t-6 33v75l-1 19v16l3 26q3 13 13 24q14 17 37 21l48 9l46 9l39 6l105 20l115 10l19 5l17 9l43 22l11 2l13 1h12l22 2l26 8l-30 4 q-18 0 -20 9l-5 7q6 0 10 7l10 10l19 9q19 8 22 11q-5 2 -48 -16l-35 -15l3 6l6 6l-35 -17l-22 -11l20 18l22 18q-13 -3 -37 -15q-18 -12 -30 -15l-21 -3l-18 -1l-38 2l-31 2l-24 1q-15 0 -32 4l-49 6l-31 -3q-15 0 -56 -22l-34 -15l-30 -11l-31 -5l-41 -6h-16t-26 -4 q12 18 12 31q0 14 -15 28q-15 12 -35 16q-21 3 -40 -12l-14 -16l-13 -22zM65 605l6 -10l5 -10l4 -11v-40l3 -19q0 11 2 17l6 22q5 14 10 18l-6 -42l-9 -40l6 15q3 11 12 16q6 2 6 -7q0 -11 -7 -29l-4 -10l-1 -7l1 -4l8 19l11 27l7 29l3 41q0 29 -3 43l-5 1l-14 -26l-6 -11 q-6 3 -9 9q-1 6 -8 7q-10 10 -18 14v-12zM111 532l7 58q3 -6 3 -26l-1 -21l-6 -23zM245 432q0 -15 9 -26.5t27 -11.5l39 6q22 3 36 13l54 37l78 33q32 11 82 22l24 2q24 0 69 -6l52 -5q14 0 17 7l-2 5q-3 5 -5 7l-17 13l-23 12q-15 8 -39 12l-32 5l-14 1l-51 -2l-34 -1 q-50 0 -86 -11q-45 -11 -129 -59l-33 -13q-10 -3 -17 -17zM340 78q3 -20 20 -24q10 -2 15 2l25 16l11 2h9l28 -2l24 -2l41 1l41 1l56 1l18 1l11 3l-15 3l-17 1l-13 1l-27 -1l-29 -1h-12h-11l-13 2l56 9l56 5q-38 0 -39 4l-1 8l-41 4q-17 0 -26.5 -1t-31.5 -6 q-62 -12 -64 -14h-10l-21 1l-20 2q-21 0 -20 -16zM466 92l7 3l10 2l23 8l3 -2l3 -2q-7 -6 -12 -7q-12 0 -16 -2q-7 0 -11 -2zM699 779q3 4 5.5 5.5t9.5 4.5l9 10l10 4l8 -6l7 2l10 5l9 2l7 1l-5 -5l-36 -21q-8 -5 -23 -8q-8 0 -11 6z" />
<glyph unicode="&#xcc;" horiz-adv-x="432" d="M23 989q0 -24 25 -45l30 -21l21 -17l36 -36q23 -23 35 -23q8 0 12.5 7.5t6.5 19.5q0 10 -5 21l-5 21q-18 93 -31 115q-9 15 -19 22t-27 9l-13 -1q-22 -3 -43 -21q-14 -13 -22 -39zM57 667q0 25 25 60t44.5 43t56.5 8q18 0 43 -13l25 -12l39 -4q30 0 43 -16q9 -9 12 -21 t3 -44q0 -18 -12 -39l-23 -36l-35 -65l-5 -21l-3 -18l-2 -38v-28v-135l1 -25v-12t4 -22l5 -61l-3 -41l-2 -34v-17v-12l-2 -11l-9 -45l-8 -46l-6 -4q-18 75 -47 75q-28 0 -28 20v29l-4 17l-16 74l-15 100q-3 29 -12 69q-13 78 -13 111l3 34l9 52q0 13 -4 22q-3 11 -13 22 l-29 33q-22 28 -22 51zM130 628q0 -13 8 -33q5 -11 7.5 -21l3.5 -14l6 -30l4 -34l-1 -18q0 -10 -4 -22l-5 -38l2 -25l2 -11l9 -21l21 -37q6 -12 10 -13v12q0 8 -2 16q-15 80 -15 98l1 11q0 9 7 30q2 6 4.5 18t3.5 18q0 14 -5 27l-4 26l-1 11l-1 16q0 14 7 22q11 13 11 29 q0 15 -10 25.5t-28 10.5q-7 0 -16 -10l-11 -23l-3 -10z" />
<glyph unicode="&#xce;" horiz-adv-x="432" d="M-56 902l110 110l90 130l80 -60l50 -65l125 -115l-30 -55l-90 70l-100 65l-120 -60l-75 -55zM57 667q0 25 25 60t44.5 43t56.5 8q18 0 43 -13l25 -12l39 -4q30 0 43 -16q9 -9 12 -21t3 -44q0 -18 -12 -39l-23 -36l-35 -65l-5 -21l-3 -18l-2 -38v-28v-135l1 -25v-12t4 -22 l5 -61l-3 -41l-2 -34v-17v-12l-2 -11l-9 -45l-8 -46l-6 -4q-18 75 -47 75q-28 0 -28 20v29l-4 17l-16 74l-15 100q-3 29 -12 69q-13 78 -13 111l3 34l9 52q0 13 -4 22q-3 11 -13 22l-29 33q-22 28 -22 51zM130 628q0 -13 8 -33q5 -11 7.5 -21l3.5 -14l6 -30l4 -34l-1 -18 q0 -10 -4 -22l-5 -38l2 -25l2 -11l9 -21l21 -37q6 -12 10 -13v12q0 8 -2 16q-15 80 -15 98l1 11q0 9 7 30q2 6 4.5 18t3.5 18q0 14 -5 27l-4 26l-1 11l-1 16q0 14 7 22q11 13 11 29q0 15 -10 25.5t-28 10.5q-7 0 -16 -10l-11 -23l-3 -10z" />
<glyph unicode="&#xd2;" horiz-adv-x="665" d="M277 989q0 -24 25 -45l30 -21l21 -17l36 -36q23 -23 35 -23q8 0 12.5 7.5t6.5 19.5q0 10 -5 21l-5 21q-18 93 -31 115q-9 15 -19 22t-27 9l-13 -1q-22 -3 -43 -21q-14 -13 -22 -39zM64 187l84 372q14 30 126 126q120 102 162 102q11 0 43 -23q49 -34 82 -99 q44 -88 44 -216q0 -94 -40 -227q-20 -69 -45.5 -124t-58.5 -101q-74 -106 -152 -106q-76 0 -166 120q-79 109 -79 176zM216 229q0 -45 19 -83q20 -35 57 -35q23 0 49 20.5t27 29.5q0 79 25 144l51 135q0 19 -16 52l-35 67l5 9q3 6 3 19l-1 17q0 7 -7 22q-11 -13 -53.5 -97 t-81.5 -177q-42 -99 -42 -123z" />
<glyph unicode="&#xd4;" horiz-adv-x="665" d="M198 902l110 110l90 130l80 -60l50 -65l125 -115l-30 -55l-90 70l-100 65l-120 -60l-75 -55zM64 187l84 372q14 30 126 126q120 102 162 102q11 0 43 -23q49 -34 82 -99q44 -88 44 -216q0 -94 -40 -227q-20 -69 -45.5 -124t-58.5 -101q-74 -106 -152 -106q-76 0 -166 120 q-79 109 -79 176zM216 229q0 -45 19 -83q20 -35 57 -35q23 0 49 20.5t27 29.5q0 79 25 144l51 135q0 19 -16 52l-35 67l5 9q3 6 3 19l-1 17q0 7 -7 22q-11 -13 -53.5 -97t-81.5 -177q-42 -99 -42 -123z" />
<glyph unicode="&#xd6;" horiz-adv-x="665" d="M33 775q0 35 27.5 63.5t64.5 28.5q28 0 45 -16q8 -6 47 -76l5 -17q0 -20 -37 -42l-60 -33q-6 -4 -22 -7q-24 0 -48 33q-22 36 -22 66zM64 187l84 372q14 30 126 126q120 102 162 102q11 0 43 -23q49 -34 82 -99q44 -88 44 -216q0 -94 -40 -227q-20 -69 -45.5 -124 t-58.5 -101q-74 -106 -152 -106q-76 0 -166 120q-79 109 -79 176zM216 229q0 -45 19 -83q20 -35 57 -35q23 0 49 20.5t27 29.5q0 79 25 144l51 135q0 19 -16 52l-35 67l5 9q3 6 3 19l-1 17q0 7 -7 22q-11 -13 -53.5 -97t-81.5 -177q-42 -99 -42 -123zM562 769q0 12 9 21 t42 60l7 9.5t13.5 11.5t25.5 7q36 0 61 -41l27 -47q6 -11 6 -21q0 -23 -31 -47q-31 -20 -63 -20q-28 0 -62.5 21.5t-34.5 45.5z" />
<glyph unicode="&#xd9;" horiz-adv-x="816" d="M438 1000q0 -24 25 -45l30 -21l21 -17l36 -36q23 -23 35 -23q8 0 12.5 7.5t6.5 19.5q0 10 -5 21l-5 21q-18 93 -31 115q-9 15 -19 22t-27 9l-13 -1q-22 -3 -43 -21q-14 -13 -22 -39zM5 549v33.5t4 46.5q0 15 3.5 32.5t9.5 33.5q17 57 49 57q10 0 13 -2l13 -2q16 0 37 14 q43 28 57 32q11 0 19 -8q16 -16 16 -37l-3 -24l-7 -47l-3 -44l-10 -74q-6 -44 -6 -71l1 -30q0 -10 6 -33l15 -82q12 -42 44.5 -61t65.5 -19l24 2l25 4q35 6 55.5 15.5t40.5 32.5q24 27 33 73l2 20l6 28l7 50l2 45v36v30v21q3 11 4 15l1 15l1 14l-1 30l-1 29q0 28 7 43 q6 17 26 24l18 4l18 3q23 0 43.5 -10t37 -31t16.5 -45q0 -19 -7 -39l-21 -74q0 -10 -31 -131q-11 -49 -11 -84v-76q0 -30 6 -92q0 -16 28 -78q11 -24 23 -53q6 -14 6 -15h-8q-13 10 -31 32q-6 6 -20 7q-16 0 -28 -7.5t-12 -23.5l5 -45l-21 51q-24 72 -41 76l-22 5 q-11 0 -21 -5l-19 -9l-43 -25q-11 -5 -50 -33q-27 -21 -52 -27t-51 -6q-63 0 -129 48q-31 23 -56 66l-34 84q-19 50 -34 138t-15 153z" />
<glyph unicode="&#xdb;" horiz-adv-x="816" d="M359 913l110 110l90 130l80 -60l50 -65l125 -115l-30 -55l-90 70l-100 65l-120 -60l-75 -55zM5 549v33.5t4 46.5q0 15 3.5 32.5t9.5 33.5q17 57 49 57q10 0 13 -2l13 -2q16 0 37 14q43 28 57 32q11 0 19 -8q16 -16 16 -37l-3 -24l-7 -47l-3 -44l-10 -74q-6 -44 -6 -71 l1 -30q0 -10 6 -33l15 -82q12 -42 44.5 -61t65.5 -19l24 2l25 4q35 6 55.5 15.5t40.5 32.5q24 27 33 73l2 20l6 28l7 50l2 45v36v30v21q3 11 4 15l1 15l1 14l-1 30l-1 29q0 28 7 43q6 17 26 24l18 4l18 3q23 0 43.5 -10t37 -31t16.5 -45q0 -19 -7 -39l-21 -74 q0 -10 -31 -131q-11 -49 -11 -84v-76q0 -30 6 -92q0 -16 28 -78q11 -24 23 -53q6 -14 6 -15h-8q-13 10 -31 32q-6 6 -20 7q-16 0 -28 -7.5t-12 -23.5l5 -45l-21 51q-24 72 -41 76l-22 5q-11 0 -21 -5l-19 -9l-43 -25q-11 -5 -50 -33q-27 -21 -52 -27t-51 -6q-63 0 -129 48 q-31 23 -56 66l-34 84q-19 50 -34 138t-15 153z" />
<glyph unicode="&#xdc;" horiz-adv-x="816" d="M5 549v33.5t4 46.5q0 15 3.5 32.5t9.5 33.5q17 57 49 57q10 0 13 -2l13 -2q16 0 37 14q43 28 57 32q11 0 19 -8q16 -16 16 -37l-3 -24l-7 -47l-3 -44l-10 -74q-6 -44 -6 -71l1 -30q0 -10 6 -33l15 -82q12 -42 44.5 -61t65.5 -19l24 2l25 4q35 6 55.5 15.5t40.5 32.5 q24 27 33 73l2 20l6 28l7 50l2 45v36v30v21q3 11 4 15l1 15l1 14l-1 30l-1 29q0 28 7 43q6 17 26 24l18 4l18 3q23 0 43.5 -10t37 -31t16.5 -45q0 -19 -7 -39l-21 -74q0 -10 -31 -131q-11 -49 -11 -84v-76q0 -30 6 -92q0 -16 28 -78q11 -24 23 -53q6 -14 6 -15h-8 q-13 10 -31 32q-6 6 -20 7q-16 0 -28 -7.5t-12 -23.5l5 -45l-21 51q-24 72 -41 76l-22 5q-11 0 -21 -5l-19 -9l-43 -25q-11 -5 -50 -33q-27 -21 -52 -27t-51 -6q-63 0 -129 48q-31 23 -56 66l-34 84q-19 50 -34 138t-15 153zM28 915q0 35 27.5 63.5t64.5 28.5q28 0 45 -16 q8 -6 47 -76l5 -17q0 -20 -37 -42l-60 -33q-6 -4 -22 -7q-24 0 -48 33q-22 36 -22 66zM557 909q0 12 9 21t42 60l7 9.5t13.5 11.5t25.5 7q36 0 61 -41l27 -47q6 -11 6 -21q0 -23 -31 -47q-31 -20 -63 -20q-28 0 -62.5 21.5t-34.5 45.5z" />
<glyph unicode="&#xdf;" horiz-adv-x="1196" d="M86 -146q6 27 96 102l162 129q86 72 86 104q0 90 -86 151l-162 87q-87 48 -87 106l13 42q21 49 68 78q63 42 164 42q33 0 65.5 -11t70.5 -36q81 -51 81 -106q0 -26 -25 -45t-57 -19q-54 0 -72.5 59t-53.5 59q-33 0 -52 -31q-6 -10 -12 -32q0 -42 86 -85q138 -66 162 -84 q87 -63 87 -157q0 -90 -134 -182q-92 -63 -254 -125q-129 -46 -146 -46zM168 524v45v-36v-9zM340 49l36 11l-10 -2zM376 35h27h-27zM430 53h36l19 15l18 12v19l-18 -2q-7 0 -10 2q-3 -9 -19 -22zM521 288l9 9v46l-6 -14l-3 -13v27v-55zM548 288l9 -18zM548 723l9 18z M621 -156q6 27 96 102l162 129q86 72 86 104q0 90 -86 151l-162 87q-87 48 -87 106l13 42q21 49 68 78q63 42 164 42q33 0 65.5 -11t70.5 -36q81 -51 81 -106q0 -26 -25 -45t-57 -19q-54 0 -72.5 59t-53.5 59q-33 0 -52 -31q-6 -10 -12 -32q0 -42 86 -85q138 -66 162 -84 q87 -63 87 -157q0 -90 -134 -182q-92 -63 -254 -125q-129 -46 -146 -46zM703 514v45v-36v-9zM875 39l36 11l-10 -2zM911 25h27h-27zM965 43h36l19 15l18 12v19l-18 -2q-7 0 -10 2q-3 -9 -19 -22zM1056 278l9 9v46l-6 -14l-3 -13v27v-55zM1083 278l9 -18zM1083 713l9 18z" />
<glyph unicode="&#xe0;" horiz-adv-x="440" d="M115 860q0 -24 25 -45l30 -21l21 -17l36 -36q23 -23 35 -23q8 0 12.5 7.5t6.5 19.5q0 10 -5 21l-5 21q-18 93 -31 115q-9 15 -19 22t-27 9l-13 -1q-22 -3 -43 -21q-14 -13 -22 -39zM18 28q0 14 12 44q26 62 30 84l26 233l25 94q23 80 81 127l44 32q26 16 38 16q6 0 8 -12 v-12.5t3 -14t7.5 -18.5t8.5 -15q25 -42 31 -63l13 -50l13 -58l12 -45q14 -47 14 -75l-1 -20q0 -9 -5 -23l-8 -43l-8 -55l-2 -42q0 -17 5 -50q0 -7 9 -30l19 -40l-3 1l-8 12l-4 5l-9 16q-7 22 -13 23q-6 0 -9 -12q0 -15 11 -25l-42 57l-1 -11q0 -13 2 -19.5t3 -9.5l9 -11 l-9 -4q-7 0 -30 48l15 -50l-27 50l-2 70q22 28 22 59q0 22 -15 49q-7 15 -21 24l-29 17l-25 14q-9 5 -18 8.5t-18 5.5q-10 0 -17.5 -6t-9.5 -17q0 -11 18 -44q10 -19 10 -31q0 -27 -16 -82l-6 -27l-2 -25q0 -15 5 -35l6 -32q0 -17 -11 -29q-17 -19 -43 -19q-38 0 -70 28 q-18 15 -18 38zM154 338l24 18q30 18 57 18q21 -12 35 -12l13 2q10 3 10 34q0 39 -16.5 86t-41.5 63l-39 -51q-21 -50 -31.5 -92.5t-10.5 -65.5zM264 545l9 -2q6 4 8 7h5l14 -17l7 -16q7 -20 18 -38l-6 2l-5 1l-14 23l-3 2l1 -8l-11 8l-4 10q-2 3 -3 5q-4 8 -10 13zM309 453 q-3 7 1 10l7 3q14 0 17 -20l-3 -16l-2 -16l1 -16l2 -11l-2 -2l-4 7l-9 23l-5 23z" />
<glyph unicode="&#xe2;" horiz-adv-x="440" d="M36 773l110 110l90 130l80 -60l50 -65l125 -115l-30 -55l-90 70l-100 65l-120 -60l-75 -55zM18 28q0 14 12 44q26 62 30 84l26 233l25 94q23 80 81 127l44 32q26 16 38 16q6 0 8 -12v-12.5t3 -14t7.5 -18.5t8.5 -15q25 -42 31 -63l13 -50l13 -58l12 -45q14 -47 14 -75 l-1 -20q0 -9 -5 -23l-8 -43l-8 -55l-2 -42q0 -17 5 -50q0 -7 9 -30l19 -40l-3 1l-8 12l-4 5l-9 16q-7 22 -13 23q-6 0 -9 -12q0 -15 11 -25l-42 57l-1 -11q0 -13 2 -19.5t3 -9.5l9 -11l-9 -4q-7 0 -30 48l15 -50l-27 50l-2 70q22 28 22 59q0 22 -15 49q-7 15 -21 24l-29 17 l-25 14q-9 5 -18 8.5t-18 5.5q-10 0 -17.5 -6t-9.5 -17q0 -11 18 -44q10 -19 10 -31q0 -27 -16 -82l-6 -27l-2 -25q0 -15 5 -35l6 -32q0 -17 -11 -29q-17 -19 -43 -19q-38 0 -70 28q-18 15 -18 38zM154 338l24 18q30 18 57 18q21 -12 35 -12l13 2q10 3 10 34q0 39 -16.5 86 t-41.5 63l-39 -51q-21 -50 -31.5 -92.5t-10.5 -65.5zM264 545l9 -2q6 4 8 7h5l14 -17l7 -16q7 -20 18 -38l-6 2l-5 1l-14 23l-3 2l1 -8l-11 8l-4 10q-2 3 -3 5q-4 8 -10 13zM309 453q-3 7 1 10l7 3q14 0 17 -20l-3 -16l-2 -16l1 -16l2 -11l-2 -2l-4 7l-9 23l-5 23z" />
<glyph unicode="&#xe4;" horiz-adv-x="800" d="M86 620q0 27 21.5 50.5t52.5 23.5q22 0 36 -13q6 -5 38 -61l4 -14q0 -15 -30 -33l-48 -27l-18 -5q-18 0 -38 26q-9 15 -13.5 28t-4.5 25zM165 28q0 14 12 44q26 62 30 84l27 233l24 94q23 80 81 127l44 32q26 16 38 16q6 0 9 -12v-13.5t4 -16.5q1 -6 5 -14t9 -16 q25 -42 31 -63l13 -50l13 -58l13 -45q13 -49 13 -75l-1 -20l-4 -23l-9 -43l-7 -55l-3 -42q0 -17 5 -50q0 -9 10 -30l18 -40l-11 13l-4 5l-9 16q-7 22 -13 23q-6 0 -9 -12q0 -14 11 -25l-42 57l-1 -11q0 -13 2 -19.5t3 -9.5l9 -11l-9 -4q-7 0 -30 48l15 -50l-26 50l-3 70 q22 26 22 59q0 22 -15 49q-5 14 -21 24l-29 17l-25 14q-7 4 -17.5 8.5t-18.5 5.5q-10 0 -17.5 -6t-9.5 -17q0 -8 18 -44q10 -19 10 -31q0 -27 -16 -82l-6 -27l-2 -25q0 -11 6 -35l5 -32q0 -17 -11 -29q-17 -19 -43 -19q-36 0 -70 28q-18 15 -18 38zM302 338l24 18 q29 18 56 18q21 -12 36 -12l12 2q10 3 10 34q0 39 -16.5 86t-41.5 63l-39 -51q-14 -38 -18 -48q-7 -20 -13 -45q-10 -45 -10 -65zM411 545l9 -2q7 4 8 7h6l13 -17l7 -16q7 -20 18 -38l-6 2l-4 1l-15 23l-3 2l2 -8l-12 8l-4 10q-2 3 -3 5q-4 8 -10 13zM456 453q-3 7 1 10l7 3 q14 0 17 -20l-3 -16l-2 -16l2 -16l1 -11l-2 -2l-3 7l-10 23l-5 23zM510 615q0 10 7.5 17.5t32.5 47.5q9 12 16 17q10 5 21 5q29 0 49 -32l22 -38q4 -8 4 -17q0 -19 -23.5 -36t-51.5 -17q-24 0 -50.5 17t-26.5 36z" />
<glyph unicode="&#xe8;" horiz-adv-x="800" d="M444 859q0 -24 25 -45l30 -21l21 -17l36 -36q23 -23 35 -23q8 0 12.5 7.5t6.5 19.5q0 10 -5 21l-5 21q-18 93 -31 115q-9 15 -19 22t-27 9l-13 -1q-22 -3 -43 -21q-14 -13 -22 -39zM6 578q0 -10 12 -42q3 -7 5.5 -15t4.5 -16l10 -36l10 -40l2 -35l-1 -39l-1 -27l-1 -42 l-3 -66l-1 -26v-23l1 -23q0 -13 4 -24l10 -38l4 -12l14 -22q14 -21 44 -40l20 -10l27 -7l45 -3q25 0 59 10l41 11l54 12l38 7l61 6l73 2h22l44 1l72 3l13 -2l8 2l-9 4l-2 2l24 -1l34 -1q22 0 33 4l-22 7l-9 1l-14 3l28 5q25 3 30 7l-8 4q-6 3 -8 5q-5 5 -11 6l-8 -2l-9 -2 q-28 0 -64 12q-75 26 -102 26q-39 0 -81 -7l-51 -9l-88 -16l-49 1l-79 3l-15 -1l-12 -1q-12 0 -20.5 6t-13.5 28q0 22 -4 29l-13 30q-10 25 -10 37q0 9 5 26l7 28l4 18q0 12 -5.5 34t-7.5 32t-3 22v60l-1 15v13l3 21q2 11 11 21t29 15l38 7l37 7l31 5l84 16l92 8l15 4l14 7 l34 18l9 1l10 1h10l18 2l20 6q-6 3 -24 3q-14 0 -16 8l-4 5q5 0 8 6l8 8l16 7q16 7 17 9q-6 -1 -12.5 -3t-25.5 -10l-28 -12l2 5l5 5l-28 -14l-18 -9l16 15l18 14l-30 -12q-13 -9 -24 -12l-16 -2l-15 -1l-30 1l-25 2l-19 1l-26 3l-39 5l-25 -3q-12 0 -45 -17l-27 -12l-24 -9 l-25 -4l-32 -5l-34 -3q10 17 10 25q0 11 -11.5 21.5t-28.5 13.5q-16 3 -32 -10q-3 -2 -12 -12l-10 -18zM52 484l5 -8l4 -8l3 -9v-32l2 -15q0 9 2 14l5 17q3 10 8 15l-5 -34l-7 -32l5 12q1 8 9 13q3 1 4 0t1 -6q0 -8 -6 -23l-3 -8l-1 -6l1 -3l7 15l8 22l6 23l2 33v16 q0 10 -2 18l-4 1l-11 -21l-5 -8q-5 2 -7 7t-7 5q-5 6 -9 8.5t-5 3.5v-10zM89 426l5 46q3 -5 3 -21l-1 -17l-5 -18zM196 346q0 -14 6.5 -21.5t22.5 -9.5l31 5q18 3 29 10l43 30l62 26q10 4 34.5 10t31.5 8l19 2l55 -5l42 -4q11 0 14 5l-2 4q-2 5 -4 6l-14 10l-18 10 q-11 5 -31 10l-26 4h-11l-41 -1l-27 -1q-14 0 -30 -0.5t-39 -8.5q-33 -8 -103 -47l-26 -10q-8 -3 -14 -14zM272 62q3 -15 16 -19q8 -2 12 2l20 13l9 1h7l22 -1l20 -2l32 1l33 1h45l14 1q4 0 9 3l-12 2l-13 1l-11 1l-21 -1l-24 -1h-9h-9l-10 2l44 7l45 4q-15 0 -20.5 0.5 t-10.5 2.5l-1 6l-33 4q-19 0 -46 -6l-51 -11h-8l-17 1l-16 1q-17 0 -16 -13zM373 74l5 2l8 2l19 6l2 -2l3 -1q-6 -5 -10 -6l-13 -1l-9 -2zM559 623q7 6 12 8l7 8q3 3 8 3l7 -4l5 1l8 4l8 2l5 1l-4 -4l-29 -17l-18 -7q-6 0 -9 5z" />
<glyph unicode="&#xea;" horiz-adv-x="800" d="M365 772l110 110l90 130l80 -60l50 -65l125 -115l-30 -55l-90 70l-100 65l-120 -60l-75 -55zM6 578q0 -10 12 -42q3 -7 5.5 -15t4.5 -16l10 -36l10 -40l2 -35l-1 -39l-1 -27l-1 -42l-3 -66l-1 -26v-23l1 -23q0 -13 4 -24l10 -38l4 -12l14 -22q14 -21 44 -40l20 -10l27 -7 l45 -3q25 0 59 10l41 11l54 12l38 7l61 6l73 2h22l44 1l72 3l13 -2l8 2l-9 4l-2 2l24 -1l34 -1q22 0 33 4l-22 7l-9 1l-14 3l28 5q25 3 30 7l-8 4q-6 3 -8 5q-5 5 -11 6l-8 -2l-9 -2q-28 0 -64 12q-75 26 -102 26q-39 0 -81 -7l-51 -9l-88 -16l-49 1l-79 3l-15 -1l-12 -1 q-12 0 -20.5 6t-13.5 28q0 22 -4 29l-13 30q-10 25 -10 37q0 9 5 26l7 28l4 18q0 12 -5.5 34t-7.5 32t-3 22v60l-1 15v13l3 21q2 11 11 21t29 15l38 7l37 7l31 5l84 16l92 8l15 4l14 7l34 18l9 1l10 1h10l18 2l20 6q-6 3 -24 3q-14 0 -16 8l-4 5q5 0 8 6l8 8l16 7q16 7 17 9 q-6 -1 -12.5 -3t-25.5 -10l-28 -12l2 5l5 5l-28 -14l-18 -9l16 15l18 14l-30 -12q-13 -9 -24 -12l-16 -2l-15 -1l-30 1l-25 2l-19 1l-26 3l-39 5l-25 -3q-12 0 -45 -17l-27 -12l-24 -9l-25 -4l-32 -5l-34 -3q10 17 10 25q0 11 -11.5 21.5t-28.5 13.5q-16 3 -32 -10 q-3 -2 -12 -12l-10 -18zM52 484l5 -8l4 -8l3 -9v-32l2 -15q0 9 2 14l5 17q3 10 8 15l-5 -34l-7 -32l5 12q1 8 9 13q3 1 4 0t1 -6q0 -8 -6 -23l-3 -8l-1 -6l1 -3l7 15l8 22l6 23l2 33v16q0 10 -2 18l-4 1l-11 -21l-5 -8q-5 2 -7 7t-7 5q-5 6 -9 8.5t-5 3.5v-10zM89 426l5 46 q3 -5 3 -21l-1 -17l-5 -18zM196 346q0 -14 6.5 -21.5t22.5 -9.5l31 5q18 3 29 10l43 30l62 26q10 4 34.5 10t31.5 8l19 2l55 -5l42 -4q11 0 14 5l-2 4q-2 5 -4 6l-14 10l-18 10q-11 5 -31 10l-26 4h-11l-41 -1l-27 -1q-14 0 -30 -0.5t-39 -8.5q-33 -8 -103 -47l-26 -10 q-8 -3 -14 -14zM272 62q3 -15 16 -19q8 -2 12 2l20 13l9 1h7l22 -1l20 -2l32 1l33 1h45l14 1q4 0 9 3l-12 2l-13 1l-11 1l-21 -1l-24 -1h-9h-9l-10 2l44 7l45 4q-15 0 -20.5 0.5t-10.5 2.5l-1 6l-33 4q-19 0 -46 -6l-51 -11h-8l-17 1l-16 1q-17 0 -16 -13zM373 74l5 2l8 2 l19 6l2 -2l3 -1q-6 -5 -10 -6l-13 -1l-9 -2zM559 623q7 6 12 8l7 8q3 3 8 3l7 -4l5 1l8 4l8 2l5 1l-4 -4l-29 -17l-18 -7q-6 0 -9 5z" />
<glyph unicode="&#xec;" horiz-adv-x="322" d="M-18 832q0 -24 25 -45l30 -21l21 -17l36 -36q23 -23 35 -23q8 0 12.5 7.5t6.5 19.5q0 10 -5 21l-5 21q-18 93 -31 115q-9 15 -19 22t-27 9l-13 -1q-22 -3 -43 -21q-14 -13 -22 -39zM42 527q0 19 20 48q22 29 36.5 35t44.5 6q15 0 35 -10l20 -10l31 -3q24 0 34 -13 q7 -7 10 -17l2 -35q0 -14 -9 -31l-19 -29l-28 -52l-4 -17l-2 -14l-2 -31v-22v-108l1 -20l3 -27l4 -49l-2 -33l-2 -27v-14v-9l-1 -9l-8 -36l-6 -37l-5 -3q-14 60 -37 60q-22 0 -23 16v23l-3 14l-13 59l-12 80q0 8 -3.5 26.5l-5.5 28.5q-5 25 -8 49t-3 40l3 27l7 42l-3 17 q-3 11 -11 18l-23 26q-18 25 -18 41zM101 496q0 -12 6 -26l9 -28l5 -24l3 -28l-1 -14l-3 -18l-4 -30l2 -20l1 -9l7 -17l17 -29q3 -6 5 -8.5t3 -2.5l-1 23q-12 63 -12 78v9l6 24q6 17 6 29q0 13 -4 21l-3 21l-1 9v13q0 12 6 19t8 22q0 12 -8 20t-22 8q-6 0 -13 -8l-9 -18 l-2 -8z" />
<glyph unicode="&#xee;" horiz-adv-x="322" d="M-96 745l110 110l90 130l80 -60l50 -65l125 -115l-30 -55l-90 70l-100 65l-120 -60l-75 -55zM42 527q0 19 20 48q22 29 36.5 35t44.5 6q15 0 35 -10l20 -10l31 -3q24 0 34 -13q7 -7 10 -17l2 -35q0 -14 -9 -31l-19 -29l-28 -52l-4 -17l-2 -14l-2 -31v-22v-108l1 -20 l3 -27l4 -49l-2 -33l-2 -27v-14v-9l-1 -9l-8 -36l-6 -37l-5 -3q-14 60 -37 60q-22 0 -23 16v23l-3 14l-13 59l-12 80q0 8 -3.5 26.5l-5.5 28.5q-5 25 -8 49t-3 40l3 27l7 42l-3 17q-3 11 -11 18l-23 26q-18 25 -18 41zM101 496q0 -12 6 -26l9 -28l5 -24l3 -28l-1 -14l-3 -18 l-4 -30l2 -20l1 -9l7 -17l17 -29q3 -6 5 -8.5t3 -2.5l-1 23q-12 63 -12 78v9l6 24q6 17 6 29q0 13 -4 21l-3 21l-1 9v13q0 12 6 19t8 22q0 12 -8 20t-22 8q-6 0 -13 -8l-9 -18l-2 -8z" />
<glyph unicode="&#xf2;" horiz-adv-x="532" d="M190 832q0 -24 25 -45l30 -21l21 -17l36 -36q23 -23 35 -23q8 0 12.5 7.5t6.5 19.5q0 10 -5 21l-5 21q-18 93 -31 115q-9 15 -19 22t-27 9l-13 -1q-22 -3 -43 -21q-14 -13 -22 -39zM51 150l67 297q13 26 101 101q97 82 130 82q9 0 34 -19q20 -13 36 -32.5t30 -46.5 q35 -70 35 -173q0 -40 -7 -81.5t-23.5 -97t-37.5 -101t-47 -81.5q-59 -85 -122 -85q-61 0 -133 96q-63 88 -63 141zM173 183q0 -34 15 -66q15 -28 46 -28q17 0 39 16q21 18 21 24q0 61 20 115l41 108q0 15 -13 42l-28 53l4 7q3 6 3 16l-1 13l-6 18q-3 -4 -14 -24 q-19 -34 -29 -54l-31.5 -66t-33.5 -75q-33 -80 -33 -99z" />
<glyph unicode="&#xf4;" horiz-adv-x="532" d="M111 745l110 110l90 130l80 -60l50 -65l125 -115l-30 -55l-90 70l-100 65l-120 -60l-75 -55zM51 150l67 297q13 26 101 101q97 82 130 82q9 0 34 -19q20 -13 36 -32.5t30 -46.5q35 -70 35 -173q0 -40 -7 -81.5t-23.5 -97t-37.5 -101t-47 -81.5q-59 -85 -122 -85 q-61 0 -133 96q-63 88 -63 141zM173 183q0 -34 15 -66q15 -28 46 -28q17 0 39 16q21 18 21 24q0 61 20 115l41 108q0 15 -13 42l-28 53l4 7q3 6 3 16l-1 13l-6 18q-3 -4 -14 -24q-19 -34 -29 -54l-31.5 -66t-33.5 -75q-33 -80 -33 -99z" />
<glyph unicode="&#xf6;" horiz-adv-x="532" d="M26 620q0 27 21.5 50.5t52.5 23.5q22 0 36 -13q6 -5 38 -61l4 -14q0 -15 -30 -33l-48 -27l-18 -5q-18 0 -38 26q-9 15 -13.5 28t-4.5 25zM51 150l67 297q13 26 101 101q97 82 130 82q9 0 34 -19q20 -13 36 -32.5t30 -46.5q35 -70 35 -173q0 -40 -7 -81.5t-23.5 -97 t-37.5 -101t-47 -81.5q-59 -85 -122 -85q-61 0 -133 96q-63 88 -63 141zM173 183q0 -34 15 -66q15 -28 46 -28q17 0 39 16q21 18 21 24q0 61 20 115l41 108q0 15 -13 42l-28 53l4 7q3 6 3 16l-1 13l-6 18q-3 -4 -14 -24q-19 -34 -29 -54l-31.5 -66t-33.5 -75 q-33 -80 -33 -99zM450 615q0 10 7.5 17.5t32.5 47.5q9 12 16 17q10 5 21 5q29 0 49 -32l22 -38q4 -8 4 -17q0 -19 -23.5 -36t-51.5 -17q-24 0 -50.5 17t-26.5 36z" />
<glyph unicode="&#xf9;" horiz-adv-x="653" d="M319 840q0 -24 25 -45l30 -21l21 -17l36 -36q23 -23 35 -23q8 0 12.5 7.5t6.5 19.5q0 10 -5 21l-5 21q-18 93 -31 115q-9 15 -19 22t-27 9l-13 -1q-22 -3 -43 -21q-14 -13 -22 -39zM4 439l3 64q3 33 11 53q12 46 39 46q8 0 10 -2l11 -2q11 0 29 12q35 23 46 25q9 0 15 -6 q13 -13 13 -30l-3 -19l-5 -38l-3 -35l-8 -59q-4 -31 -4 -57v-24l5 -26l12 -66q11 -33 35 -49q28 -15 53 -15l19 2l20 3q28 4 44 13q16 7 34.5 27.5t25.5 56.5l1 16l5 22l6 40l1 36v29v24l3 29l1 12l1 11l-1 24l-1 23q0 21 5.5 34.5t21.5 19.5l14 3l15 2q13 0 19 -1.5 t19.5 -8t26 -23.5t12.5 -35q0 -17 -5 -32l-17 -59q0 -8 -25 -105q-9 -36 -9 -67v-61l5 -73q2 -16 22 -63l24 -54h-7l-25 26q-3 3 -16 5q-13 0 -22.5 -6t-9.5 -19l4 -36l-16 41q-19 58 -33 61l-18 4q-8 0 -17 -4l-15 -7l-34 -20q-9 -4 -40 -27q-23 -17 -41.5 -21t-27.5 -4.5 t-14 -0.5q-50 0 -103 38q-25 19 -45 53l-27 67q-16 41 -27.5 111t-11.5 122z" />
<glyph unicode="&#xfb;" horiz-adv-x="653" d="M240 753l110 110l90 130l80 -60l50 -65l125 -115l-30 -55l-90 70l-100 65l-120 -60l-75 -55zM4 439l3 64q3 33 11 53q12 46 39 46q8 0 10 -2l11 -2q11 0 29 12q35 23 46 25q9 0 15 -6q13 -13 13 -30l-3 -19l-5 -38l-3 -35l-8 -59q-4 -31 -4 -57v-24l5 -26l12 -66 q11 -33 35 -49q28 -15 53 -15l19 2l20 3q28 4 44 13q16 7 34.5 27.5t25.5 56.5l1 16l5 22l6 40l1 36v29v24l3 29l1 12l1 11l-1 24l-1 23q0 21 5.5 34.5t21.5 19.5l14 3l15 2q13 0 19 -1.5t19.5 -8t26 -23.5t12.5 -35q0 -17 -5 -32l-17 -59q0 -8 -25 -105q-9 -36 -9 -67v-61 l5 -73q2 -16 22 -63l24 -54h-7l-25 26q-3 3 -16 5q-13 0 -22.5 -6t-9.5 -19l4 -36l-16 41q-19 58 -33 61l-18 4q-8 0 -17 -4l-15 -7l-34 -20q-9 -4 -40 -27q-23 -17 -41.5 -21t-27.5 -4.5t-14 -0.5q-50 0 -103 38q-25 19 -45 53l-27 67q-16 41 -27.5 111t-11.5 122z" />
<glyph unicode="&#xfc;" horiz-adv-x="653" d="M-6 760q0 27 21.5 50.5t52.5 23.5q22 0 36 -13q6 -5 38 -61l4 -14q0 -15 -30 -33l-48 -27l-18 -5q-18 0 -38 26q-9 15 -13.5 28t-4.5 25zM4 439l3 64q3 33 11 53q12 46 39 46q8 0 10 -2l11 -2q11 0 29 12q35 23 46 25q9 0 15 -6q13 -13 13 -30l-3 -19l-5 -38l-3 -35 l-8 -59q-4 -31 -4 -57v-24l5 -26l12 -66q11 -33 35 -49q28 -15 53 -15l19 2l20 3q28 4 44 13q16 7 34.5 27.5t25.5 56.5l1 16l5 22l6 40l1 36v29v24l3 29l1 12l1 11l-1 24l-1 23q0 21 5.5 34.5t21.5 19.5l14 3l15 2q13 0 19 -1.5t19.5 -8t26 -23.5t12.5 -35q0 -17 -5 -32 l-17 -59q0 -8 -25 -105q-9 -36 -9 -67v-61l5 -73q2 -16 22 -63l24 -54h-7l-25 26q-3 3 -16 5q-13 0 -22.5 -6t-9.5 -19l4 -36l-16 41q-19 58 -33 61l-18 4q-8 0 -17 -4l-15 -7l-34 -20q-9 -4 -40 -27q-23 -17 -41.5 -21t-27.5 -4.5t-14 -0.5q-50 0 -103 38q-25 19 -45 53 l-27 67q-16 41 -27.5 111t-11.5 122zM418 755q0 10 7.5 17.5t32.5 47.5q9 12 16 17q10 5 21 5q29 0 49 -32l22 -38q4 -8 4 -17q0 -19 -23.5 -36t-51.5 -17q-24 0 -50.5 17t-26.5 36z" />
<glyph unicode="&#x152;" horiz-adv-x="1570" d="M673 723q0 -14 15 -53q9 -21 12 -39l13 -45q9 -28 12 -50l3 -43l-2 -49l-1 -34l-1 -52l-4 -83l-1 -32v-29l1 -29q0 -17 5 -30l12 -47l6 -15q2 -5 7.5 -14t9.5 -14q19 -27 55 -50l25 -12l34 -9l56 -4q31 0 74 13l51 13l68 15l47 9l76 8l92 2h27l55 1l90 4l16 -3l10 3 l-11 5l-3 3l30 -2l43 -1q28 0 41 5l-27 9l-12 1l-17 4l35 6q31 3 37 9l-9 5q-5 0 -10 5.5t-14 8.5l-10 -3l-12 -3q-34 0 -79 15q-93 33 -128 33q-45 0 -101 -9l-64 -11l-110 -20l-61 1l-99 4l-19 -1l-15 -1q-16 0 -26.5 7.5t-15.5 34.5q0 28 -5 36l-16 38q-2 6 -7.5 21 t-5.5 25q0 13 6 33l9 34l5 23q0 18 -4.5 37l-9.5 40t-6 33v75l-1 19v16l3 26q3 13 13 24q14 17 37 21l48 9l46 9l39 6l105 20l115 10l19 5l17 9l43 22l11 2l13 1h12l22 2l26 8l-30 4q-18 0 -20 9l-5 7q6 0 10 7l10 10l19 9q19 8 22 11q-5 2 -48 -16l-35 -15l3 6l6 6l-35 -17 l-22 -11l20 18l22 18q-13 -3 -37 -15q-18 -12 -30 -15l-21 -3l-18 -1l-38 2l-31 2l-24 1q-15 0 -32 4l-49 6l-31 -3q-15 0 -56 -22l-34 -15l-30 -11l-31 -5l-41 -6h-16t-26 -4q12 18 12 31q0 14 -15 28q-15 12 -35 16q-21 3 -40 -12l-14 -16l-13 -22zM730 605l6 -10l5 -10 l4 -11v-40l3 -19q0 11 2 17l6 22q5 14 10 18l-6 -42l-9 -40l6 15q3 11 12 16q6 2 6 -7q0 -11 -7 -29l-4 -10l-1 -7l1 -4l8 19l11 27l7 29l3 41q0 29 -3 43l-5 1l-14 -26l-6 -11q-6 3 -9 9q-1 6 -8 7q-10 10 -18 14v-12zM776 532l7 58q3 -6 3 -26l-1 -21l-6 -23zM910 432 q0 -15 9 -26.5t27 -11.5l39 6q22 3 36 13l54 37l78 33q32 11 82 22l24 2q24 0 69 -6l52 -5q14 0 17 7l-2 5q-3 5 -5 7l-17 13l-23 12q-15 8 -39 12l-32 5l-14 1l-51 -2l-34 -1q-50 0 -86 -11q-45 -11 -129 -59l-33 -13q-10 -3 -17 -17zM1005 78q3 -20 20 -24q10 -2 15 2 l25 16l11 2h9l28 -2l24 -2l41 1l41 1l56 1l18 1l11 3l-15 3l-17 1l-13 1l-27 -1l-29 -1h-12h-11l-13 2l56 9l56 5q-38 0 -39 4l-1 8l-41 4q-17 0 -26.5 -1t-31.5 -6q-62 -12 -64 -14h-10l-21 1l-20 2q-21 0 -20 -16zM1131 92l7 3l10 2l23 8l3 -2l3 -2q-7 -6 -12 -7 q-12 0 -16 -2q-7 0 -11 -2zM1364 779q3 4 5.5 5.5t9.5 4.5l9 10l10 4l8 -6l7 2l10 5l9 2l7 1l-5 -5l-36 -21q-8 -5 -23 -8q-8 0 -11 6zM64 187l84 372q14 30 126 126q120 102 162 102q11 0 43 -23q49 -34 82 -99q44 -88 44 -216q0 -94 -40 -227q-20 -69 -45.5 -124 t-58.5 -101q-74 -106 -152 -106q-76 0 -166 120q-79 109 -79 176zM216 229q0 -45 19 -83q20 -35 57 -35q23 0 49 20.5t27 29.5q0 79 25 144l51 135q0 19 -16 52l-35 67l5 9q3 6 3 19l-1 17q0 7 -7 22q-11 -13 -53.5 -97t-81.5 -177q-42 -99 -42 -123z" />
<glyph unicode="&#x153;" horiz-adv-x="1332" d="M538 578q0 -10 12 -42q3 -7 5.5 -15t4.5 -16l10 -36l10 -40l2 -35l-1 -39l-1 -27l-1 -42l-3 -66l-1 -26v-23l1 -23q0 -13 4 -24l10 -38l4 -12l14 -22q14 -21 44 -40l20 -10l27 -7l45 -3q25 0 59 10l41 11l54 12l38 7l61 6l73 2h22l44 1l72 3l13 -2l8 2l-9 4l-2 2l24 -1 l34 -1q22 0 33 4l-22 7l-9 1l-14 3l28 5q25 3 30 7l-8 4q-6 3 -8 5q-5 5 -11 6l-8 -2l-9 -2q-28 0 -64 12q-75 26 -102 26q-39 0 -81 -7l-51 -9l-88 -16l-49 1l-79 3l-15 -1l-12 -1q-12 0 -20.5 6t-13.5 28q0 22 -4 29l-13 30q-10 25 -10 37q0 9 5 26l7 28l4 18 q0 12 -5.5 34t-7.5 32t-3 22v60l-1 15v13l3 21q2 11 11 21t29 15l38 7l37 7l31 5l84 16l92 8l15 4l14 7l34 18l9 1l10 1h10l18 2l20 6q-6 3 -24 3q-14 0 -16 8l-4 5q5 0 8 6l8 8l16 7q16 7 17 9q-6 -1 -12.5 -3t-25.5 -10l-28 -12l2 5l5 5l-28 -14l-18 -9l16 15l18 14 l-30 -12q-13 -9 -24 -12l-16 -2l-15 -1l-30 1l-25 2l-19 1l-26 3l-39 5l-25 -3q-12 0 -45 -17l-27 -12l-24 -9l-25 -4l-32 -5l-34 -3q10 17 10 25q0 11 -11.5 21.5t-28.5 13.5q-16 3 -32 -10q-3 -2 -12 -12l-10 -18zM584 484l5 -8l4 -8l3 -9v-32l2 -15q0 9 2 14l5 17 q3 10 8 15l-5 -34l-7 -32l5 12q1 8 9 13q3 1 4 0t1 -6q0 -8 -6 -23l-3 -8l-1 -6l1 -3l7 15l8 22l6 23l2 33v16q0 10 -2 18l-4 1l-11 -21l-5 -8q-5 2 -7 7t-7 5q-5 6 -9 8.5t-5 3.5v-10zM621 426l5 46q3 -5 3 -21l-1 -17l-5 -18zM728 346q0 -14 6.5 -21.5t22.5 -9.5l31 5 q18 3 29 10l43 30l62 26q10 4 34.5 10t31.5 8l19 2l55 -5l42 -4q11 0 14 5l-2 4q-2 5 -4 6l-14 10l-18 10q-11 5 -31 10l-26 4h-11l-41 -1l-27 -1q-14 0 -30 -0.5t-39 -8.5q-33 -8 -103 -47l-26 -10q-8 -3 -14 -14zM804 62q3 -15 16 -19q8 -2 12 2l20 13l9 1h7l22 -1l20 -2 l32 1l33 1h45l14 1q4 0 9 3l-12 2l-13 1l-11 1l-21 -1l-24 -1h-9h-9l-10 2l44 7l45 4q-15 0 -20.5 0.5t-10.5 2.5l-1 6l-33 4q-19 0 -46 -6l-51 -11h-8l-17 1l-16 1q-17 0 -16 -13zM905 74l5 2l8 2l19 6l2 -2l3 -1q-6 -5 -10 -6l-13 -1l-9 -2zM1091 623q7 6 12 8l7 8 q3 3 8 3l7 -4l5 1l8 4l8 2l5 1l-4 -4l-29 -17l-18 -7q-6 0 -9 5zM51 150l67 297q13 26 101 101q97 82 130 82q9 0 34 -19q20 -13 36 -32.5t30 -46.5q35 -70 35 -173q0 -40 -7 -81.5t-23.5 -97t-37.5 -101t-47 -81.5q-59 -85 -122 -85q-61 0 -133 96q-63 88 -63 141zM173 183 q0 -34 15 -66q15 -28 46 -28q17 0 39 16q21 18 21 24q0 61 20 115l41 108q0 15 -13 42l-28 53l4 7q3 6 3 16l-1 13l-6 18q-3 -4 -14 -24q-19 -34 -29 -54l-31.5 -66t-33.5 -75q-33 -80 -33 -99z" />
<glyph unicode="&#x2c6;" d="M25 710l110 110l90 130l80 -60l50 -65l125 -115l-30 -55l-90 70l-100 65l-120 -60l-75 -55z" />
<glyph unicode="&#x2000;" horiz-adv-x="589" />
<glyph unicode="&#x2001;" horiz-adv-x="1178" />
<glyph unicode="&#x2002;" horiz-adv-x="589" />
<glyph unicode="&#x2003;" horiz-adv-x="1178" />
<glyph unicode="&#x2004;" horiz-adv-x="392" />
<glyph unicode="&#x2005;" horiz-adv-x="294" />
<glyph unicode="&#x2006;" horiz-adv-x="196" />
<glyph unicode="&#x2007;" horiz-adv-x="196" />
<glyph unicode="&#x2008;" horiz-adv-x="147" />
<glyph unicode="&#x2009;" horiz-adv-x="235" />
<glyph unicode="&#x200a;" horiz-adv-x="65" />
<glyph unicode="&#x2010;" d="M16 427q0 -17 4 -32q6 -23 20 -32.5t37 -9.5q26 0 90 16t88 16l41 -1q14 0 46 -7l83 -7l57 -1l114 -5q74 0 74 14q0 9 -25 22l10 -3l42 -14l-7 10l45 -8l43 -3q21 0 21 6l-3 4q-2 4 -11 8l-53 6h-14h-10q-6 2 -12.5 3t-11.5 4l14 4l31 5q-12 0 -23 8l-21 15q-17 9 -20 14 q3 2 7 4t15 4l42 6l-13 3l-6 4l39 6q18 3 21 9q3 8 -9 14l-38 4h-22h-12l-6 3l4 4l10 7l-23 -2l-44 -9l-56 -9l-3 1q4 4 29 12q7 2 10 5l-122 -13l-120 -11l12 4q71 15 74 25l-5 2l-17 5l-57 2l-91 -2l-69 -2l-46 3l-44 3q-25 0 -41 -6.5t-34 -24.5q-34 -40 -34 -83z" />
<glyph unicode="&#x2011;" d="M16 427q0 -17 4 -32q6 -23 20 -32.5t37 -9.5q26 0 90 16t88 16l41 -1q14 0 46 -7l83 -7l57 -1l114 -5q74 0 74 14q0 9 -25 22l10 -3l42 -14l-7 10l45 -8l43 -3q21 0 21 6l-3 4q-2 4 -11 8l-53 6h-14h-10q-6 2 -12.5 3t-11.5 4l14 4l31 5q-12 0 -23 8l-21 15q-17 9 -20 14 q3 2 7 4t15 4l42 6l-13 3l-6 4l39 6q18 3 21 9q3 8 -9 14l-38 4h-22h-12l-6 3l4 4l10 7l-23 -2l-44 -9l-56 -9l-3 1q4 4 29 12q7 2 10 5l-122 -13l-120 -11l12 4q71 15 74 25l-5 2l-17 5l-57 2l-91 -2l-69 -2l-46 3l-44 3q-25 0 -41 -6.5t-34 -24.5q-34 -40 -34 -83z" />
<glyph unicode="&#x2013;" horiz-adv-x="500" d="M16 353v188h283v-188h-283z" />
<glyph unicode="&#x2014;" d="M16 353v188h783v-188h-783z" />
<glyph unicode="&#x2018;" horiz-adv-x="180" d="M-1 788q0 -24 25 -45l30 -21l21 -17l36 -36q23 -23 35 -23q8 0 12.5 7.5t6.5 19.5q0 10 -5 21l-5 21q-18 93 -31 115q-9 15 -19 22t-27 9l-13 -1q-22 -3 -43 -21q-14 -13 -22 -39z" />
<glyph unicode="&#x2019;" horiz-adv-x="260" d="M16 605q0 -9 20 -9l21 1q6 0 9.5 1l25 7t43.5 15q47 18 75 70q15 26 24.5 49.5t9.5 39.5q0 23 -12.5 40.5t-32.5 24.5t-38 7q-17 0 -41 -6q-16 -3 -25 -18q-7 -16 -7 -33l4 -48l5 -44q0 -28 -5 -37q-3 -9 -17 -20q-5 -5 -25.5 -11.5t-28.5 -15.5z" />
<glyph unicode="&#x201c;" horiz-adv-x="500" d="M-3 568l13 -3q52 8 69 16l41 29q21 15 39 36q14 15 31 44l37 53q8 13 11 33l-3 19q-9 29 -25 43.5t-32 14.5q-18 0 -35 -16q-10 -10 -23 -42l-11 -63q-6 -33 -19 -62q-6 -14 -37 -44l-42 -42zM244 585l1 10q5 21 21 39l35 40l16 23q5 10 5 49q0 40 23 59q35 27 73 27 q34 0 52 -27q5 -8 8 -26q0 -15 -13 -38l-25 -41q-24 -42 -85 -88t-94 -46q-17 0 -17 19z" />
<glyph unicode="&#x201d;" horiz-adv-x="500" d="M-3 568l13 -3q52 8 69 16l41 29q21 15 39 36q14 15 31 44l37 53q8 13 11 33l-3 19q-9 29 -25 43.5t-32 14.5q-18 0 -35 -16q-10 -10 -23 -42l-11 -63q-6 -33 -19 -62q-6 -14 -37 -44l-42 -42zM244 585l1 10q5 21 21 39l35 40l16 23q5 10 5 49q0 40 23 59q35 27 73 27 q34 0 52 -27q5 -8 8 -26q0 -15 -13 -38l-25 -41q-24 -42 -85 -88t-94 -46q-17 0 -17 19z" />
<glyph unicode="&#x2026;" horiz-adv-x="870" d="M611 81q0 18 7 32t25.5 26t39.5 12q17 0 31 -7q37 -19 37 -66q0 -20 -5 -30q-15 -39 -26 -53q-9 -15 -21 -15q-9 0 -23 14q-18 18 -26 22q-16 9 -29 26q-10 22 -10 39zM321 81q0 18 7 32t25.5 26t39.5 12q17 0 31 -7q37 -19 37 -66q0 -20 -5 -30q-15 -39 -26 -53 q-9 -15 -21 -15q-9 0 -23 14q-18 18 -26 22q-16 9 -29 26q-10 22 -10 39zM31 81q0 18 7 32t25.5 26t39.5 12q17 0 31 -7q37 -19 37 -66q0 -20 -5 -30q-15 -39 -26 -53q-9 -15 -21 -15q-9 0 -23 14q-18 18 -26 22q-16 9 -29 26q-10 22 -10 39z" />
<glyph unicode="&#x202f;" horiz-adv-x="235" />
<glyph unicode="&#x2039;" horiz-adv-x="460" d="M24 421l60 80l65 50l220 190l55 -30l-175 -155l-75 -110l70 -110l170 -180l-35 -40l-225 215z" />
<glyph unicode="&#x203a;" horiz-adv-x="460" d="M60 173l175 155l75 110l-70 110l-170 180l35 40l225 -215l130 -90l-60 -80l-65 -50l-220 -190z" />
<glyph unicode="&#x205f;" horiz-adv-x="294" />
<glyph unicode="&#x2122;" horiz-adv-x="1840" d="M1049 648q0 29 21 47t50 18q38 -6 61 -15q61 -21 61 -50q0 -32 20 -45q18 -10 46 -10l26 1q18 0 25 2q6 -40 63 -89t66 -117q41 18 57.5 105t32.5 111q40 61 149 61q33 0 51 -43q14 -37 14 -79q0 -57 -30 -93q-35 -39 -41 -56l-5 -51l-9 -68l-18 -112q-5 -26 -9 -41 t-11 -32q-22 -34 -39 -63.5t-30 -54.5q-30 -55 -34 -95l-11 -3l-9 -10v20l-26 -26q-16 -9 -29 -26l68 226l15 44.5t15 53.5q15 57 15 109v11q-3 13 -4 19l-3 26l1 31l6 29h-26q-11 0 -31 -30q-24 -45 -33 -54q-6 -8 -16.5 -15.5l-28.5 -19.5q-17 -9 -20 -23q5 -4 8 -13 q0 -11 -11 -32q-7 10 -30 67l-51 127q-2 2 -24 7q-14 0 -34 18l-20 33q-13 21 -45 32l39 -60q8 -14 8 -34l-1 -20v-20v-8q0 -87 -14 -126q-32 -105 -32 -174l-39 9l-32 7q-9 0 -18 -12q-12 -18 -27 -27v19q20 40 27 61l6 21l2 13l-1 15l-1 19v104l-1 46q0 16 -2 24 q-6 3 -17 33l-6 142l-61 84q-23 34 -23 52zM1275 616v32l16 3l8 3l7 -7l20 -28l-25 1q-13 0 -26 -4zM-8 593v16l4 12l10 27q3 11 19 23l29 19q44 32 108 52l123 35q30 9 96 22l62 10l49 10l222 45l125 13l104 8l8 -1l-18 -5l-18 -4l-6 -2h12h20l28 -1q13 0 21 -5l4 -8 q-4 -5 -36 -16q23 0 36 -5l5 -1l-67 -1q-29 0 -32 -4q3 -3 8 -3l-61 -15l5 -4h37l16 4l22 9l27 -6q21 -5 21 -10q0 -7 -105 -7q18 -6 19 -13l-35 -5q-53 -6 -106 -6h-29t-34 -4q-26 -3 -43 -10q-101 -21 -140 -34q-72 -21 -94 -80l-5 -22l-2 -23l2 -33l2 -36l-1 -58l-1 -69 l-1 -80l3 -43q1 -12 4 -32t7 -43l5 -48l2 -53q0 -46 -24 -73q-13 -13 -66 -38l-19 -4q-30 0 -54 25q-27 29 -27 78q0 16 2 30t8 33l42 136q22 75 22 128l-1 36l-6 39l-11 78q-8 39 -37 60q-15 12 -36 12q-13 0 -26 -5t-20 -9t-18 -12q-84 -59 -99 -64l-21 -1 q-19 0 -29.5 9.5t-10.5 26.5z" />
</font>
</defs>
</svg>
