<?xml version="1.0" standalone="no"?>
<!DOCTYPE svg PUBLIC "-//W3C//DTD SVG 1.1//EN" "http://www.w3.org/Graphics/SVG/1.1/DTD/svg11.dtd" >
<svg xmlns="http://www.w3.org/2000/svg">
<metadata>
This is a custom SVG webfont generated by Font Squirrel.
Copyright   : 101  Mama  1993                         By Richard William Mueller
</metadata>
<defs>
<font id="webfont8SEAbsU4" horiz-adv-x="1474" >
<font-face units-per-em="2048" ascent="1638" descent="-410" />
<missing-glyph horiz-adv-x="614" />
<glyph unicode=" "  horiz-adv-x="614" />
<glyph unicode="&#x09;" horiz-adv-x="614" />
<glyph unicode="&#xa0;" horiz-adv-x="614" />
<glyph unicode="!" horiz-adv-x="860" d="M51 139q0 141 39 269q57 180 170 180h332q84 0 137 -152q49 -137 49 -301q0 -102 -137 -125q-39 -6 -260 -6q-178 0 -217 8q-113 25 -113 127zM166 864q0 174 74 453q82 307 161 307h72q74 0 152 -305q70 -279 69 -463q0 -111 -39 -143q-49 -41 -225 -41 q-156 0 -210 41.5t-54 150.5z" />
<glyph unicode="&#x22;" horiz-adv-x="1187" d="M61 1036q0 170 58 363q63 219 143 219h72q74 0 135 -215q53 -195 53 -375q0 -117 -26 -143q-39 -41 -211 -41q-150 0 -191 43q-33 34 -33 149zM627 1036q0 170 57 363q63 219 143 219h72q74 0 135 -215q53 -195 53 -375q0 -117 -26 -143q-39 -41 -211 -41q-150 0 -191 43 q-32 34 -32 149z" />
<glyph unicode="#" horiz-adv-x="1740" d="M43 600q0 78 52 136.5t138 58.5h123q37 98 58 147h-123q-63 0 -86 14q-43 25 -43 103q0 74 54 130t140 56h183q127 297 198 361q39 35 66 34q51 0 51 -106q0 -82 -31 -289h355q123 289 186 352q43 43 78 43q37 0 47 -55q14 -80 -27 -340h45q92 0 152 -65q49 -55 49 -121 q0 -72 -31.5 -94.5t-105.5 -22.5h-162q-4 -25 -13.5 -74t-15.5 -73h103q92 0 149 -68q47 -57 47 -127q0 -76 -27.5 -99.5t-99.5 -23.5h-241q-51 -225 -72 -297q-35 -115 -70 -143q-53 -41 -225 -41q-104 0 -145 18.5t-41 63.5q0 31 24 110q33 106 97 289h-205 q-29 -123 -74 -297q-35 -115 -70 -143q-53 -41 -225 -41q-104 0 -145 18.5t-41 63.5q0 31 24 110q31 98 97 289h-78q-59 0 -80 15q-39 26 -39 108zM741 795h254l30 73q19 49 28 74h-283q-4 -25 -13.5 -73.5t-15.5 -73.5z" />
<glyph unicode="$" horiz-adv-x="1331" d="M92 420q2 375 252 375q82 0 128 -74t97 -74q70 0 90 8q39 14 39 74q0 53 -120 86q-166 45 -222 82q-121 82 -120 256q0 137 86 233q92 104 253 121q16 74 58 119q12 12 37 12q23 0 35 -12q35 -35 55 -127q143 -29 231 -115q94 -96 94 -241q0 -29 -26.5 -60.5t-52.5 -31.5 q-74 0 -109 36q-12 10 -49 76q-27 47 -66 62.5t-80 15.5q-76 0 -75 -49q0 -104 155 -164q221 -84 289 -147q156 -145 156 -455q0 -371 -334 -352q0 -111 -27 -137q-41 -39 -211 -39q-145 0 -188 41q-35 33 -35 139q-147 8 -239 92q-101 92 -101 250z" />
<glyph unicode="%" horiz-adv-x="1720" d="M63 975q0 236 54 414q72 236 209 235h100q131 0 209 -260q61 -199 61 -377q0 -92 -51 -123q-59 -37 -246 -37q-217 0 -243 7q-93 24 -93 141zM319 1274q0 -72 54 -72q57 0 57 70q0 55 -14 108q-18 63 -45 64q-25 0 -39 -64q-13 -49 -13 -106zM408 68q0 37 55 170 q86 209 330 692q289 571 387 672q37 39 73 38q33 0 33 -47q0 -178 -489 -1364q-61 -150 -76 -168q-53 -66 -193 -65q-120 0 -120 72zM985 152q0 236 53 413q72 236 209 236h101q131 0 208 -260q61 -199 62 -377q0 -92 -51 -123q-59 -37 -246 -37q-217 0 -244 6 q-92 25 -92 142zM1241 451q0 -72 53 -72q57 0 58 70q0 55 -15 108q-18 63 -45 64q-25 0 -39 -64q-12 -49 -12 -106z" />
<glyph unicode="&#x26;" horiz-adv-x="1433" d="M66 319q0 319 124 562q29 55 95 100q55 37 55 51q0 12 -23.5 48t-23.5 118q0 221 102 326q100 98 305 100q160 2 277 -90q127 -98 127 -250q0 -43 -32 -73.5t-75 -30.5q-59 0 -125.5 102t-121.5 102q-152 0 -152 -149q0 -92 68 -107l122 -12q68 -20 68 -129 q0 -70 -96 -69h-15h-14q-104 0 -104 -82q0 -70 139 -70q113 0 149 49q8 10 27 88q10 49 66 49h254q43 0 73.5 -40t30.5 -85q0 -80 -35 -114q-20 -20 -65 -31q-35 -8 -35 -27l20 -157q14 -102 15 -172q0 -195 -86 -256q-104 -74 -449 -74q-307 0 -416 14q-147 20 -198 85.5 t-51 223.5z" />
<glyph unicode="'" horiz-adv-x="614" d="M61 1036q0 170 58 363q63 219 143 219h72q74 0 135 -215q53 -195 53 -375q0 -117 -26 -143q-39 -41 -211 -41q-150 0 -191 43q-33 34 -33 149z" />
<glyph unicode="(" horiz-adv-x="819" d="M74 283q0 102 82 497q98 473 202 721q53 86 164 86q80 0 135.5 -45t55.5 -123q0 -57 -64 -84q-88 -37 -121 -82q-63 -90 -63 -301q0 -115 67 -164q4 -2 127 -49q68 -27 68 -92q0 -90 2 -257t2 -298q0 -76 -104 -96q-47 -10 -187 -10q-219 0 -301 77q-65 66 -65 220z" />
<glyph unicode=")" horiz-adv-x="819" d="M84 92q0 131 2 298t2 257q0 66 68 92q123 47 127 49q68 49 67 164q0 211 -63 301q-33 45 -121 82q-63 27 -64 84q0 78 55.5 123t135.5 45q111 0 164 -86q104 -248 202 -721q82 -395 82 -497q0 -154 -65 -220q-82 -78 -301 -77q-139 0 -185 10q-106 20 -106 96z" />
<glyph unicode="*" horiz-adv-x="778" d="M51 1108q0 39 32 66.5t73 33.5q23 4 49 0q35 -4 43 -4q33 0 74 19q-49 25 -82 24q-55 -2 -64 0q-94 16 -94 92q0 25 14 50q27 47 74 47q51 0 90 -47q4 -6 31 -50q14 -29 57 -59q-8 51 -24 84q-29 57 -29 59q-8 23 -8 45q0 96 92 97q90 0 90 -92q0 -25 -8 -50l-29 -59 q-16 -35 -20 -92q45 33 61 59l33 53q39 49 92 50q45 0 72 -48q16 -27 16 -51q0 -41 -38 -65.5t-77 -28.5h-51q-29 -2 -67 -18q33 -14 61 -15q10 0 45 6q27 4 49 0q104 -18 105 -100q0 -27 -15 -51q-31 -53 -82 -53q-53 0 -94 53q-35 47 -41 53q-20 23 -69 58q4 -55 24 -84 q29 -47 33 -56q10 -25 10 -51q0 -43 -26.5 -73.5t-71.5 -30.5q-100 0 -100 98q0 29 13 56.5t29.5 54t24.5 75.5q-43 -33 -62.5 -57.5t-37.5 -50.5q-39 -49 -98 -49q-57 0 -82 51q-17 26 -17 51z" />
<glyph unicode="+" horiz-adv-x="1146" d="M100 729q0 100 66.5 178t173.5 78h63q57 227 129 227h72q63 0 121 -227h86q115 0 186 -88q61 -78 62 -168q0 -98 -43 -131q-35 -29 -127 -29h-101q4 -61 5 -82q0 -117 -27 -143q-39 -41 -211 -41q-150 0 -190 43q-33 35 -33 150q0 45 2 73h-76q-76 0 -106 19 q-52 35 -52 141z" />
<glyph unicode="," horiz-adv-x="860" d="M70 160q0 160 55 274q63 131 172 131q20 0 63 2h68q197 0 250 -96q94 -301 94 -440q0 -309 -272 -310q-115 0 -150 7q-78 16 -78 75q0 47 60 64l109 16q56 8 57 37q0 68 -111 74q-197 12 -207 14q-110 29 -110 152z" />
<glyph unicode="-" horiz-adv-x="1024" d="M100 729q0 100 66.5 178t173.5 78h299q115 0 186 -88q61 -78 62 -168q0 -98 -43 -131q-35 -29 -127 -29h-459q-76 0 -106 19q-52 35 -52 141z" />
<glyph unicode="." horiz-adv-x="860" d="M68 164q0 276 94 360q63 53 252 54q190 0 252 -46q102 -76 102 -339q0 -135 -66 -166q-55 -27 -292 -27q-203 0 -252 16q-90 31 -90 148z" />
<glyph unicode="/" horiz-adv-x="1126" d="M47 57q0 33 53 131q125 231 437 721q381 598 499 693q49 39 80 38q35 0 35 -51q0 -121 -258 -702q-209 -467 -336 -707q-61 -115 -104 -143q-63 -41 -236 -41q-170 0 -170 61z" />
<glyph unicode="0" horiz-adv-x="1433" d="M63 283q0 469 109 827q141 469 418 469q37 0 92 2h109q260 0 419 -520q121 -397 121 -754q0 -186 -102 -248q-119 -70 -492 -69q-55 0 -151.5 -2t-134.5 -2q-205 0 -285 49q-103 64 -103 248zM578 881q0 -70 31.5 -107t74.5 -37q47 0 81 37t34 100q0 111 -31 218 q-37 127 -90 127q-49 0 -78 -125q-22 -100 -22 -213z" />
<glyph unicode="1" horiz-adv-x="921" d="M43 1219q0 145 188 286q162 121 242 121q145 0 242 -631q72 -465 71 -737q0 -147 -49 -195q-66 -63 -282 -63q-176 0 -248 27q-111 41 -109 163q2 145 62 445q57 293 57 416q0 66 -45 90l-84 26q-45 15 -45 52z" />
<glyph unicode="2" horiz-adv-x="1208" d="M53 307q0 311 162 475q74 74 299 179q162 74 162 172q0 47 -25.5 74.5t-64.5 27.5q-59 -2 -125 -100.5t-113 -98.5q-57 0 -90 38t-33 97q0 199 82 297q98 117 328 117q233 0 328.5 -86t95.5 -282q0 -178 -123 -271q-35 -27 -229 -108q-123 -53 -123 -136q0 -41 43 -51 q18 -6 78 -6q74 0 116 43q14 16 53 82q25 43 56 43q94 0 143 -158q43 -129 43 -303q0 -217 -86 -286q-98 -80 -416 -80q-274 0 -374 18q-119 20 -156 90q-31 55 -31 213z" />
<glyph unicode="3" horiz-adv-x="1228" d="M53 338q0 160 53 280q57 137 152 138q49 0 128 -70t134 -68q39 2 78 25q47 27 47 64q0 92 -72 110q-68 4 -137 12.5t-69 79.5q0 135 86 170l162 30q83 15 83 108q0 45 -39 69q-29 20 -65 21q-88 0 -157.5 -112t-151.5 -112q-51 0 -79 42t-28 100q0 178 109.5 273 t302.5 95q203 0 311 -108q102 -100 103 -281q0 -90 -39 -147q-25 -35 -74 -64q-39 -25 -39 -37q0 -2 72 -57q84 -66 131 -154q72 -127 71 -303q0 -279 -82 -362q-98 -98 -438 -98q-223 0 -274 6q-137 16 -201 84q-78 84 -78 266z" />
<glyph unicode="4" horiz-adv-x="1310" d="M59 819q0 113 250 443.5t357 330.5q162 0 206 -147q27 -84 27 -352q0 -70 90 -93l166 -40q90 -43 90 -158q0 -127 -125 -127q-12 0 -35 2h-34q-86 0 -86 -70t20.5 -190.5t20.5 -179.5q0 -178 -70 -219.5t-346 -41.5q-291 0 -291 183q0 68 56.5 192.5t56.5 198.5 q0 66 -93 72q-145 12 -167 22q-93 37 -93 174zM469 1010q0 -47 63 -47q84 0 84 98q0 25 2 74q4 41 3 55q-2 23 -13 22q-37 0 -88 -84.5t-51 -117.5z" />
<glyph unicode="5" horiz-adv-x="1245" d="M57 252q0 459 262 459q102 0 158 -37q6 -4 68 -66q37 -37 92 -37q59 0 57 142q0 59 -30.5 106t-79.5 47q-49 4 -60 -16q-14 -35 -28 -45q-45 -25 -174 -25q-135 0 -136 97q0 147 52 311l92 278q39 106 198 105q225 -2 338 -10q94 -6 127 -35t33 -113q0 -102 -108 -102 q-18 0 -55.5 3t-51.5 3q-66 2 -109 -25q-55 -33 -55 -100q0 -72 47 -98q29 -16 107 -25.5t108 -26.5q283 -158 279 -643q-2 -213 -80 -313q-98 -125 -334 -125q-381 0 -506 35q-211 57 -211 256z" />
<glyph unicode="6" horiz-adv-x="1310" d="M57 473q-6 422 164 748q186 358 479 358q162 0 256 -100q86 -94 95 -250q2 -55 -21 -94q-29 -49 -90 -50q-53 0 -106.5 79t-96.5 79q-55 0 -107 -64.5t-52 -140.5q0 -84 26 -84q8 0 71.5 29t123.5 29q211 0 319 -183q94 -156 88 -387q-6 -227 -86 -329 q-121 -150 -450 -150q-340 0 -486 143q-123 121 -127 367zM588 670q0 -35 31.5 -62.5t74.5 -27.5q35 0 57.5 28.5t22.5 65.5q0 119 -59 119q-51 0 -89 -35t-38 -88z" />
<glyph unicode="7" horiz-adv-x="1085" d="M49 205q0 199 131 401q12 18 246 312q131 166 131 274q0 31 -53 31q141 0 -131 -11q-88 -2 -133 27q-61 37 -62 137q0 76 44 125t126 49q63 0 174 5.5t158 5.5q170 0 244 -52q94 -63 94 -233q0 -74 -101.5 -266.5t-101.5 -329.5q0 -96 10.5 -275.5t10.5 -334.5 q0 -82 -115 -111q-68 -16 -209 -16q-274 0 -365 47q-98 51 -98 215z" />
<glyph unicode="8" horiz-adv-x="1310" d="M59 332q0 229 76 375q47 92 137 161q76 57 76 76q0 25 -33 53q-43 37 -61 70q-33 59 -33 160q0 143 133 239q123 90 285 90q195 0 323 -106.5t128 -275.5q0 -100 -31 -146q-14 -23 -58 -45q-31 -18 -30 -47q0 -20 71 -76q88 -70 136 -162q72 -145 71 -379 q0 -193 -104 -276q-119 -94 -402 -94q-397 0 -534 74q-150 78 -150 309zM553 694q0 -80 102 -80q98 0 95 91q-4 117 -95 116q-102 0 -102 -127zM569 1210q0 -100 84 -100q92 0 92 98q0 47 -23.5 79t-62.5 32q-90 0 -90 -109z" />
<glyph unicode="9" horiz-adv-x="1290" d="M57 375q0 348 189 348q41 0 95 -51t148 -51q96 0 162 30q74 35 74 97q0 39 -47 38q-20 0 -70.5 -9t-70.5 -9q-164 0 -258 82q-106 90 -107 262q0 190 113.5 312t310.5 122q70 0 168 -12q207 -27 321 -338q100 -276 101 -678q0 -287 -119 -414q-141 -152 -502 -151 q-254 0 -381 100.5t-127 321.5zM506 1149q0 -41 30.5 -73t73.5 -32q121 0 121 117q0 123 -106 123q-55 0 -87 -39t-32 -96z" />
<glyph unicode=":" horiz-adv-x="860" d="M68 164q0 276 94 360q63 53 252 54q190 0 252 -46q102 -76 102 -339q0 -135 -66 -166q-55 -27 -292 -27q-203 0 -252 16q-90 31 -90 148zM96 999q0 266 111 349q57 41 211 41q141 0 188 -33q104 -72 105 -328q0 -104 -11 -133q-14 -41 -75 -51q-47 -8 -211 -8 q-195 0 -240 16q-78 28 -78 147z" />
<glyph unicode=";" horiz-adv-x="860" d="M70 160q0 160 55 274q63 131 172 131q20 0 63 2h68q197 0 250 -96q94 -301 94 -440q0 -309 -272 -310q-115 0 -150 7q-78 16 -78 75q0 47 60 64l109 16q56 8 57 37q0 68 -111 74q-197 12 -207 14q-110 29 -110 152zM96 999q0 266 111 349q57 41 211 41q141 0 188 -33 q104 -72 105 -328q0 -104 -11 -133q-14 -41 -75 -51q-47 -8 -211 -8q-195 0 -240 16q-78 28 -78 147z" />
<glyph unicode="=" horiz-adv-x="1146" d="M100 428q0 102 64.5 179t169.5 77h483q115 0 182 -88q59 -76 60 -168q0 -98 -37 -133q-33 -27 -121 -27h-655q-74 0 -101 19q-45 32 -45 141zM156 993q0 100 66.5 178t172.5 78h361q115 0 186 -88q61 -78 62 -168q0 -98 -43 -131q-35 -29 -127 -28h-521q-76 0 -106 18 q-51 35 -51 141z" />
<glyph unicode="?" horiz-adv-x="1099" d="M51 127q0 141 39 268q57 180 170 180h264q84 0 138 -151q49 -137 49 -301q0 -76 -56 -107q-41 -20 -133 -20h-69q-47 2 -72 2q-188 0 -217 6q-113 21 -113 123zM125 1307q6 137 102 217q86 72 215 71h205q178 0 277 -170q88 -152 88 -389q0 -240 -172 -239 q-127 0 -152 -4q-78 -14 -78 -74q0 -84 -104 -84q-16 0 -52 2t-53 2q-145 0 -194 18q-74 27 -74 113q0 125 51 211q61 104 181 104q61 0 108 21q57 25 57 68q0 94 -4 126q-12 76 -55 76q-39 0 -68 -51q-47 -88 -53 -96q-41 -51 -117 -51q-55 0 -86 43q-24 35 -22 86z" />
<glyph unicode="A" horiz-adv-x="1576" d="M70 225q0 86 123 512q147 504 286 740q70 119 271 118q238 0 303 -98q170 -254 301 -692q113 -383 112 -584q0 -154 -112 -201q-66 -29 -236 -28q-158 0 -215 28q-80 41 -80 168q0 47 23.5 138.5t23.5 136.5q0 57 -31.5 96t-70.5 39q-84 0 -84 -152q0 -41 14.5 -123.5 t14.5 -121.5q0 -135 -111 -187q-129 -31 -237 -30q-115 0 -205 34q-90 68 -90 207zM696 1114q0 -106 68 -106q106 0 106 120q0 55 -28.5 98.5t-73.5 43.5q-29 0 -50.5 -50.5t-21.5 -105.5z" />
<glyph unicode="B" horiz-adv-x="1556" d="M70 229q0 59 18 185q20 139 23 184q72 342 100 457q68 252 156 430q53 76 145 104q76 25 209 25q258 0 397 -133q125 -121 125 -314q0 -70 -37 -110q-18 -20 -65 -45q-37 -16 -37 -33l92 -70q106 -80 168 -186q92 -156 92 -365q0 -360 -270 -360l-862 2q-104 0 -179 64.5 t-75 164.5zM664 1208q0 -92 86 -92q96 0 96 113q0 51 -31 92t-78 41q-73 0 -73 -154zM670 721q0 -31 41 -51q33 -18 67 -19q106 0 107 88q0 66 -40 125.5t-87 59.5q-57 0 -78 -68q-10 -41 -10 -135z" />
<glyph unicode="C" horiz-adv-x="1372" d="M61 324q0 203 64 483l115 471q59 156 98 213q80 111 199 111l229 -3q106 0 192 -88t86 -208q0 -145 -94 -156h-4q-38 0 -95 64q-60 69 -99 69q-166 0 -166 -297q0 -98 45 -162q51 -72 139 -71q74 0 119 55l61.5 107.5t85.5 54.5q111 0 170 -193q74 -238 74 -479 q0 -223 -193 -266q-270 -31 -514 -31q-186 0 -346 18q-98 12 -137 99q-29 68 -29 209z" />
<glyph unicode="D" horiz-adv-x="1515" d="M68 291q0 471 274 1190q47 121 256 121q184 0 289.5 -41t171.5 -140q176 -260 260 -481q102 -272 102 -571q0 -113 -85 -214.5t-185 -119.5q-195 -37 -438 -37q-80 0 -226 4q-160 6 -229 6q-96 0 -141 58q-49 65 -49 225zM659 940q0 -182 111 -192q63 0 102 48t39 117 q0 127 -43 242q-49 129 -116 129q-90 0 -90 -219q0 -20 -3 -64v-61z" />
<glyph unicode="E" horiz-adv-x="1495" d="M68 246q0 172 79 545q94 432 213 688q82 117 265 117q9 0 18 -1q104 -2 209.5 -5t155.5 -29q59 -35 59 -119q0 -76 -90 -96l-166 -17q-90 -16 -90 -80q0 -104 108 -104q23 0 84.5 6t96.5 6q41 0 77 -20q49 -27 50 -80q0 -70 -32 -95.5t-114 -25.5q-16 0 -53 2h-51 q-141 0 -142 -102q0 -98 187 -99q31 0 89 3t81 3q147 0 235 -141q80 -131 80 -332q0 -150 -82 -207q-87 -64 -321 -63h-15q-61 1 -149 1t-203 -1q-291 -2 -366 -2q-92 0 -154 78q-59 72 -59 170z" />
<glyph unicode="F" horiz-adv-x="1208" d="M53 227q0 213 86 578q78 334 189 633q37 98 141 135q86 31 254 31q250 0 354 -39q47 -23 47 -105q0 -70 -30.5 -94.5t-96.5 -24.5q-16 0 -61 3.5t-70 3.5q-139 0 -139 -91q0 -57 42 -89.5t110 -32.5q14 0 48 2t50 2q131 0 131 -121q0 -74 -24.5 -98.5t-75.5 -24.5 q-14 0 -53.5 2t-61.5 2q-55 0 -100 -16q-51 -20 -52 -52q0 -119 99.5 -313t99.5 -291q0 -123 -67 -180q-64 -55 -207 -55h-11q-41 0 -133 -2q-102 -4 -147 -4q-193 0 -244 43q-78 63 -78 198z" />
<glyph unicode="G" horiz-adv-x="1413" d="M63 381q0 125 52 391q63 338 157 551q125 279 281 279q262 0 313 -7q74 -8 144 -88q76 -86 75 -196q0 -129 -133 -129q-39 0 -86 69.5t-118 69.5q-63 0 -97 -100q-27 -78 -26 -193q0 -268 149 -268q94 0 117 10q35 14 35 72q0 23 -89 45t-89 84q0 57 53 76q35 12 121 12 q188 0 309 -273q101 -227 100 -483v-20q-2 -150 -63 -213q-72 -74 -251 -74h-9q-94 -2 -228 -2q-201 0 -491 4q-111 4 -172 127q-54 106 -54 256z" />
<glyph unicode="H" horiz-adv-x="1617" d="M72 252q0 373 153 864q160 510 301 510q172 0 172 -133q0 -41 -20.5 -136t-20.5 -140q0 -70 39 -108t95 -38q57 0 100 42t43 116q0 39 -19.5 135t-19.5 139q0 115 115 115q123 0 200 -123q59 -96 115 -313q119 -469 131 -525q68 -299 68 -460q0 -123 -101 -168 q-78 -35 -268 -37h-14q-151 0 -216 44q-69 46 -69 148q0 51 29.5 176t29.5 177q0 123 -124 122q-109 0 -109 -108q0 -51 30.5 -177t30.5 -177q0 -133 -104 -172q-50 -19 -187 -19h-28q-174 2 -242 35q-110 51 -110 211z" />
<glyph unicode="I" horiz-adv-x="942" d="M74 227q0 315 104 768q98 434 191 572q29 41 100 41q63 0 92 -39q90 -125 187 -545q102 -451 102 -805q0 -166 -125 -205q-47 -14 -270 -14q-199 0 -260 23q-121 42 -121 204z" />
<glyph unicode="J" horiz-adv-x="1126" d="M59 455q0 160 27 278q35 162 109 162q61 0 104 -65.5t100 -65.5q80 0 119 219l60 406q47 219 145 219q168 0 254 -525q53 -334 53 -600q0 -188 -24 -282q-41 -150 -158 -183q-94 -27 -285 -26q-152 0 -274 18q-230 35 -230 445z" />
<glyph unicode="K" d="M68 285q18 616 163 1042q33 96 101 178q76 92 139 92q115 0 147.5 -23.5t32.5 -107.5q0 -29 -8 -87t-8 -83q0 -96 96 -96q45 0 117 105l131 194q82 104 151 105q59 0 100.5 -40t41.5 -85q0 -66 -121 -221.5t-121 -241.5q0 -37 98 -195q133 -215 185 -319q98 -201 98 -338 q0 -117 -84 -139q-55 -14 -129 -21q-27 -1 -61 -1t-76 1q-125 2 -137 2q-76 0 -117 62q-33 53 -33 129q0 47 18.5 143t18.5 139q0 72 -43 123q-39 45 -88 45q-82 0 -82 -123q0 -59 58.5 -173.5t58.5 -170.5q0 -180 -223 -180q-170 0 -314 14q-111 25 -111 247q1 12 1 24z " />
<glyph unicode="L" horiz-adv-x="1269" d="M57 283q0 356 129 819q137 492 271 491q188 0 188 -311q0 -53 -6 -155.5t-6 -141.5q0 -154 78 -197q45 -25 192 -24q166 0 234 -184q49 -135 49 -402q0 -84 -88 -131q-76 -39 -178.5 -39t-301 -2t-299.5 -2q-262 0 -262 279z" />
<glyph unicode="M" horiz-adv-x="1945" d="M88 326q0 215 119 579q104 315 231 555q76 143 211 144q137 0 189 -131q6 -14 49 -240q27 -131 100 -131q57 0 86 127q53 238 53 239q47 127 146 129q4 0 9 1q132 0 169 -60q401 -625 401 -1200q0 -201 -61 -268q-72 -80 -291 -80q-137 0 -218 47t-81 123q0 53 46 153.5 t46 182.5q0 70 -49 69q-45 0 -86 -55q-45 -63 -45 -154q0 -100 -46 -163.5t-103 -63.5q-53 0 -89 55q-39 66 -38 185q0 74 -41 131t-82 57t-41 -65q0 -63 47 -167t47 -184q0 -96 -84 -116q-139 -16 -221 -17q-373 1 -373 318z" />
<glyph unicode="N" horiz-adv-x="1536" d="M68 416q0 561 174 991q33 80 92 133q72 63 160 64q98 0 157 -123l84 -230q51 -123 133 -123q72 0 95 123q14 113 30 228q27 123 111 123q154 0 254 -422q80 -340 80 -652q0 -276 -66 -401q-72 -135 -242 -135q-176 0 -256 151q-23 43 -90 283q-41 152 -120 152 q-33 0 -58.5 -17.5t-25.5 -42.5q0 -76 71.5 -196.5t71.5 -182.5q0 -133 -293 -133q-39 0 -104.5 2t-89.5 2q-92 0 -136 146q-32 108 -32 260z" />
<glyph unicode="O" d="M66 252q0 440 200 1055q41 127 145.5 206.5t229.5 79.5q178 0 277 -26q150 -43 198 -156q139 -319 195 -600q53 -260 53 -590q0 -231 -328 -231q-47 0 -223 -4q-71 -1 -127.5 -1t-99.5 1q-276 6 -353 30q-167 52 -167 236zM623 821q0 -35 34.5 -57.5t77.5 -22.5 q37 0 65.5 27t28.5 61q0 389 -118 390q-45 0 -68 -136q-20 -110 -20 -262z" />
<glyph unicode="P" horiz-adv-x="1392" d="M61 238q8 313 78 610q16 63 158 555q55 193 412 192q268 0 430 -188q156 -180 155 -461q0 -127 -53 -233q-59 -88 -201 -111q-45 -6 -233 -6q-25 0 -46.5 -23.5t-21.5 -52.5q0 -66 45 -189.5t45 -191.5q0 -61 -46 -103t-113 -42h-375q-141 0 -195 67q-39 49 -39 156v21z M649 1192q0 -94 29 -113q18 -14 115 -14q33 0 58.5 36t25.5 70q0 59 -41 106.5t-86 47.5q-101 0 -101 -133z" />
<glyph unicode="Q" d="M68 418q0 342 163 862q41 133 125 221q101 107 227 107h5q225 -2 266 -11q147 -23 207 -120q145 -240 231 -572q63 -254 107 -633q2 -17 2 -33q0 -74 -39 -135q-29 -45 -88 -75l-107 -47q6 -16 58 -101q37 -59 37 -104q0 -172 -283 -172q-326 0 -326 176q0 43 29 102 q35 78 43 107q-317 0 -428 20q-141 27 -186 117q-43 80 -43 291zM610 889q0 -63 15 -88q23 -37 92 -37q92 0 92 119q0 121 -23 231q-31 137 -79 137q-97 0 -97 -362z" />
<glyph unicode="R" horiz-adv-x="1638" d="M74 221q0 195 55 539q59 375 143 637q27 82 96.5 141t155.5 66q49 4 262 4q215 0 347.5 -123t132.5 -330q0 -94 -41 -137q-20 -20 -80 -43q-41 -16 -41 -47q0 -10 119 -137q143 -152 223 -287q119 -205 119 -406q0 -106 -289 -106q-164 0 -363 33q-70 27 -71 208 q0 49 7 142.5t7 140.5q0 135 -80 135q-35 0 -63.5 -32.5t-28.5 -81.5q0 -45 36 -194.5t36 -229.5q0 -45 -33 -80q-28 -30 -63 -30q-6 0 -13 1q-302 -4 -302 -5t63 -1q-129 0 -238 20q-96 29 -96 203zM633 1284q12 -100 61 -131q24 -5 43 -5q44 0 56 28q20 23 20 67 q0 45 -16 80q-25 57 -88 57q-12 0 -29 -4q-23 -10 -32 -37.5t-15 -54.5z" />
<glyph unicode="S" horiz-adv-x="1413" d="M63 377q2 416 281 416q90 0 141.5 -82t108.5 -82q76 0 100 10q43 16 43 82q0 59 -133 96q-184 49 -248 90q-133 92 -133 285q0 168 113 278q123 121 334 121q207 0 344 -102q154 -113 153 -309q0 -31 -29.5 -67t-58.5 -36q-80 0 -123 41q-12 12 -53 84q-31 53 -74 70.5 t-88 17.5q-84 0 -84 -55q0 -115 174 -182q244 -94 320 -164q174 -160 174 -504q0 -393 -330 -393q-33 0 -67 4q-57 7 -144 7q-35 0 -73 -1l-228 -8q-178 0 -295 94q-125 105 -125 289z" />
<glyph unicode="T" horiz-adv-x="1372" d="M61 1290q0 98 67 177t165 102q207 13 451 13q146 0 305 -5q117 -4 186 -127q63 -111 63 -258q0 -98 -69 -98q-45 0 -129 31.5t-123 31.5q-25 0 -61.5 -26.5t-36.5 -51.5q0 -115 102 -376t102 -470q0 -205 -155 -221q-197 -20 -281 -20q-160 0 -278 47q-43 16 -58 72 q-6 27 -10 104q-1 14 -1 30q0 121 44 294q29 104 96 307q53 156 54 190q0 123 -121 123q-27 0 -93.5 -39t-95.5 -39q-123 0 -123 209z" />
<glyph unicode="U" horiz-adv-x="1495" d="M68 449q2 322 135 725q135 414 252 413q178 0 178 -162q0 -76 -38 -225t-38 -223q0 -86 53 -137q47 -45 117 -45t120 45t50 123q0 66 -31.5 212t-31.5 220q0 70 28 123q35 63 94 63q156 0 275 -283q90 -211 145 -548q43 -256 43 -375q0 -387 -479 -391q-88 0 -276 14 q-153 11 -238 10h-27h-14q-169 0 -252 139q-66 111 -65 291v11z" />
<glyph unicode="V" horiz-adv-x="1392" d="M63 1503q35 84 121 84q109 0 191 -162l135 -303q86 -162 207 -161q76 0 147 163l123 303q80 164 172 164q117 0 148 -94q14 -45 14 -207t-102 -528q-94 -330 -213 -637q-35 -90 -76 -111q-57 -27 -266 -26q-186 0 -265 84q-47 51 -94 211q-207 706 -242 1220z" />
<glyph unicode="W" horiz-adv-x="1945" d="M88 1094q0 213 68 340q80 156 250 155q86 0 158 -50q67 -46 67 -109v-11q-4 -41 -36 -119.5t-32 -119.5q0 -139 121 -140q66 0 90 142q43 256 45 260q45 141 158 141q129 0 160 -141q12 -129 22 -260q20 -141 117 -142q92 0 92 88q0 43 -30.5 152t-30.5 152q0 57 60 100 t157 43q150 0 239 -123q82 -111 82 -272q0 -440 -110 -756q-158 -451 -498 -451q-117 0 -178 58q-47 44 -48 106q0 43 27 133q23 76 23 123q0 23 -4 43q-33 61 -96 62q-20 0 -39 -9q-41 -43 -41 -124q0 -33 9 -106t9 -105q0 -76 -81 -123t-197 -47q-285 0 -433 483 q-100 326 -100 627z" />
<glyph unicode="X" horiz-adv-x="1617" d="M74 238q0 137 90 299q49 88 170 245q90 119 90 150q0 125 -103.5 295t-103.5 241q0 45 39 85t82 40q109 0 197 -90l135 -168q76 -90 153 -90q51 0 129 88l144 166q90 88 174 88q59 0 101 -47q38 -43 38 -96v-10q-16 -66 -121 -234q-90 -145 -90 -242q0 -61 88 -188 q135 -193 166 -250q88 -164 88 -313q0 -129 -72 -176q-78 -49 -301 -49q-162 0 -230.5 43t-68.5 147q0 49 13.5 149.5t13.5 139.5q0 121 -92 121q-84 0 -84 -103q0 -37 15.5 -142.5t15.5 -164.5q0 -193 -220 -192q-43 0 -138 8t-142 8q-80 0 -131 80q-45 72 -45 162z" />
<glyph unicode="Y" horiz-adv-x="1372" d="M61 1485q0 39 38 67.5t85 28.5q100 0 191 -88l138 -168q71 -86 134 -86q82 0 174 90l156 170q90 90 166 90q59 0 108 -39q53 -45 54 -112q0 -96 -97 -230l-176 -235q-96 -141 -98 -254q0 -68 56.5 -243t56.5 -267q0 -121 -62 -168q-82 -66 -315 -66q-231 0 -314 66 q-63 49 -63 174q0 94 49 267q51 180 51 260q0 103 -84 237l-159 240q-89 143 -89 266z" />
<glyph unicode="Z" horiz-adv-x="1351" d="M59 240q0 193 125 483q53 90 254 244q170 131 170 194q0 143 -123 144q-135 0 -127 -2q-63 12 -63 98v96q6 51 41 64q131 29 305 30q8 0 311 -6q68 -2 124.5 -55t56.5 -133t-111 -224.5t-111 -177.5q0 -96 54 -139q4 -2 112 -53q70 -35 94 -101q96 -268 109 -475 q1 -10 1 -19q0 -118 -97 -167q-84 -43 -260 -43q-612 0 -736 12q-63 6 -98 84q-31 64 -31 146z" />
<glyph unicode="_" horiz-adv-x="1024" d="M-4 -129h1032v-152h-1032v152z" />
<glyph unicode="a" horiz-adv-x="1576" d="M70 225q0 86 123 512q147 504 286 740q70 119 271 118q238 0 303 -98q170 -254 301 -692q113 -383 112 -584q0 -154 -112 -201q-66 -29 -236 -28q-158 0 -215 28q-80 41 -80 168q0 47 23.5 138.5t23.5 136.5q0 57 -31.5 96t-70.5 39q-84 0 -84 -152q0 -41 14.5 -123.5 t14.5 -121.5q0 -135 -111 -187q-129 -31 -237 -30q-115 0 -205 34q-90 68 -90 207zM696 1114q0 -106 68 -106q106 0 106 120q0 55 -28.5 98.5t-73.5 43.5q-29 0 -50.5 -50.5t-21.5 -105.5z" />
<glyph unicode="b" horiz-adv-x="1556" d="M70 229q0 59 18 185q20 139 23 184q72 342 100 457q68 252 156 430q53 76 145 104q76 25 209 25q258 0 397 -133q125 -121 125 -314q0 -70 -37 -110q-18 -20 -65 -45q-37 -16 -37 -33l92 -70q106 -80 168 -186q92 -156 92 -365q0 -360 -270 -360l-862 2q-104 0 -179 64.5 t-75 164.5zM664 1208q0 -92 86 -92q96 0 96 113q0 51 -31 92t-78 41q-73 0 -73 -154zM670 721q0 -31 41 -51q33 -18 67 -19q106 0 107 88q0 66 -40 125.5t-87 59.5q-57 0 -78 -68q-10 -41 -10 -135z" />
<glyph unicode="c" horiz-adv-x="1372" d="M61 324q0 203 64 483l115 471q59 156 98 213q80 111 199 111l229 -3q106 0 192 -88t86 -208q0 -145 -94 -156h-4q-38 0 -95 64q-60 69 -99 69q-166 0 -166 -297q0 -98 45 -162q51 -72 139 -71q74 0 119 55l61.5 107.5t85.5 54.5q111 0 170 -193q74 -238 74 -479 q0 -223 -193 -266q-270 -31 -514 -31q-186 0 -346 18q-98 12 -137 99q-29 68 -29 209z" />
<glyph unicode="d" horiz-adv-x="1515" d="M68 291q0 471 274 1190q47 121 256 121q184 0 289.5 -41t171.5 -140q176 -260 260 -481q102 -272 102 -571q0 -113 -85 -214.5t-185 -119.5q-195 -37 -438 -37q-80 0 -226 4q-160 6 -229 6q-96 0 -141 58q-49 65 -49 225zM659 940q0 -182 111 -192q63 0 102 48t39 117 q0 127 -43 242q-49 129 -116 129q-90 0 -90 -219q0 -20 -3 -64v-61z" />
<glyph unicode="e" horiz-adv-x="1495" d="M68 246q0 172 79 545q94 432 213 688q82 117 265 117q9 0 18 -1q104 -2 209.5 -5t155.5 -29q59 -35 59 -119q0 -76 -90 -96l-166 -17q-90 -16 -90 -80q0 -104 108 -104q23 0 84.5 6t96.5 6q41 0 77 -20q49 -27 50 -80q0 -70 -32 -95.5t-114 -25.5q-16 0 -53 2h-51 q-141 0 -142 -102q0 -98 187 -99q31 0 89 3t81 3q147 0 235 -141q80 -131 80 -332q0 -150 -82 -207q-87 -64 -321 -63h-15q-61 1 -149 1t-203 -1q-291 -2 -366 -2q-92 0 -154 78q-59 72 -59 170z" />
<glyph unicode="f" horiz-adv-x="1208" d="M53 227q0 213 86 578q78 334 189 633q37 98 141 135q86 31 254 31q250 0 354 -39q47 -23 47 -105q0 -70 -30.5 -94.5t-96.5 -24.5q-16 0 -61 3.5t-70 3.5q-139 0 -139 -91q0 -57 42 -89.5t110 -32.5q14 0 48 2t50 2q131 0 131 -121q0 -74 -24.5 -98.5t-75.5 -24.5 q-14 0 -53.5 2t-61.5 2q-55 0 -100 -16q-51 -20 -52 -52q0 -119 99.5 -313t99.5 -291q0 -123 -67 -180q-64 -55 -207 -55h-11q-41 0 -133 -2q-102 -4 -147 -4q-193 0 -244 43q-78 63 -78 198z" />
<glyph unicode="g" horiz-adv-x="1413" d="M63 381q0 125 52 391q63 338 157 551q125 279 281 279q262 0 313 -7q74 -8 144 -88q76 -86 75 -196q0 -129 -133 -129q-39 0 -86 69.5t-118 69.5q-63 0 -97 -100q-27 -78 -26 -193q0 -268 149 -268q94 0 117 10q35 14 35 72q0 23 -89 45t-89 84q0 57 53 76q35 12 121 12 q188 0 309 -273q101 -227 100 -483v-20q-2 -150 -63 -213q-72 -74 -251 -74h-9q-94 -2 -228 -2q-201 0 -491 4q-111 4 -172 127q-54 106 -54 256z" />
<glyph unicode="h" horiz-adv-x="1617" d="M72 252q0 373 153 864q160 510 301 510q172 0 172 -133q0 -41 -20.5 -136t-20.5 -140q0 -70 39 -108t95 -38q57 0 100 42t43 116q0 39 -19.5 135t-19.5 139q0 115 115 115q123 0 200 -123q59 -96 115 -313q119 -469 131 -525q68 -299 68 -460q0 -123 -101 -168 q-78 -35 -268 -37h-14q-151 0 -216 44q-69 46 -69 148q0 51 29.5 176t29.5 177q0 123 -124 122q-109 0 -109 -108q0 -51 30.5 -177t30.5 -177q0 -133 -104 -172q-50 -19 -187 -19h-28q-174 2 -242 35q-110 51 -110 211z" />
<glyph unicode="i" horiz-adv-x="942" d="M74 227q0 315 104 768q98 434 191 572q29 41 100 41q63 0 92 -39q90 -125 187 -545q102 -451 102 -805q0 -166 -125 -205q-47 -14 -270 -14q-199 0 -260 23q-121 42 -121 204z" />
<glyph unicode="j" horiz-adv-x="1126" d="M59 455q0 160 27 278q35 162 109 162q61 0 104 -65.5t100 -65.5q80 0 119 219l60 406q47 219 145 219q168 0 254 -525q53 -334 53 -600q0 -188 -24 -282q-41 -150 -158 -183q-94 -27 -285 -26q-152 0 -274 18q-230 35 -230 445z" />
<glyph unicode="k" d="M68 285q18 616 163 1042q33 96 101 178q76 92 139 92q115 0 147.5 -23.5t32.5 -107.5q0 -29 -8 -87t-8 -83q0 -96 96 -96q45 0 117 105l131 194q82 104 151 105q59 0 100.5 -40t41.5 -85q0 -66 -121 -221.5t-121 -241.5q0 -37 98 -195q133 -215 185 -319q98 -201 98 -338 q0 -117 -84 -139q-55 -14 -129 -21q-27 -1 -61 -1t-76 1q-125 2 -137 2q-76 0 -117 62q-33 53 -33 129q0 47 18.5 143t18.5 139q0 72 -43 123q-39 45 -88 45q-82 0 -82 -123q0 -59 58.5 -173.5t58.5 -170.5q0 -180 -223 -180q-170 0 -314 14q-111 25 -111 247q1 12 1 24z " />
<glyph unicode="l" horiz-adv-x="1269" d="M57 283q0 356 129 819q137 492 271 491q188 0 188 -311q0 -53 -6 -155.5t-6 -141.5q0 -154 78 -197q45 -25 192 -24q166 0 234 -184q49 -135 49 -402q0 -84 -88 -131q-76 -39 -178.5 -39t-301 -2t-299.5 -2q-262 0 -262 279z" />
<glyph unicode="m" horiz-adv-x="1945" d="M88 326q0 215 119 579q104 315 231 555q76 143 211 144q137 0 189 -131q6 -14 49 -240q27 -131 100 -131q57 0 86 127q53 238 53 239q47 127 146 129q4 0 9 1q132 0 169 -60q401 -625 401 -1200q0 -201 -61 -268q-72 -80 -291 -80q-137 0 -218 47t-81 123q0 53 46 153.5 t46 182.5q0 70 -49 69q-45 0 -86 -55q-45 -63 -45 -154q0 -100 -46 -163.5t-103 -63.5q-53 0 -89 55q-39 66 -38 185q0 74 -41 131t-82 57t-41 -65q0 -63 47 -167t47 -184q0 -96 -84 -116q-139 -16 -221 -17q-373 1 -373 318z" />
<glyph unicode="n" horiz-adv-x="1536" d="M68 416q0 561 174 991q33 80 92 133q72 63 160 64q98 0 157 -123l84 -230q51 -123 133 -123q72 0 95 123q14 113 30 228q27 123 111 123q154 0 254 -422q80 -340 80 -652q0 -276 -66 -401q-72 -135 -242 -135q-176 0 -256 151q-23 43 -90 283q-41 152 -120 152 q-33 0 -58.5 -17.5t-25.5 -42.5q0 -76 71.5 -196.5t71.5 -182.5q0 -133 -293 -133q-39 0 -104.5 2t-89.5 2q-92 0 -136 146q-32 108 -32 260z" />
<glyph unicode="o" d="M66 252q0 440 200 1055q41 127 145.5 206.5t229.5 79.5q178 0 277 -26q150 -43 198 -156q139 -319 195 -600q53 -260 53 -590q0 -231 -328 -231q-47 0 -223 -4q-71 -1 -127.5 -1t-99.5 1q-276 6 -353 30q-167 52 -167 236zM623 821q0 -35 34.5 -57.5t77.5 -22.5 q37 0 65.5 27t28.5 61q0 389 -118 390q-45 0 -68 -136q-20 -110 -20 -262z" />
<glyph unicode="p" horiz-adv-x="1392" d="M61 238q8 313 78 610q16 63 158 555q55 193 412 192q268 0 430 -188q156 -180 155 -461q0 -127 -53 -233q-59 -88 -201 -111q-45 -6 -233 -6q-25 0 -46.5 -23.5t-21.5 -52.5q0 -66 45 -189.5t45 -191.5q0 -61 -46 -103t-113 -42h-375q-141 0 -195 67q-39 49 -39 156v21z M649 1192q0 -94 29 -113q18 -14 115 -14q33 0 58.5 36t25.5 70q0 59 -41 106.5t-86 47.5q-101 0 -101 -133z" />
<glyph unicode="q" d="M68 418q0 342 163 862q41 133 125 221q101 107 227 107h5q225 -2 266 -11q147 -23 207 -120q145 -240 231 -572q63 -254 107 -633q2 -17 2 -33q0 -74 -39 -135q-29 -45 -88 -75l-107 -47q6 -16 58 -101q37 -59 37 -104q0 -172 -283 -172q-326 0 -326 176q0 43 29 102 q35 78 43 107q-317 0 -428 20q-141 27 -186 117q-43 80 -43 291zM610 889q0 -63 15 -88q23 -37 92 -37q92 0 92 119q0 121 -23 231q-31 137 -79 137q-97 0 -97 -362z" />
<glyph unicode="r" horiz-adv-x="1638" d="M74 221q0 195 55 539q59 375 143 637q27 82 96.5 141t155.5 66q49 4 262 4q215 0 347.5 -123t132.5 -330q0 -94 -41 -137q-20 -20 -80 -43q-41 -16 -41 -47q0 -10 119 -137q143 -152 223 -287q119 -205 119 -406q0 -106 -289 -106q-164 0 -363 33q-70 27 -71 208 q0 49 7 142.5t7 140.5q0 135 -80 135q-35 0 -63.5 -32.5t-28.5 -81.5q0 -45 36 -194.5t36 -229.5q0 -45 -33 -80q-28 -30 -63 -30q-6 0 -13 1q-302 -4 -302 -5t63 -1q-129 0 -238 20q-96 29 -96 203zM633 1284q12 -100 61 -131q24 -5 43 -5q44 0 56 28q20 23 20 67 q0 45 -16 80q-25 57 -88 57q-12 0 -29 -4q-23 -10 -32 -37.5t-15 -54.5z" />
<glyph unicode="s" horiz-adv-x="1413" d="M63 377q2 416 281 416q90 0 141.5 -82t108.5 -82q76 0 100 10q43 16 43 82q0 59 -133 96q-184 49 -248 90q-133 92 -133 285q0 168 113 278q123 121 334 121q207 0 344 -102q154 -113 153 -309q0 -31 -29.5 -67t-58.5 -36q-80 0 -123 41q-12 12 -53 84q-31 53 -74 70.5 t-88 17.5q-84 0 -84 -55q0 -115 174 -182q244 -94 320 -164q174 -160 174 -504q0 -393 -330 -393q-33 0 -67 4q-57 7 -144 7q-35 0 -73 -1l-228 -8q-178 0 -295 94q-125 105 -125 289z" />
<glyph unicode="t" horiz-adv-x="1372" d="M61 1290q0 98 67 177t165 102q207 13 451 13q146 0 305 -5q117 -4 186 -127q63 -111 63 -258q0 -98 -69 -98q-45 0 -129 31.5t-123 31.5q-25 0 -61.5 -26.5t-36.5 -51.5q0 -115 102 -376t102 -470q0 -205 -155 -221q-197 -20 -281 -20q-160 0 -278 47q-43 16 -58 72 q-6 27 -10 104q-1 14 -1 30q0 121 44 294q29 104 96 307q53 156 54 190q0 123 -121 123q-27 0 -93.5 -39t-95.5 -39q-123 0 -123 209z" />
<glyph unicode="u" horiz-adv-x="1495" d="M68 449q2 322 135 725q135 414 252 413q178 0 178 -162q0 -76 -38 -225t-38 -223q0 -86 53 -137q47 -45 117 -45t120 45t50 123q0 66 -31.5 212t-31.5 220q0 70 28 123q35 63 94 63q156 0 275 -283q90 -211 145 -548q43 -256 43 -375q0 -387 -479 -391q-88 0 -276 14 q-153 11 -238 10h-27h-14q-169 0 -252 139q-66 111 -65 291v11z" />
<glyph unicode="v" horiz-adv-x="1392" d="M63 1503q35 84 121 84q109 0 191 -162l135 -303q86 -162 207 -161q76 0 147 163l123 303q80 164 172 164q117 0 148 -94q14 -45 14 -207t-102 -528q-94 -330 -213 -637q-35 -90 -76 -111q-57 -27 -266 -26q-186 0 -265 84q-47 51 -94 211q-207 706 -242 1220z" />
<glyph unicode="w" horiz-adv-x="1945" d="M88 1094q0 213 68 340q80 156 250 155q86 0 158 -50q67 -46 67 -109v-11q-4 -41 -36 -119.5t-32 -119.5q0 -139 121 -140q66 0 90 142q43 256 45 260q45 141 158 141q129 0 160 -141q12 -129 22 -260q20 -141 117 -142q92 0 92 88q0 43 -30.5 152t-30.5 152q0 57 60 100 t157 43q150 0 239 -123q82 -111 82 -272q0 -440 -110 -756q-158 -451 -498 -451q-117 0 -178 58q-47 44 -48 106q0 43 27 133q23 76 23 123q0 23 -4 43q-33 61 -96 62q-20 0 -39 -9q-41 -43 -41 -124q0 -33 9 -106t9 -105q0 -76 -81 -123t-197 -47q-285 0 -433 483 q-100 326 -100 627z" />
<glyph unicode="x" horiz-adv-x="1617" d="M74 238q0 137 90 299q49 88 170 245q90 119 90 150q0 125 -103.5 295t-103.5 241q0 45 39 85t82 40q109 0 197 -90l135 -168q76 -90 153 -90q51 0 129 88l144 166q90 88 174 88q59 0 101 -47q38 -43 38 -96v-10q-16 -66 -121 -234q-90 -145 -90 -242q0 -61 88 -188 q135 -193 166 -250q88 -164 88 -313q0 -129 -72 -176q-78 -49 -301 -49q-162 0 -230.5 43t-68.5 147q0 49 13.5 149.5t13.5 139.5q0 121 -92 121q-84 0 -84 -103q0 -37 15.5 -142.5t15.5 -164.5q0 -193 -220 -192q-43 0 -138 8t-142 8q-80 0 -131 80q-45 72 -45 162z" />
<glyph unicode="y" horiz-adv-x="1372" d="M61 1485q0 39 38 67.5t85 28.5q100 0 191 -88l138 -168q71 -86 134 -86q82 0 174 90l156 170q90 90 166 90q59 0 108 -39q53 -45 54 -112q0 -96 -97 -230l-176 -235q-96 -141 -98 -254q0 -68 56.5 -243t56.5 -267q0 -121 -62 -168q-82 -66 -315 -66q-231 0 -314 66 q-63 49 -63 174q0 94 49 267q51 180 51 260q0 103 -84 237l-159 240q-89 143 -89 266z" />
<glyph unicode="z" horiz-adv-x="1351" d="M59 240q0 193 125 483q53 90 254 244q170 131 170 194q0 143 -123 144q-135 0 -127 -2q-63 12 -63 98v96q6 51 41 64q131 29 305 30q8 0 311 -6q68 -2 124.5 -55t56.5 -133t-111 -224.5t-111 -177.5q0 -96 54 -139q4 -2 112 -53q70 -35 94 -101q96 -268 109 -475 q1 -10 1 -19q0 -118 -97 -167q-84 -43 -260 -43q-612 0 -736 12q-63 6 -98 84q-31 64 -31 146z" />
<glyph unicode="|" horiz-adv-x="860" d="M209 -33q0 270 43 813q55 700 131 822q23 37 59 36q39 0 62 -32q76 -104 127 -811q39 -528 39 -836q0 -117 -27 -143q-39 -41 -211 -41q-150 0 -190 43q-33 34 -33 149z" />
<glyph unicode="&#xa2;" horiz-adv-x="1146" d="M86 487q0 166 51 392l92 383q51 129 80 172q63 88 162 90h14q16 70 50 102q12 12 32 10q20 0 33 -10q27 -23 45 -104h10q86 0 156 -72t70 -170q0 -115 -76 -125q-33 -4 -82 51.5t-80 55.5q-133 0 -133 -240q0 -80 38 -135.5t109 -55.5q76 0 122 89.5t95 89.5 q88 0 138 -158q59 -190 59 -387q0 -86 -42 -143.5t-114 -71.5q-20 -4 -147 -14v-80q0 -106 -23 -129q-37 -37 -190 -37q-135 0 -172 39q-29 29 -29 133q0 33 2 65l-137 13q-80 10 -108 79q-25 53 -25 168z" />
<glyph unicode="&#xa3;" horiz-adv-x="1249" d="M18 858q0 82 53.5 143.5t139.5 61.5h74q84 240 174 391q98 164 170 164q123 0 123 -133q0 -68 -35 -205q-47 -178 -53 -217h129q92 0 149 -72q49 -59 49 -133q0 -78 -31.5 -102.5t-103.5 -24.5h-147q76 -164 206 -164q180 0 246 -92q61 -84 62 -309q0 -84 -88 -131 q-76 -39 -177 -39q-104 0 -290.5 4t-286.5 4q-262 0 -262 279q0 182 65 448h-39q-61 0 -84 14q-43 27 -43 113z" />
<glyph unicode="&#xa5;" horiz-adv-x="1372" d="M61 1485q0 39 38 67.5t85 28.5q100 0 191 -88l138 -168q71 -86 134 -86q82 0 174 90l156 170q90 90 166 90q59 0 108 -39q53 -45 54 -112q0 -109 -131 -281q-172 -225 -203 -291h18q92 0 150 -71q49 -59 49 -133q0 -78 -32 -102.5t-103 -24.5h-80q74 -236 74 -326 q0 -121 -62 -168q-82 -66 -315 -66q-231 0 -314 66q-63 49 -63 174q0 80 65 320h-102q-61 0 -84 14q-43 27 -43 113q0 82 53.5 143t139.5 61h47q-29 74 -113 195q-102 145 -131 201q-64 119 -64 223z" />
<glyph unicode="&#xa6;" horiz-adv-x="1024" d="M51 162v921h922v-921h-922zM133 244h760v760h-760v-760z" />
<glyph unicode="&#xa9;" horiz-adv-x="1576" d="M119 844q-4 281 192.5 483.5t476.5 204.5q281 2 483 -197.5t206 -478.5q4 -283 -193 -483.5t-475 -202.5q-283 -4 -484.5 194.5t-205.5 479.5zM215 844q2 -238 175 -406t415 -168q238 0 406.5 172t166.5 414q-2 238 -176 407t-414 167q-236 -2 -405.5 -175t-167.5 -411z M487 635q0 102 33 242l58 235q59 164 147 162h115q53 0 96 -44t43 -106q0 -74 -47 -77q-20 -2 -50 32.5t-48 34.5q-84 0 -84 -149q0 -117 92 -117q47 0 74.5 54t58.5 54q55 0 86 -96q37 -119 37 -239q0 -109 -97 -134q-244 -29 -430 -6q-84 11 -84 154z" />
<glyph unicode="&#xaa;" horiz-adv-x="1576" d="M70 225q0 86 123 512q147 504 286 740q70 119 271 118q238 0 303 -98q170 -254 301 -692q113 -383 112 -584q0 -154 -112 -201q-66 -29 -236 -28q-158 0 -215 28q-80 41 -80 168q0 47 23.5 138.5t23.5 136.5q0 57 -31.5 96t-70.5 39q-84 0 -84 -152q0 -41 14.5 -123.5 t14.5 -121.5q0 -135 -111 -187q-129 -31 -237 -30q-115 0 -205 34q-90 68 -90 207zM696 1114q0 -106 68 -106q106 0 106 120q0 55 -28.5 98.5t-73.5 43.5q-29 0 -50.5 -50.5t-21.5 -105.5z" />
<glyph unicode="&#xad;" horiz-adv-x="1024" d="M100 729q0 100 66.5 178t173.5 78h299q115 0 186 -88q61 -78 62 -168q0 -98 -43 -131q-35 -29 -127 -29h-459q-76 0 -106 19q-52 35 -52 141z" />
<glyph unicode="&#xae;" horiz-adv-x="1576" d="M119 844q-4 281 192.5 483.5t476.5 204.5q281 2 483 -197.5t206 -478.5q4 -283 -193 -483.5t-475 -202.5q-283 -4 -484.5 194.5t-205.5 479.5zM215 844q2 -238 175 -406t415 -168q238 0 406.5 172t166.5 414q-2 238 -176 407t-414 167q-236 -2 -405.5 -175t-167.5 -411z M434 596q0 96 29 268q31 188 72 320q31 96 124 104q25 2 132 2q109 0 174 -61.5t65 -165.5q0 -63 -40 -81.5t-40 -31.5q0 -6 60 -69q72 -76 110 -144q59 -102 60 -202q0 -53 -146 -54q-82 0 -180 17q-35 12 -35 104q0 25 3 71t3 70q0 68 -39 68q-47 0 -47 -57 q0 -23 18.5 -97.5t18.5 -113.5q0 -25 -16.5 -41.5t-38 -15.5t-82.5 -1q-47 -2 -76 0q-41 2 -80 11q-49 10 -49 100zM715 1128q4 -51 30 -65q39 -10 50 10q23 25 2 74q-14 37 -60 27q-12 -7 -22 -46z" />
<glyph unicode="&#xb0;" horiz-adv-x="512" d="M33 1421q0 94 57 152.5t148 58.5q90 0 154.5 -66.5t64.5 -158.5q0 -82 -60.5 -140.5t-146.5 -58.5q-90 0 -153.5 62.5t-63.5 150.5zM150 1419q0 -45 27.5 -73.5t72.5 -28.5q41 0 67.5 27.5t26.5 68.5q0 106 -98 107q-96 -1 -96 -101z" />
<glyph unicode="&#xb2;" horiz-adv-x="1208" d="M53 307q0 311 162 475q74 74 299 179q162 74 162 172q0 47 -25.5 74.5t-64.5 27.5q-59 -2 -125 -100.5t-113 -98.5q-57 0 -90 38t-33 97q0 199 82 297q98 117 328 117q233 0 328.5 -86t95.5 -282q0 -178 -123 -271q-35 -27 -229 -108q-123 -53 -123 -136q0 -41 43 -51 q18 -6 78 -6q74 0 116 43q14 16 53 82q25 43 56 43q94 0 143 -158q43 -129 43 -303q0 -217 -86 -286q-98 -80 -416 -80q-274 0 -374 18q-119 20 -156 90q-31 55 -31 213z" />
<glyph unicode="&#xb3;" horiz-adv-x="1228" d="M53 338q0 160 53 280q57 137 152 138q49 0 128 -70t134 -68q39 2 78 25q47 27 47 64q0 92 -72 110q-68 4 -137 12.5t-69 79.5q0 135 86 170l162 30q83 15 83 108q0 45 -39 69q-29 20 -65 21q-88 0 -157.5 -112t-151.5 -112q-51 0 -79 42t-28 100q0 178 109.5 273 t302.5 95q203 0 311 -108q102 -100 103 -281q0 -90 -39 -147q-25 -35 -74 -64q-39 -25 -39 -37q0 -2 72 -57q84 -66 131 -154q72 -127 71 -303q0 -279 -82 -362q-98 -98 -438 -98q-223 0 -274 6q-137 16 -201 84q-78 84 -78 266z" />
<glyph unicode="&#xb9;" horiz-adv-x="921" d="M43 1219q0 145 188 286q162 121 242 121q145 0 242 -631q72 -465 71 -737q0 -147 -49 -195q-66 -63 -282 -63q-176 0 -248 27q-111 41 -109 163q2 145 62 445q57 293 57 416q0 66 -45 90l-84 26q-45 15 -45 52z" />
<glyph unicode="&#xba;" d="M66 252q0 440 200 1055q41 127 145.5 206.5t229.5 79.5q178 0 277 -26q150 -43 198 -156q139 -319 195 -600q53 -260 53 -590q0 -231 -328 -231q-47 0 -223 -4q-71 -1 -127.5 -1t-99.5 1q-276 6 -353 30q-167 52 -167 236zM623 821q0 -35 34.5 -57.5t77.5 -22.5 q37 0 65.5 27t28.5 61q0 389 -118 390q-45 0 -68 -136q-20 -110 -20 -262z" />
<glyph unicode="&#xc5;" horiz-adv-x="1576" d="M578 1794q0 94 57 152.5t148 58.5q90 0 154.5 -66.5t64.5 -158.5q0 -82 -60.5 -140.5t-146.5 -58.5q-90 0 -153.5 62.5t-63.5 150.5zM695 1792q0 -45 27.5 -73.5t72.5 -28.5q41 0 67.5 27.5t26.5 68.5q0 106 -98 107q-96 -1 -96 -101zM70 225q0 86 123 512 q147 504 286 740q70 119 271 118q238 0 303 -98q170 -254 301 -692q113 -383 112 -584q0 -154 -112 -201q-66 -29 -236 -28q-158 0 -215 28q-80 41 -80 168q0 47 23.5 138.5t23.5 136.5q0 57 -31.5 96t-70.5 39q-84 0 -84 -152q0 -41 14.5 -123.5t14.5 -121.5 q0 -135 -111 -187q-129 -31 -237 -30q-115 0 -205 34q-90 68 -90 207zM696 1114q0 -106 68 -106q106 0 106 120q0 55 -28.5 98.5t-73.5 43.5q-29 0 -50.5 -50.5t-21.5 -105.5z" />
<glyph unicode="&#xc6;" horiz-adv-x="2396" d="M147 147q0 31 9 78q14 86 211 512q233 504 415 740q92 119 291 118q178 0 256 -65q88 72 236 65q104 -2 209.5 -5t154.5 -29q59 -35 60 -119q0 -76 -91 -96l-165 -17q-90 -16 -91 -80q0 -104 109 -104q23 0 84 6t96 6q41 0 78 -20q49 -27 49 -80q0 -70 -31.5 -95.5 t-113.5 -25.5q-16 0 -53 2h-52q-141 0 -141 -102q0 -98 186 -99q31 0 89.5 3t80.5 3q147 0 236 -141q80 -131 80 -332q0 -147 -82 -204q-90 -63 -336 -66l-758 -8q-139 -2 -194 20q-78 31 -78 119q0 27 6 57q8 45 59 158q43 96 43 148q0 63 -41 92t-84 -4q-49 -35 -67 -136 q-8 -41 -8 -123.5t-8 -121.5q-29 -137 -144 -187q-133 -31 -241 -30q-115 0 -201 34q-58 49 -58 129zM930 1075q0 -68 51 -67q61 0 100 51q33 43 33 104q0 106 -80 107q-35 0 -69.5 -68t-34.5 -127z" />
<glyph unicode="&#xd8;" horiz-adv-x="1576" d="M41 53q0 33 65 135l74 111q10 424 201 1008q41 127 145.5 206.5t229.5 79.5q246 0 360 -59q66 68 119 96q47 25 72 -6q6 -6 6 -20q0 -45 -76 -207q135 -313 190 -592q51 -256 52 -584q0 -231 -328 -231q-49 0 -223 -4q-141 -2 -228 0q-141 4 -170 4q-94 6 -155 20 q-57 -14 -168 -14q-166 0 -166 57zM737 821q0 -35 35 -57.5t78 -22.5q37 0 65.5 27t28.5 61q0 389 -119 390q-45 0 -67 -136q-21 -110 -21 -262z" />
<glyph unicode="&#xe5;" horiz-adv-x="1576" d="M600 1931q0 94 57 152.5t148 58.5q90 0 154.5 -66.5t64.5 -158.5q0 -82 -60.5 -140.5t-146.5 -58.5q-90 0 -153.5 62.5t-63.5 150.5zM717 1929q0 -45 27.5 -73.5t72.5 -28.5q41 0 67.5 27.5t26.5 68.5q0 106 -98 107q-96 -1 -96 -101zM70 225q0 86 123 512 q147 504 286 740q70 119 271 118q238 0 303 -98q170 -254 301 -692q113 -383 112 -584q0 -154 -112 -201q-66 -29 -236 -28q-158 0 -215 28q-80 41 -80 168q0 47 23.5 138.5t23.5 136.5q0 57 -31.5 96t-70.5 39q-84 0 -84 -152q0 -41 14.5 -123.5t14.5 -121.5 q0 -135 -111 -187q-129 -31 -237 -30q-115 0 -205 34q-90 68 -90 207zM696 1114q0 -106 68 -106q106 0 106 120q0 55 -28.5 98.5t-73.5 43.5q-29 0 -50.5 -50.5t-21.5 -105.5z" />
<glyph unicode="&#x152;" horiz-adv-x="2170" d="M66 252q0 440 200 1055q41 127 145.5 206.5t229.5 79.5q299 0 410 -94q88 102 268 96q104 -2 209.5 -5t154.5 -29q59 -35 60 -119q0 -76 -90 -96l-166 -17q-90 -16 -90 -80q0 -104 108 -104q23 0 84.5 6t96.5 6q41 0 77 -20q49 -27 49 -80q0 -70 -31.5 -95.5 t-113.5 -25.5q-16 0 -53 2h-51q-141 0 -142 -102q0 -98 187 -99q31 0 89 3t81 3q147 0 235 -141q80 -131 80 -332q0 -147 -82 -204q-90 -61 -336 -66l-1089 -14q-258 -4 -353 26q-167 54 -167 240zM623 821q0 -35 34.5 -57.5t77.5 -22.5q37 0 65.5 27t28.5 61 q0 389 -118 390q-45 0 -68 -136q-20 -110 -20 -262z" />
<glyph unicode="&#x153;" horiz-adv-x="2969" d="M1543 246q0 172 79 545q94 432 213 688q82 117 265 117q9 0 18 -1q104 -2 209.5 -5t155.5 -29q59 -35 59 -119q0 -76 -90 -96l-166 -17q-90 -16 -90 -80q0 -104 108 -104q23 0 84.5 6t96.5 6q41 0 77 -20q49 -27 50 -80q0 -70 -32 -95.5t-114 -25.5q-16 0 -53 2h-51 q-141 0 -142 -102q0 -98 187 -99q31 0 89 3t81 3q147 0 235 -141q80 -131 80 -332q0 -150 -82 -207q-87 -64 -321 -63h-15q-61 1 -149 1t-203 -1q-291 -2 -366 -2q-92 0 -154 78q-59 72 -59 170zM66 252q0 440 200 1055q41 127 145.5 206.5t229.5 79.5q178 0 277 -26 q150 -43 198 -156q139 -319 195 -600q53 -260 53 -590q0 -231 -328 -231q-47 0 -223 -4q-71 -1 -127.5 -1t-99.5 1q-276 6 -353 30q-167 52 -167 236zM623 821q0 -35 34.5 -57.5t77.5 -22.5q37 0 65.5 27t28.5 61q0 389 -118 390q-45 0 -68 -136q-20 -110 -20 -262z" />
<glyph unicode="&#x2000;" horiz-adv-x="1071" />
<glyph unicode="&#x2001;" horiz-adv-x="2142" />
<glyph unicode="&#x2002;" horiz-adv-x="1071" />
<glyph unicode="&#x2003;" horiz-adv-x="2142" />
<glyph unicode="&#x2004;" horiz-adv-x="712" />
<glyph unicode="&#x2005;" horiz-adv-x="534" />
<glyph unicode="&#x2006;" horiz-adv-x="356" />
<glyph unicode="&#x2007;" horiz-adv-x="356" />
<glyph unicode="&#x2008;" horiz-adv-x="266" />
<glyph unicode="&#x2009;" horiz-adv-x="428" />
<glyph unicode="&#x200a;" horiz-adv-x="118" />
<glyph unicode="&#x2010;" horiz-adv-x="1024" d="M100 729q0 100 66.5 178t173.5 78h299q115 0 186 -88q61 -78 62 -168q0 -98 -43 -131q-35 -29 -127 -29h-459q-76 0 -106 19q-52 35 -52 141z" />
<glyph unicode="&#x2011;" horiz-adv-x="1024" d="M100 729q0 100 66.5 178t173.5 78h299q115 0 186 -88q61 -78 62 -168q0 -98 -43 -131q-35 -29 -127 -29h-459q-76 0 -106 19q-52 35 -52 141z" />
<glyph unicode="&#x2013;" horiz-adv-x="1536" d="M100 729q0 100 66.5 178t173.5 78h852q115 0 186 -88q61 -78 62 -168q0 -98 -43 -131q-35 -29 -127 -29h-1012q-76 0 -106 19q-52 35 -52 141z" />
<glyph unicode="&#x2014;" horiz-adv-x="1945" d="M100 729q0 100 66.5 178t173.5 78h1282q115 0 186 -88q61 -78 62 -168q0 -98 -43 -131q-35 -29 -127 -29h-1442q-76 0 -106 19q-52 35 -52 141z" />
<glyph unicode="&#x2018;" horiz-adv-x="757" d="M33 1026q0 184 88 381q94 207 198 207q23 0 56 2t71 2q111 0 168 -113q51 -98 52 -248q0 -98 -150 -98h-22q-14 2 -23 2q-86 0 -86 -39t20.5 -115.5t20.5 -115.5q0 -25 -16 -33q-31 -14 -148 -14q-145 0 -190 41q-39 35 -39 141z" />
<glyph unicode="&#x2019;" horiz-adv-x="757" d="M35 1257q0 150 51 248q57 113 168 113q39 0 71.5 -2t55.5 -2q104 0 199 -207q88 -197 88 -381q0 -106 -39 -141q-45 -41 -191 -41q-117 0 -147 14q-16 8 -17 33q0 39 20.5 115.5t20.5 115.5t-86 39q-100 0 -129 6q-65 18 -65 90z" />
<glyph unicode="&#x201c;" d="M33 1026q0 184 88 381q94 207 198 207q23 0 56 2t71 2q111 0 168 -113q51 -98 52 -248q0 -98 -150 -98h-22q-14 2 -23 2q-86 0 -86 -39t20.5 -115.5t20.5 -115.5q0 -25 -16 -33q-31 -14 -148 -14q-145 0 -190 41q-39 35 -39 141zM709 1026q0 184 88 381q94 207 198 207 q23 0 55.5 2t71.5 2q111 0 168 -113q51 -98 51 -248q0 -98 -149 -98h-23q-14 2 -22 2q-86 0 -86 -39t20.5 -115.5t20.5 -115.5q0 -25 -17 -33q-31 -14 -147 -14q-145 0 -190 41q-39 35 -39 141z" />
<glyph unicode="&#x201d;" d="M35 1257q0 150 51 248q57 113 168 113q39 0 71.5 -2t55.5 -2q104 0 199 -207q88 -197 88 -381q0 -106 -39 -141q-45 -41 -191 -41q-117 0 -147 14q-16 8 -17 33q0 39 20.5 115.5t20.5 115.5t-86 39q-100 0 -129 6q-65 18 -65 90zM711 1257q0 150 51 248q57 113 168 113 q39 0 71.5 -2t55.5 -2q104 0 198 -207q88 -197 88 -381q0 -106 -38 -141q-45 -41 -191 -41q-117 0 -147 14q-16 8 -17 33q0 39 20.5 115.5t20.5 115.5t-86 39q-100 0 -129 6q-65 18 -65 90z" />
<glyph unicode="&#x2022;" horiz-adv-x="921" d="M72 858q-2 160 110.5 275.5t272.5 117.5q162 2 276.5 -112.5t116.5 -274.5t-109.5 -274.5t-271.5 -116.5q-162 -2 -277.5 110.5t-117.5 274.5z" />
<glyph unicode="&#x2026;" horiz-adv-x="3072" d="M68 164q0 276 94 360q63 53 252 54q190 0 252 -46q102 -76 102 -339q0 -135 -66 -166q-55 -27 -292 -27q-203 0 -252 16q-90 31 -90 148zM1100 164q0 276 94 360q63 53 252 54q190 0 252 -46q102 -76 102 -339q0 -135 -65 -166q-55 -27 -293 -27q-203 0 -252 16 q-90 31 -90 148zM2124 164q0 276 94 360q63 53 252 54q190 0 252 -46q102 -76 102 -339q0 -135 -65 -166q-55 -27 -293 -27q-203 0 -252 16q-90 31 -90 148z" />
<glyph unicode="&#x202f;" horiz-adv-x="428" />
<glyph unicode="&#x205f;" horiz-adv-x="534" />
<glyph unicode="&#x2122;" horiz-adv-x="1638" d="M43 1434q0 49 34 89t83 50q166 10 377 4q59 -2 92 -60.5t33 -132.5q0 -49 -35 -49q-23 0 -65 16.5t-60 16.5q-12 0 -30.5 -13.5t-18.5 -25.5q0 -57 51 -188t51 -236q0 -100 -78 -110q-88 -10 -135 -11q-82 0 -145 25q-29 12 -33 88q-4 86 46 242.5t50 167.5q0 61 -61 61 q-12 0 -46 -19.5t-49 -19.5q-61 1 -61 105zM635 952q0 109 59 289q51 160 115 279q39 72 106 71q68 0 95 -65q4 -8 24 -121q12 -66 49 -66q29 0 43 64q27 117 27 119q25 66 74 65q70 0 88 -28q201 -311 201 -601q0 -100 -31 -135q-35 -41 -146 -41q-150 0 -149 86 q0 27 23.5 77t23.5 91q0 35 -25 35q-23 0 -44 -29.5t-21 -76.5t-23.5 -79t-52.5 -32q-63 0 -63 119q0 37 -20.5 65.5t-41.5 28.5q-20 0 -20 -33q0 -31 23.5 -83t23.5 -91q0 -49 -41 -59q-70 -8 -113 -8q-184 -1 -184 159z" />
</font>
</defs>
</svg>
